<?xml version="1.0" encoding="utf-8"?>
<!-- Generator: Adobe Illustrator 25.2.3, SVG Export Plug-In . SVG Version: 6.00 Build 0)  -->
<svg version="1.1" id="Layer_1" xmlns="http://www.w3.org/2000/svg" xmlns:xlink="http://www.w3.org/1999/xlink" x="0px" y="0px"
	 viewBox="0 0 679 56" style="enable-background:new 0 0 679 56;" xml:space="preserve">
<style type="text/css">
	.st0{opacity:0.47;}
	.st1{fill:#002C82;}
	.st2{fill:#FFFFFF;}
</style>
<g>
	<g class="st0">
		<path class="st1" d="M400.7,20.9c1.5,0,2.8,0.4,4,1.1c1.2,0.7,2.1,1.7,2.8,3s1,3,1,4.9c0,2.2-0.4,4.2-1.2,6.2
			c-0.8,1.9-1.9,3.4-3.5,4.6c-1.5,1.2-3.3,1.7-5.4,1.7c-1.8,0-3.3-0.4-4.5-1.2c-1.2-0.8-2-1.9-2.6-3.3c-0.5-1.4-0.8-2.9-0.8-4.6
			c0-2.2,0.4-4.3,1.2-6.1c0.8-1.9,2-3.3,3.5-4.4C396.8,21.4,398.6,20.9,400.7,20.9z M400.1,22.4c-1.2,0-2.2,0.4-3.1,1.2
			c-0.9,0.8-1.6,1.9-2.1,3.4c-0.5,1.4-0.7,3-0.7,4.8c0,0.9,0,1.9,0.2,3c0.1,1,0.4,2,0.7,2.9c0.4,0.9,0.8,1.6,1.4,2.2
			c0.6,0.6,1.4,0.9,2.3,0.9c1.1,0,2-0.3,2.8-0.9c0.8-0.6,1.4-1.4,1.8-2.4c0.5-1,0.8-2,1-3.2c0.2-1.1,0.4-2.2,0.4-3.2
			c0-1,0-1.9-0.2-3c-0.1-1-0.3-2-0.7-2.8c-0.4-0.9-0.8-1.6-1.5-2.1C401.9,22.7,401.1,22.4,400.1,22.4z"/>
		<path class="st1" d="M423.4,10.6c1,0,1.8,0.2,2.3,0.5c0.5,0.4,0.8,0.9,0.8,1.6c0,0.3-0.1,0.7-0.4,1.1c-0.2,0.4-0.6,0.6-1.3,0.6
			c-0.5,0-0.9-0.2-1.2-0.6c-0.3-0.4-0.4-0.9-0.4-1.5c-0.1-0.1-0.2-0.1-0.5-0.1c-0.2-0.1-0.5-0.1-0.7,0c-0.9,0.1-1.5,0.5-2.1,1.3
			c-0.5,0.8-0.9,1.9-1.1,3.2c-0.2,1.3-0.4,2.9-0.6,4.6h5.8l-0.1,1.6l-5.8,0.1c-0.1,1.4-0.2,2.9-0.2,4.5c-0.1,1.5-0.2,3.1-0.3,4.7
			c-0.2,2-0.4,4-0.5,6c-0.2,2-0.4,3.8-0.7,5.6c-0.3,1.8-0.8,3.4-1.4,4.7c-0.6,1.4-1.4,2.5-2.5,3.3c-1,0.8-2.4,1.2-4,1.2
			c-2.1,0-3.2-0.7-3.2-2.1c0-0.3,0.1-0.7,0.4-1.1c0.2-0.4,0.7-0.6,1.3-0.6c0.5,0,0.9,0.2,1.2,0.5c0.3,0.4,0.4,0.8,0.4,1.4
			c0.3,0.2,0.7,0.3,1.2,0.3c1,0,1.7-0.5,2.2-1.5c0.5-1,0.9-2.4,1.2-4.2c0.2-1.8,0.4-3.8,0.6-6.2c0.2-2.4,0.4-4.9,0.6-7.6
			c0.1-1.5,0.2-2.9,0.3-4.4c0.1-1.5,0.2-3,0.4-4.4l-3.6,0l0.2-1.8h3.6c0.3-2,0.7-3.8,1.3-5.4c0.6-1.6,1.4-2.9,2.5-3.8
			C420.1,11.1,421.6,10.7,423.4,10.6z"/>
		<path class="st1" d="M21.2,15.9c-0.1-1.7-0.5-3.3-1.2-4.8c-0.7-1.5-1.7-2.8-3.1-3.7S13.8,6,11.7,6c-2.2,0-3.9,0.6-5,1.9
			C5.5,9.1,5,10.5,5,12.2c0,1.5,0.4,2.7,1.3,3.8c0.8,1,1.9,1.9,3.3,2.7c1.4,0.7,2.8,1.5,4.4,2.2c1.3,0.6,2.7,1.3,4,2
			c1.3,0.7,2.6,1.5,3.7,2.3c1.1,0.9,2,1.9,2.6,3.2c0.7,1.2,1,2.7,1,4.4c0,2.9-1.1,5.4-3.2,7.3c-2.2,1.9-5.2,2.8-9.2,2.8
			c-1.6,0-3.2-0.2-4.9-0.7c-1.7-0.5-3.2-1.1-4.5-2l0.3,2.3H0.8L0.5,30.9h2.1c0.2,3.1,1.3,5.5,3.2,7.1c2,1.6,4.4,2.4,7.2,2.4
			c1.4,0,2.7-0.2,3.8-0.7c1.2-0.5,2.1-1.3,2.8-2.3c0.7-1,1.1-2.2,1.1-3.6c0-1.6-0.4-2.9-1.3-4c-0.8-1.1-1.9-2-3.3-2.8
			c-1.3-0.8-2.8-1.5-4.3-2.2c-1.3-0.6-2.7-1.2-4-1.9c-1.3-0.7-2.5-1.4-3.6-2.3c-1.1-0.9-1.9-1.9-2.6-3.1c-0.6-1.2-1-2.7-1-4.4
			c0-0.9,0.2-1.9,0.5-3c0.3-1.1,0.9-2.1,1.6-3c0.8-1,1.9-1.8,3.3-2.4c1.4-0.6,3.2-1,5.4-1c1.3,0,2.8,0.2,4.5,0.6
			c1.7,0.4,3.3,1.1,4.7,2.1l-0.2-2.3h2.7v11.7H21.2z"/>
		<path class="st1" d="M40.7,42.7c-1.9,0-3.5-0.4-4.8-1.1c-1.3-0.7-2.2-1.9-2.9-3.6c-0.6-1.7-1-4-1-6.9v-9.4c0-0.6,0-1.1,0-1.7
			c0-0.6,0.1-1.1,0.2-1.8c-0.6,0-1.2,0.1-1.9,0.1c-0.6,0-1.2,0-1.8,0.1v-2.2h1.6c1.5,0,2.6-0.1,3.3-0.4c0.7-0.3,1.3-0.7,1.6-1h1.5
			v16.2c0,3,0.4,5.3,1.3,6.8c0.9,1.5,2.4,2.2,4.5,2.2c1.3,0,2.6-0.4,3.8-1.2c1.2-0.8,2.2-1.8,3-2.9V22.2c0-0.8,0-1.6,0.1-2.2
			c0-0.6,0.1-1.3,0.2-1.9c-0.6,0-1.3,0.1-1.9,0.1c-0.6,0-1.3,0-1.9,0.1v-2.2h1.6c1.5,0,2.6-0.1,3.3-0.4c0.7-0.3,1.3-0.7,1.6-1h1.5
			l-0.1,20.1c0,0.6,0,1.4-0.1,2.4c0,1-0.1,1.9-0.2,2.6c0.6,0,1.3-0.1,1.9-0.1c0.6,0,1.3-0.1,1.9-0.1v2.2h-7.6
			c-0.1-0.6-0.2-1.2-0.3-1.7c0-0.5-0.1-1-0.1-1.5c-1.1,1.1-2.4,2.1-4,2.9C43.9,42.3,42.3,42.7,40.7,42.7z"/>
		<path class="st1" d="M60.7,55.4v-1.6c1.1,0,1.9-0.3,2.3-0.8c0.4-0.5,0.7-1.3,0.7-2.3c0.1-1,0.1-2.1,0.1-3.3L64,21.7
			c0-0.6,0-1.1,0-1.7c0-0.6,0.1-1.1,0.2-1.8c-0.6,0-1.3,0.1-1.9,0.1c-0.6,0-1.2,0.1-1.9,0.1v-2.2c1.6,0,2.7-0.1,3.5-0.2
			c0.8-0.1,1.4-0.3,1.8-0.5c0.4-0.2,0.7-0.4,1-0.7h1.6c0,0.4,0.1,0.8,0.1,1.3c0,0.5,0.1,1,0.1,1.6c1.1-1,2.3-1.7,3.8-2.3
			c1.5-0.6,3-0.9,4.5-0.9c2.1,0,4,0.5,5.7,1.6c1.8,1.1,3.2,2.6,4.3,4.6c1.1,1.9,1.6,4.3,1.6,7c0,3-0.6,5.6-1.9,7.9
			c-1.2,2.3-2.9,4-4.9,5.3c-2.1,1.2-4.3,1.9-6.7,1.9c-2.4,0-4.6-0.6-6.4-1.8v8.8c0,0.7,0,1.3-0.1,1.9c0,0.6-0.1,1.1-0.2,1.8
			c0.6,0,1.1-0.1,1.6-0.1c0.6,0,1.1,0,1.7-0.1v2.2H60.7z M74.7,40.6c1.7,0,3.1-0.5,4.4-1.5c1.2-1.1,2.2-2.5,2.8-4.3
			c0.7-1.8,1-3.9,1-6.3c0-1.9-0.3-3.7-0.8-5.5c-0.5-1.8-1.4-3.2-2.6-4.3c-1.2-1.1-2.7-1.6-4.7-1.6c-1.2,0-2.4,0.3-3.5,0.9
			c-1.1,0.6-2,1.3-2.8,2.1c0,0.1,0,0.4,0,0.6c0,0.2,0.1,0.7,0.1,1.4c0,0.6,0,1.6,0,2.9c0,1.3,0,3-0.1,5.2c0,2.2,0,5,0,8.3
			C70.3,39.9,72.4,40.6,74.7,40.6z"/>
		<path class="st1" d="M92.9,40.2c1.1,0,1.9-0.3,2.3-0.8c0.4-0.6,0.7-1.3,0.7-2.3c0.1-1,0.1-2.1,0.1-3.4V21.7c0-0.6,0-1.1,0-1.7
			c0-0.6,0.1-1.1,0.2-1.8c-0.6,0-1.3,0.1-1.9,0.1c-0.6,0-1.2,0-1.9,0.1v-2.2h1.6c1.5,0,2.6-0.1,3.1-0.4c0.6-0.3,1.1-0.7,1.5-1h1.5
			c0.1,0.6,0.1,1.3,0.2,2.1c0,0.8,0.1,1.9,0.1,3.1c0.5-0.9,1.3-1.8,2.2-2.6c0.9-0.8,1.9-1.6,3.1-2.1c1.2-0.6,2.4-0.8,3.7-0.8
			c1,0,1.9,0.3,2.6,0.8c0.7,0.5,1.1,1.4,1.1,2.5c0,0.5-0.2,1-0.6,1.6c-0.4,0.6-1.1,0.9-2,0.9c-0.8,0-1.4-0.3-1.9-0.9
			c-0.5-0.6-0.6-1.3-0.5-2.1c-1.3-0.1-2.7,0.4-4.1,1.5c-1.4,1.1-2.5,2.5-3.4,4.2l0.1,13.1c0,0.7,0,1.3-0.1,1.9
			c0,0.5-0.1,1.1-0.2,1.7c0.6,0,1.1-0.1,1.6-0.1c0.6,0,1.1-0.1,1.7-0.1v2.2H92.9V40.2z"/>
		<path class="st1" d="M128.3,42.7c-2.4,0-4.7-0.6-6.6-1.7c-1.9-1.2-3.5-2.8-4.6-4.9c-1.1-2.1-1.7-4.6-1.7-7.5c0-2.5,0.5-4.8,1.6-7
			c1.1-2.2,2.7-3.9,4.7-5.2c2-1.3,4.4-2,7-2c2,0,3.8,0.4,5.4,1.3c1.6,0.8,2.9,2.1,3.9,3.9c1,1.7,1.5,3.9,1.5,6.6l-18.7,0.3
			c0,4.1,0.6,7.3,2,9.8c1.4,2.4,3.6,3.7,6.7,3.7c1.1,0,2.2-0.2,3.3-0.6c1.2-0.4,2.2-0.9,3.2-1.6c1-0.7,1.8-1.4,2.4-2.2l1.3,1.1
			c-1,1.5-2.1,2.7-3.4,3.6c-1.3,0.9-2.7,1.5-4.1,1.9C130.8,42.5,129.5,42.7,128.3,42.7z M121,24.3h13.5c0-1.3-0.2-2.5-0.6-3.7
			c-0.4-1.2-1-2.2-1.8-2.9c-0.8-0.8-2-1.2-3.3-1.2c-2.1,0-3.8,0.6-5.1,1.9C122.3,19.6,121.4,21.5,121,24.3z"/>
		<path class="st1" d="M144.2,41.8v-1.6c1.1,0,1.9-0.3,2.3-0.8c0.4-0.6,0.7-1.3,0.7-2.3c0.1-1,0.1-2.1,0.1-3.4V21.7
			c0-0.6,0-1.1,0-1.7c0-0.6,0.1-1.1,0.2-1.8c-0.6,0-1.3,0.1-1.9,0.1c-0.6,0-1.2,0.1-1.9,0.1v-2.2c1.6,0,2.7-0.1,3.5-0.2
			c0.8-0.1,1.4-0.3,1.8-0.5c0.4-0.2,0.7-0.4,1-0.7h1.5c0.1,0.4,0.1,0.8,0.1,1.2c0,0.5,0.1,1,0.1,1.6c1.1-0.9,2.3-1.7,3.7-2.2
			c1.4-0.6,2.8-0.9,4.1-0.9c1.8,0,3.3,0.3,4.5,1c1.2,0.6,2.1,1.5,2.8,2.6c1.2-1,2.6-1.8,4.1-2.5c1.6-0.7,3.1-1.1,4.7-1.1
			c3.1,0,5.3,0.9,6.8,2.8c1.5,1.8,2.1,4.9,2.1,9.1l-0.1,9.9c0,0.7,0,1.3-0.1,1.9c0,0.5-0.1,1.1-0.2,1.7c0.6,0,1.1-0.1,1.6-0.1
			c0.6,0,1.1-0.1,1.7-0.1v2.2h-10.8v-1.6c1.1,0,1.9-0.3,2.3-0.8c0.4-0.6,0.7-1.3,0.7-2.3c0.1-1,0.1-2.1,0.1-3.4v-7.4
			c0-3-0.5-5.3-1.5-6.8c-1-1.5-2.5-2.3-4.6-2.2c-1.1,0-2.2,0.2-3.3,0.7c-1.1,0.5-2.1,1.1-2.9,1.9c0.2,0.6,0.3,1.2,0.4,1.9
			c0.1,0.6,0.2,1.3,0.2,2c0,2.1-0.1,4.1-0.1,6.2s0,4.2-0.1,6.3c0,0.7,0,1.3-0.1,1.9c0,0.5-0.1,1.1-0.2,1.7c0.6,0,1.1-0.1,1.6-0.1
			c0.6,0,1.1-0.1,1.7-0.1v2.2h-10.8v-1.6c1.1,0,1.8-0.3,2.2-0.8c0.4-0.6,0.7-1.3,0.7-2.3c0.1-1,0.2-2.1,0.2-3.4l0.1-7.4
			c0-3-0.4-5.3-1.3-6.9c-0.9-1.6-2.4-2.3-4.5-2.3c-1.1,0-2.2,0.2-3.2,0.7c-1.1,0.5-2,1.1-2.7,1.8c0,0.4,0,0.9,0,1.4
			c0,0.5,0.1,1,0.1,1.5v13.6c0,0.7,0,1.3-0.1,1.9c0,0.5-0.1,1.1-0.2,1.7c0.6,0,1.1-0.1,1.6-0.1c0.6,0,1.1-0.1,1.7-0.1v2.2H144.2z"/>
		<path class="st1" d="M204.5,42.7c-2.4,0-4.7-0.6-6.6-1.7c-1.9-1.2-3.5-2.8-4.6-4.9c-1.1-2.1-1.7-4.6-1.7-7.5c0-2.5,0.5-4.8,1.6-7
			c1.1-2.2,2.7-3.9,4.7-5.2c2-1.3,4.4-2,7-2c2,0,3.8,0.4,5.4,1.3s2.9,2.1,3.9,3.9c1,1.7,1.5,3.9,1.5,6.6L197,26.5
			c0,4.1,0.6,7.3,2,9.8c1.4,2.4,3.6,3.7,6.7,3.7c1.1,0,2.2-0.2,3.3-0.6c1.2-0.4,2.2-0.9,3.2-1.6c1-0.7,1.8-1.4,2.4-2.2l1.3,1.1
			c-1,1.5-2.1,2.7-3.4,3.6c-1.3,0.9-2.7,1.5-4.1,1.9C207,42.5,205.7,42.7,204.5,42.7z M197.2,24.3h13.5c0-1.3-0.2-2.5-0.6-3.7
			c-0.4-1.2-1-2.2-1.8-2.9c-0.8-0.8-2-1.2-3.3-1.2c-2.1,0-3.8,0.6-5.1,1.9C198.5,19.6,197.6,21.5,197.2,24.3z"/>
		<path class="st1" d="M264.3,16.5c-0.4-3.3-1.5-5.9-3.5-7.7c-1.9-1.8-4.5-2.8-7.5-2.8c-2.5,0-4.8,0.7-6.8,2.1
			c-2.1,1.4-3.7,3.3-4.9,5.9c-1.2,2.5-1.8,5.6-1.8,9c0,3.3,0.6,6.3,1.9,8.8c1.3,2.5,3,4.5,5.1,5.9c2.2,1.4,4.5,2.1,7.2,2.1
			c2.3,0,4.6-0.5,6.8-1.5c2.2-1.1,4.1-2.6,5.5-4.6l1.4,1.1c-1.5,2.1-3.2,3.7-4.9,4.8c-1.8,1.1-3.5,1.9-5.3,2.3
			c-1.7,0.4-3.3,0.6-4.8,0.6c-2.7,0-5.1-0.5-7.3-1.4c-2.2-1-4.1-2.3-5.7-4c-1.6-1.7-2.8-3.7-3.7-6c-0.8-2.3-1.3-4.8-1.3-7.4
			c0-2.5,0.4-5,1.1-7.3c0.8-2.4,1.9-4.5,3.4-6.4c1.5-1.9,3.4-3.4,5.7-4.6c2.3-1.1,5-1.7,8.1-1.7c3.9,0,7.5,1.1,10.7,3.2l-0.3-2.9
			h2.9v12.3H264.3z"/>
		<path class="st1" d="M284.6,42.7c-2.5,0-4.7-0.6-6.7-1.7c-2-1.2-3.6-2.8-4.8-4.8c-1.2-2.1-1.8-4.4-1.8-7c0-2.8,0.6-5.3,1.8-7.5
			c1.2-2.2,2.8-4,4.8-5.3c2-1.3,4.3-2,6.8-2c2.5,0,4.7,0.6,6.7,1.8c2,1.2,3.6,2.8,4.8,4.8c1.2,2,1.8,4.3,1.8,6.9
			c0,2.7-0.6,5.2-1.8,7.5c-1.2,2.2-2.8,4-4.8,5.3C289.4,42,287.1,42.7,284.6,42.7z M285,40.6c1.9,0,3.4-0.5,4.5-1.6
			c1.1-1.1,1.9-2.4,2.3-4.1c0.5-1.7,0.7-3.5,0.7-5.4c0-1.6-0.2-3.1-0.5-4.7c-0.3-1.6-0.7-3-1.4-4.2c-0.6-1.3-1.5-2.3-2.5-3
			c-1-0.7-2.2-1.1-3.6-1.1c-1.8,0-3.3,0.5-4.5,1.6c-1.2,1.1-2,2.4-2.6,4.1c-0.5,1.7-0.8,3.5-0.8,5.5c0,2.2,0.3,4.3,0.9,6.3
			c0.6,1.9,1.5,3.5,2.8,4.8C281.6,39.9,283.1,40.6,285,40.6z"/>
		<path class="st1" d="M313.7,42.7c-1.9,0-3.5-0.4-4.8-1.1c-1.3-0.7-2.2-1.9-2.9-3.6c-0.6-1.7-1-4-1-6.9v-9.4c0-0.6,0-1.1,0-1.7
			c0-0.6,0.1-1.1,0.2-1.8c-0.6,0-1.2,0.1-1.9,0.1c-0.6,0-1.2,0-1.8,0.1v-2.2h1.6c1.5,0,2.6-0.1,3.3-0.4c0.7-0.3,1.3-0.7,1.6-1h1.5
			v16.2c0,3,0.4,5.3,1.3,6.8c0.9,1.5,2.4,2.2,4.5,2.2c1.3,0,2.6-0.4,3.8-1.2c1.2-0.8,2.2-1.8,3-2.9V22.2c0-0.8,0-1.6,0.1-2.2
			c0-0.6,0.1-1.3,0.2-1.9c-0.6,0-1.3,0.1-1.9,0.1c-0.6,0-1.3,0-1.9,0.1v-2.2h1.6c1.5,0,2.6-0.1,3.3-0.4c0.7-0.3,1.3-0.7,1.6-1h1.5
			l-0.1,20.1c0,0.6,0,1.4-0.1,2.4c0,1-0.1,1.9-0.2,2.6c0.6,0,1.3-0.1,1.9-0.1c0.6,0,1.3-0.1,1.9-0.1v2.2h-7.6
			c-0.1-0.6-0.2-1.2-0.3-1.7c0-0.5-0.1-1-0.1-1.5c-1.1,1.1-2.4,2.1-4,2.9C316.8,42.3,315.2,42.7,313.7,42.7z"/>
		<path class="st1" d="M334.1,40.2c1.1,0,1.9-0.3,2.3-0.8c0.4-0.6,0.7-1.3,0.7-2.3c0.1-1,0.1-2.1,0.1-3.4V21.7c0-0.6,0-1.1,0-1.7
			c0-0.6,0.1-1.1,0.2-1.8c-0.6,0-1.3,0.1-1.9,0.1c-0.6,0-1.2,0-1.9,0.1v-2.2h1.6c1.5,0,2.6-0.1,3.1-0.4c0.6-0.3,1.1-0.7,1.5-1h1.5
			c0.1,0.6,0.1,1.3,0.2,2.1c0,0.8,0.1,1.9,0.1,3.1c0.5-0.9,1.3-1.8,2.2-2.6c0.9-0.8,1.9-1.6,3.1-2.1c1.2-0.6,2.4-0.8,3.7-0.8
			c1,0,1.9,0.3,2.6,0.8c0.7,0.5,1.1,1.4,1.1,2.5c0,0.5-0.2,1-0.6,1.6c-0.4,0.6-1.1,0.9-2,0.9c-0.8,0-1.4-0.3-1.9-0.9
			c-0.5-0.6-0.6-1.3-0.5-2.1c-1.3-0.1-2.7,0.4-4.1,1.5c-1.4,1.1-2.5,2.5-3.4,4.2l0.1,13.1c0,0.7,0,1.3-0.1,1.9
			c0,0.5-0.1,1.1-0.2,1.7c0.6,0,1.1-0.1,1.6-0.1c0.6,0,1.1-0.1,1.7-0.1v2.2h-10.9V40.2z"/>
		<path class="st1" d="M367.4,42.7c-0.8,0-1.6-0.1-2.5-0.4c-0.8-0.2-1.6-0.7-2.4-1.3c-0.7-0.7-1.3-1.6-1.7-2.9
			c-0.4-1.3-0.6-3-0.6-5.1l0.1-15.4l-4.1,0.1v-2.3c0.9,0,1.9-0.4,2.8-1c1-0.7,1.8-1.6,2.5-2.7c0.8-1.1,1.3-2.4,1.6-3.7h1.8v7.4h8.9
			v2.1l-8.9,0.1l-0.1,14.8c0,2.4,0.3,4.2,0.9,5.5c0.6,1.3,1.7,1.9,3.1,1.9c1,0,1.9-0.3,2.8-0.8c0.9-0.6,1.7-1.3,2.3-2.3l1.4,1.2
			c-1,1.6-2.1,2.7-3.1,3.4c-1,0.7-1.9,1.1-2.8,1.3C368.8,42.6,368,42.7,367.4,42.7z"/>
		<path class="st1" d="M470.5,16.5c-0.4-3.3-1.5-5.9-3.5-7.7c-1.9-1.8-4.5-2.8-7.5-2.8c-2.5,0-4.8,0.7-6.8,2.1
			c-2.1,1.4-3.7,3.3-4.9,5.9c-1.2,2.5-1.8,5.6-1.8,9c0,3.3,0.6,6.3,1.9,8.8c1.3,2.5,3,4.5,5.1,5.9c2.2,1.4,4.5,2.1,7.2,2.1
			c2.3,0,4.6-0.5,6.8-1.5c2.2-1.1,4-2.6,5.5-4.6l1.4,1.1c-1.5,2.1-3.2,3.7-4.9,4.8c-1.8,1.1-3.5,1.9-5.3,2.3
			c-1.7,0.4-3.3,0.6-4.8,0.6c-2.7,0-5.1-0.5-7.3-1.4c-2.2-1-4.1-2.3-5.7-4c-1.6-1.7-2.8-3.7-3.7-6c-0.8-2.3-1.3-4.8-1.3-7.4
			c0-2.5,0.4-5,1.1-7.3c0.8-2.4,1.9-4.5,3.4-6.4c1.5-1.9,3.4-3.4,5.7-4.6c2.3-1.1,5-1.7,8.1-1.7c3.9,0,7.5,1.1,10.7,3.2l-0.3-2.9
			h2.9v12.3H470.5z"/>
		<path class="st1" d="M493.8,41.8c-0.1-0.6-0.2-1.1-0.2-1.6c0-0.5-0.1-0.9-0.2-1.4c-1.2,1.2-2.5,2.2-3.9,2.9c-1.4,0.7-2.8,1-4.4,1
			c-2.7,0-4.7-0.6-6-1.8c-1.3-1.2-2-2.7-2-4.5c0-1.6,0.5-3,1.5-4.2c1-1.2,2.3-2.2,3.9-2.9c1.6-0.8,3.4-1.3,5.3-1.7
			c1.9-0.4,3.7-0.6,5.5-0.5v-3.3c0-1.2-0.1-2.4-0.3-3.5c-0.2-1.1-0.7-2-1.4-2.7c-0.7-0.7-1.8-1.1-3.4-1.1c-1,0-2.1,0.2-3.2,0.6
			c-1.1,0.4-1.8,1.1-2.3,2.2c0.3,0.3,0.5,0.6,0.5,1c0.1,0.4,0.2,0.7,0.2,1c0,0.4-0.2,0.9-0.5,1.5c-0.4,0.5-1,0.8-1.9,0.7
			c-0.7,0-1.3-0.2-1.7-0.7c-0.4-0.5-0.6-1.1-0.6-1.9c0-1.2,0.4-2.3,1.3-3.2c0.9-1,2.2-1.7,3.8-2.3c1.6-0.6,3.4-0.8,5.4-0.8
			c3,0,5.2,0.8,6.6,2.4c1.4,1.6,2.1,4,2.1,7.4c0,2,0,4-0.1,6c0,2,0,4,0,5.9c0,0.6,0,1.1-0.1,1.7c0,0.6-0.1,1.2-0.2,1.9
			c0.6,0,1.3-0.1,1.9-0.1c0.6,0,1.3-0.1,1.9-0.1v2.2H493.8z M493.4,28.8c-1.2,0-2.5,0.2-3.8,0.5c-1.3,0.2-2.5,0.6-3.7,1.2
			c-1.1,0.5-2,1.2-2.7,2.1c-0.7,0.8-1,1.9-1,3.1c0.1,1.3,0.5,2.3,1.3,3c0.8,0.6,1.8,1,2.9,1c1.4,0,2.7-0.3,3.8-0.8
			c1.1-0.6,2.2-1.3,3.2-2.3c0-0.4-0.1-0.8-0.1-1.3c0-0.5,0-0.9,0-1.4c0-0.2,0-0.7,0-1.7C493.3,31.2,493.4,30.1,493.4,28.8z"/>
		<path class="st1" d="M504.5,40.2c1.1,0,1.9-0.3,2.3-0.8c0.4-0.6,0.7-1.3,0.7-2.3c0.1-1,0.1-2.1,0.1-3.4V8.7c0-0.6,0-1.1,0-1.6
			c0-0.5,0.1-1.1,0.2-1.9c-0.6,0-1.3,0.1-1.9,0.1c-0.6,0-1.2,0.1-1.9,0.1V3.2c1.6,0,2.8-0.1,3.6-0.2c0.9-0.1,1.5-0.3,2-0.5
			c0.5-0.2,0.8-0.4,1.1-0.7h1.5l0.1,34.4c0,0.7,0,1.3-0.1,1.9c0,0.5-0.1,1.1-0.2,1.7c0.6,0,1.1-0.1,1.6-0.1c0.6,0,1.1-0.1,1.7-0.1
			v2.2h-10.8V40.2z"/>
		<path class="st1" d="M519.5,40.2c1.1,0,1.9-0.3,2.3-0.8c0.4-0.6,0.7-1.3,0.7-2.3c0.1-1,0.1-2.1,0.1-3.4V21.7c0-0.6,0-1.1,0.1-1.6
			c0-0.5,0.1-1.1,0.2-1.9c-0.6,0-1.3,0.1-1.9,0.1c-0.6,0-1.2,0.1-1.9,0.1v-2.2c1.6,0,2.8-0.1,3.6-0.2c0.8-0.1,1.5-0.3,1.9-0.5
			c0.5-0.2,0.8-0.4,1.1-0.7h1.5v21.4c0,0.7,0,1.3-0.1,1.9c0,0.5-0.1,1.1-0.2,1.7c0.6,0,1.1-0.1,1.6-0.1c0.6,0,1.1-0.1,1.7-0.1v2.2
			h-10.8V40.2z M524.7,9.5c-0.7,0-1.4-0.3-2-0.9s-0.8-1.3-0.8-2.2c0-0.9,0.3-1.6,0.8-2.2c0.6-0.6,1.3-1,2-1c0.8,0,1.5,0.3,2,1
			c0.6,0.6,0.8,1.3,0.8,2.2c0,0.9-0.3,1.6-0.9,2.2C526.1,9.2,525.5,9.5,524.7,9.5z"/>
		<path class="st1" d="M537.8,14.2c0-3.9,0.7-7,2.1-9.3c1.5-2.3,3.9-3.4,7.4-3.4c0.8,0,1.6,0.1,2.4,0.4c0.9,0.2,1.6,0.7,2.3,1.3
			c0.6,0.6,1,1.3,1,2.2c0,0.7-0.2,1.2-0.6,1.7c-0.4,0.5-0.9,0.7-1.6,0.7c-0.8,0-1.5-0.2-1.8-0.7c-0.3-0.6-0.5-1-0.5-1.4
			c0-0.2,0-0.4,0.1-0.6c0-0.2,0.1-0.4,0.2-0.7c-0.2-0.3-0.6-0.5-1.1-0.7c-0.4-0.1-0.8-0.2-1.2-0.2c-1.1,0-1.9,0.3-2.5,1
			c-0.6,0.6-1,1.4-1.3,2.4c-0.2,1-0.4,1.9-0.4,3v5.6h7.2v2.1l-7.2,0.2l0.1,18.7c0,0.7,0,1.3-0.1,1.9c0,0.5-0.1,1.1-0.2,1.7
			c0.6,0,1.1-0.1,1.6-0.1c0.6,0,1.1-0.1,1.7-0.1v2.2h-10.8v-1.6c1.1,0,1.9-0.3,2.3-0.8c0.4-0.6,0.7-1.3,0.7-2.3
			c0.1-1,0.1-2.1,0.1-3.4l-0.1-16.2l-4.4,0.1v-2.4h4.4V14.2z"/>
		<path class="st1" d="M565.3,42.7c-2.5,0-4.7-0.6-6.7-1.7c-2-1.2-3.6-2.8-4.8-4.8c-1.2-2.1-1.8-4.4-1.8-7c0-2.8,0.6-5.3,1.8-7.5
			c1.2-2.2,2.8-4,4.8-5.3c2-1.3,4.3-2,6.8-2c2.5,0,4.7,0.6,6.7,1.8c2,1.2,3.6,2.8,4.8,4.8c1.2,2,1.8,4.3,1.8,6.9
			c0,2.7-0.6,5.2-1.8,7.5c-1.2,2.2-2.8,4-4.8,5.3C570.1,42,567.8,42.7,565.3,42.7z M565.7,40.6c1.9,0,3.4-0.5,4.5-1.6
			s1.9-2.4,2.3-4.1c0.5-1.7,0.7-3.5,0.7-5.4c0-1.6-0.2-3.1-0.5-4.7c-0.3-1.6-0.7-3-1.4-4.2c-0.6-1.3-1.5-2.3-2.5-3
			c-1-0.7-2.2-1.1-3.6-1.1c-1.8,0-3.3,0.5-4.5,1.6c-1.2,1.1-2,2.4-2.6,4.1c-0.5,1.7-0.8,3.5-0.8,5.5c0,2.2,0.3,4.3,0.9,6.3
			c0.6,1.9,1.5,3.5,2.8,4.8C562.3,39.9,563.8,40.6,565.7,40.6z"/>
		<path class="st1" d="M583.2,40.2c1.1,0,1.9-0.3,2.3-0.8c0.4-0.6,0.7-1.3,0.7-2.3c0.1-1,0.1-2.1,0.1-3.4V21.7c0-0.6,0-1.1,0-1.7
			c0-0.6,0.1-1.1,0.2-1.8c-0.6,0-1.3,0.1-1.9,0.1c-0.6,0-1.2,0-1.9,0.1v-2.2h1.6c1.5,0,2.6-0.1,3.1-0.4c0.6-0.3,1.1-0.7,1.5-1h1.5
			c0.1,0.6,0.1,1.3,0.2,2.1c0,0.8,0.1,1.9,0.1,3.1c0.5-0.9,1.3-1.8,2.2-2.6c0.9-0.8,1.9-1.6,3.1-2.1c1.2-0.6,2.4-0.8,3.7-0.8
			c1,0,1.9,0.3,2.6,0.8c0.7,0.5,1.1,1.4,1.1,2.5c0,0.5-0.2,1-0.6,1.6c-0.4,0.6-1.1,0.9-2,0.9c-0.8,0-1.4-0.3-1.9-0.9
			c-0.5-0.6-0.6-1.3-0.5-2.1c-1.3-0.1-2.7,0.4-4.1,1.5c-1.4,1.1-2.5,2.5-3.4,4.2l0.1,13.1c0,0.7,0,1.3-0.1,1.9
			c0,0.5-0.1,1.1-0.2,1.7c0.6,0,1.1-0.1,1.6-0.1c0.6,0,1.1-0.1,1.7-0.1v2.2h-10.9V40.2z"/>
		<path class="st1" d="M606.1,41.8v-1.6c1.1,0,1.9-0.3,2.3-0.8c0.4-0.6,0.7-1.3,0.7-2.3c0.1-1,0.1-2.1,0.1-3.4l0.1-12.1
			c0-0.6,0-1.1,0-1.7c0-0.6,0.1-1.1,0.2-1.8c-0.6,0-1.3,0.1-1.9,0.1c-0.6,0-1.2,0.1-1.9,0.1v-2.2c1.6,0,2.7-0.1,3.5-0.2
			c0.8-0.1,1.4-0.3,1.8-0.5c0.4-0.2,0.7-0.4,1-0.7h1.5c0.1,0.4,0.1,0.8,0.1,1.4c0,0.5,0.1,1.1,0.1,1.9c1.1-1,2.5-1.9,4-2.5
			c1.6-0.7,3.1-1,4.6-1c3.1,0,5.3,1,6.7,2.9c1.4,1.9,2.1,4.9,2.1,9v9.9c0,0.7,0,1.3-0.1,1.9c0,0.5-0.1,1.1-0.2,1.7
			c0.6,0,1.1-0.1,1.6-0.1c0.6,0,1.1-0.1,1.7-0.1v2.2h-10.8v-1.6c1.1,0,1.9-0.3,2.3-0.8c0.4-0.6,0.7-1.3,0.7-2.3
			c0.1-1,0.1-2.1,0.1-3.4v-7.4c0-3-0.5-5.3-1.5-6.9c-1-1.6-2.5-2.3-4.6-2.3c-1.3,0-2.5,0.4-3.8,1c-1.2,0.6-2.2,1.5-3,2.4
			c0,0.3,0.1,0.6,0.1,1c0,0.4,0,0.7,0,1.1l-0.1,13.5c0,0.7,0,1.3-0.1,1.9c0,0.5-0.1,1.1-0.2,1.7c0.6,0,1.1-0.1,1.6-0.1
			c0.6,0,1.1-0.1,1.7-0.1v2.2H606.1z"/>
		<path class="st1" d="M638.3,40.2c1.1,0,1.9-0.3,2.3-0.8c0.4-0.6,0.7-1.3,0.7-2.3c0.1-1,0.1-2.1,0.1-3.4V21.7c0-0.6,0-1.1,0.1-1.6
			c0-0.5,0.1-1.1,0.2-1.9c-0.6,0-1.3,0.1-1.9,0.1c-0.6,0-1.2,0.1-1.9,0.1v-2.2c1.6,0,2.8-0.1,3.6-0.2c0.8-0.1,1.5-0.3,1.9-0.5
			c0.5-0.2,0.8-0.4,1.1-0.7h1.5v21.4c0,0.7,0,1.3-0.1,1.9c0,0.5-0.1,1.1-0.2,1.7c0.6,0,1.1-0.1,1.6-0.1c0.6,0,1.1-0.1,1.7-0.1v2.2
			h-10.8V40.2z M643.5,9.5c-0.7,0-1.4-0.3-2-0.9c-0.6-0.6-0.8-1.3-0.8-2.2c0-0.9,0.3-1.6,0.8-2.2c0.6-0.6,1.3-1,2-1
			c0.8,0,1.5,0.3,2,1c0.6,0.6,0.8,1.3,0.8,2.2c0,0.9-0.3,1.6-0.9,2.2C644.9,9.2,644.3,9.5,643.5,9.5z"/>
		<path class="st1" d="M669.4,41.8c-0.1-0.6-0.2-1.1-0.2-1.6c0-0.5-0.1-0.9-0.2-1.4c-1.2,1.2-2.5,2.2-3.9,2.9c-1.4,0.7-2.8,1-4.4,1
			c-2.7,0-4.7-0.6-6-1.8c-1.3-1.2-2-2.7-2-4.5c0-1.6,0.5-3,1.5-4.2c1-1.2,2.3-2.2,3.9-2.9c1.6-0.8,3.4-1.3,5.3-1.7
			c1.9-0.4,3.8-0.6,5.5-0.5v-3.3c0-1.2-0.1-2.4-0.3-3.5c-0.2-1.1-0.7-2-1.4-2.7c-0.7-0.7-1.8-1.1-3.4-1.1c-1,0-2.1,0.2-3.2,0.6
			c-1.1,0.4-1.8,1.1-2.3,2.2c0.3,0.3,0.5,0.6,0.5,1c0.1,0.4,0.2,0.7,0.2,1c0,0.4-0.2,0.9-0.5,1.5c-0.4,0.5-1,0.8-1.9,0.7
			c-0.7,0-1.3-0.2-1.7-0.7c-0.4-0.5-0.6-1.1-0.6-1.9c0-1.2,0.4-2.3,1.3-3.2c0.9-1,2.2-1.7,3.8-2.3c1.6-0.6,3.4-0.8,5.4-0.8
			c3,0,5.2,0.8,6.6,2.4c1.4,1.6,2.1,4,2.1,7.4c0,2,0,4-0.1,6c0,2,0,4,0,5.9c0,0.6,0,1.1-0.1,1.7c0,0.6-0.1,1.2-0.2,1.9
			c0.6,0,1.3-0.1,1.9-0.1c0.6,0,1.3-0.1,1.9-0.1v2.2H669.4z M668.9,28.8c-1.2,0-2.5,0.2-3.8,0.5c-1.3,0.2-2.5,0.6-3.7,1.2
			c-1.1,0.5-2,1.2-2.7,2.1c-0.7,0.8-1,1.9-1,3.1c0.1,1.3,0.5,2.3,1.3,3c0.8,0.6,1.8,1,2.9,1c1.5,0,2.7-0.3,3.8-0.8
			c1.1-0.6,2.2-1.3,3.2-2.3c0-0.4-0.1-0.8-0.1-1.3c0-0.5,0-0.9,0-1.4c0-0.2,0-0.7,0-1.7C668.9,31.2,668.9,30.1,668.9,28.8z"/>
	</g>
	<g>
		<g>
			<path class="st2" d="M402.2,19.4c1.5,0,2.8,0.4,4,1.1c1.2,0.7,2.1,1.7,2.8,3s1,3,1,4.9c0,2.2-0.4,4.2-1.2,6.2
				c-0.8,1.9-1.9,3.4-3.5,4.6c-1.5,1.2-3.3,1.7-5.4,1.7c-1.8,0-3.3-0.4-4.5-1.2c-1.2-0.8-2-1.9-2.6-3.3c-0.5-1.4-0.8-2.9-0.8-4.6
				c0-2.2,0.4-4.3,1.2-6.1c0.8-1.9,2-3.3,3.5-4.4C398.3,19.9,400.1,19.4,402.2,19.4z M401.6,20.9c-1.2,0-2.2,0.4-3.1,1.2
				c-0.9,0.8-1.6,1.9-2.1,3.4c-0.5,1.4-0.7,3-0.7,4.8c0,0.9,0,1.9,0.2,3c0.1,1,0.4,2,0.7,2.9c0.4,0.9,0.8,1.6,1.4,2.2
				c0.6,0.6,1.4,0.9,2.3,0.9c1.1,0,2-0.3,2.8-0.9c0.8-0.6,1.4-1.4,1.8-2.4c0.5-1,0.8-2,1-3.2c0.2-1.1,0.4-2.2,0.4-3.2
				c0-1,0-1.9-0.2-3c-0.1-1-0.3-2-0.7-2.8c-0.4-0.9-0.8-1.6-1.5-2.1C403.4,21.2,402.6,20.9,401.6,20.9z"/>
			<path class="st2" d="M424.9,9.1c1,0,1.8,0.2,2.3,0.5c0.5,0.4,0.8,0.9,0.8,1.6c0,0.3-0.1,0.7-0.4,1.1c-0.2,0.4-0.6,0.6-1.3,0.6
				c-0.5,0-0.9-0.2-1.2-0.6c-0.3-0.4-0.4-0.9-0.4-1.5c-0.1-0.1-0.2-0.1-0.5-0.1c-0.2-0.1-0.5-0.1-0.7,0c-0.9,0.1-1.5,0.5-2.1,1.3
				c-0.5,0.8-0.9,1.9-1.1,3.2c-0.2,1.3-0.4,2.9-0.6,4.6h5.8l-0.1,1.6l-5.8,0.1c-0.1,1.4-0.2,2.9-0.2,4.5c-0.1,1.5-0.2,3.1-0.3,4.7
				c-0.2,2-0.4,4-0.5,6c-0.2,2-0.4,3.8-0.7,5.6c-0.3,1.8-0.8,3.4-1.4,4.7c-0.6,1.4-1.4,2.5-2.5,3.3c-1,0.8-2.4,1.2-4,1.2
				c-2.1,0-3.2-0.7-3.2-2.1c0-0.3,0.1-0.7,0.4-1.1c0.2-0.4,0.7-0.6,1.3-0.6c0.5,0,0.9,0.2,1.2,0.5c0.3,0.4,0.4,0.8,0.4,1.4
				c0.3,0.2,0.7,0.3,1.2,0.3c1,0,1.7-0.5,2.2-1.5c0.5-1,0.9-2.4,1.2-4.2c0.2-1.8,0.4-3.8,0.6-6.2c0.2-2.4,0.4-4.9,0.6-7.6
				c0.1-1.5,0.2-2.9,0.3-4.4c0.1-1.5,0.2-3,0.4-4.4l-3.6,0l0.2-1.8h3.6c0.3-2,0.7-3.8,1.3-5.4c0.6-1.6,1.4-2.9,2.5-3.8
				C421.6,9.6,423.1,9.2,424.9,9.1z"/>
			<path class="st2" d="M22.7,14.4c-0.1-1.7-0.5-3.3-1.2-4.8c-0.7-1.5-1.7-2.8-3.1-3.7s-3.1-1.4-5.1-1.4c-2.2,0-3.9,0.6-5,1.9
				C7,7.6,6.5,9,6.5,10.7c0,1.5,0.4,2.7,1.3,3.8c0.8,1,1.9,1.9,3.3,2.7c1.4,0.7,2.8,1.5,4.4,2.2c1.3,0.6,2.7,1.3,4,2
				c1.3,0.7,2.6,1.5,3.7,2.3c1.1,0.9,2,1.9,2.6,3.2c0.7,1.2,1,2.7,1,4.4c0,2.9-1.1,5.4-3.2,7.3c-2.2,1.9-5.2,2.8-9.2,2.8
				c-1.6,0-3.2-0.2-4.9-0.7c-1.7-0.5-3.2-1.1-4.5-2l0.3,2.3H2.3L2,29.4h2.1c0.2,3.1,1.3,5.5,3.2,7.1c2,1.6,4.4,2.4,7.2,2.4
				c1.4,0,2.7-0.2,3.8-0.7c1.2-0.5,2.1-1.3,2.8-2.3c0.7-1,1.1-2.2,1.1-3.6c0-1.6-0.4-2.9-1.3-4c-0.8-1.1-1.9-2-3.3-2.8
				c-1.3-0.8-2.8-1.5-4.3-2.2c-1.3-0.6-2.7-1.2-4-1.9C8,20.8,6.8,20,5.7,19.2c-1.1-0.9-1.9-1.9-2.6-3.1c-0.6-1.2-1-2.7-1-4.4
				c0-0.9,0.2-1.9,0.5-3c0.3-1.1,0.9-2.1,1.6-3c0.8-1,1.9-1.8,3.3-2.4c1.4-0.6,3.2-1,5.4-1c1.3,0,2.8,0.2,4.5,0.6
				C19.1,3.3,20.7,4,22.1,5l-0.2-2.3h2.7v11.7H22.7z"/>
			<path class="st2" d="M42.2,41.2c-1.9,0-3.5-0.4-4.8-1.1c-1.3-0.7-2.2-1.9-2.9-3.6c-0.6-1.7-1-4-1-6.9v-9.4c0-0.6,0-1.1,0-1.7
				c0-0.6,0.1-1.1,0.2-1.8c-0.6,0-1.2,0.1-1.9,0.1c-0.6,0-1.2,0-1.8,0.1v-2.2h1.6c1.5,0,2.6-0.1,3.3-0.4c0.7-0.3,1.3-0.7,1.6-1h1.5
				v16.2c0,3,0.4,5.3,1.3,6.8c0.9,1.5,2.4,2.2,4.5,2.2c1.3,0,2.6-0.4,3.8-1.2c1.2-0.8,2.2-1.8,3-2.9V20.7c0-0.8,0-1.6,0.1-2.2
				c0-0.6,0.1-1.3,0.2-1.9c-0.6,0-1.3,0.1-1.9,0.1c-0.6,0-1.3,0-1.9,0.1v-2.2h1.6c1.5,0,2.6-0.1,3.3-0.4c0.7-0.3,1.3-0.7,1.6-1h1.5
				l-0.1,20.1c0,0.6,0,1.4-0.1,2.4c0,1-0.1,1.9-0.2,2.6c0.6,0,1.3-0.1,1.9-0.1c0.6,0,1.3-0.1,1.9-0.1v2.2h-7.6
				c-0.1-0.6-0.2-1.2-0.3-1.7c0-0.5-0.1-1-0.1-1.5c-1.1,1.1-2.4,2.1-4,2.9C45.4,40.8,43.8,41.2,42.2,41.2z"/>
			<path class="st2" d="M62.2,53.9v-1.6c1.1,0,1.9-0.3,2.3-0.8c0.4-0.5,0.7-1.3,0.7-2.3c0.1-1,0.1-2.1,0.1-3.3l0.1-25.6
				c0-0.6,0-1.1,0-1.7c0-0.6,0.1-1.1,0.2-1.8c-0.6,0-1.3,0.1-1.9,0.1c-0.6,0-1.2,0.1-1.9,0.1v-2.2c1.6,0,2.7-0.1,3.5-0.2
				c0.8-0.1,1.4-0.3,1.8-0.5c0.4-0.2,0.7-0.4,1-0.7h1.6c0,0.4,0.1,0.8,0.1,1.3c0,0.5,0.1,1,0.1,1.6c1.1-1,2.3-1.7,3.8-2.3
				c1.5-0.6,3-0.9,4.5-0.9c2.1,0,4,0.5,5.7,1.6c1.8,1.1,3.2,2.6,4.3,4.6c1.1,1.9,1.6,4.3,1.6,7c0,3-0.6,5.6-1.9,7.9
				c-1.2,2.3-2.9,4-4.9,5.3c-2.1,1.2-4.3,1.9-6.7,1.9c-2.4,0-4.6-0.6-6.4-1.8v8.8c0,0.7,0,1.3-0.1,1.9c0,0.6-0.1,1.1-0.2,1.8
				c0.6,0,1.1-0.1,1.6-0.1c0.6,0,1.1,0,1.7-0.1v2.2H62.2z M76.2,39.1c1.7,0,3.1-0.5,4.4-1.5c1.2-1.1,2.2-2.5,2.8-4.3
				c0.7-1.8,1-3.9,1-6.3c0-1.9-0.3-3.7-0.8-5.5c-0.5-1.8-1.4-3.2-2.6-4.3c-1.2-1.1-2.7-1.6-4.7-1.6c-1.2,0-2.4,0.3-3.5,0.9
				c-1.1,0.6-2,1.3-2.8,2.1c0,0.1,0,0.4,0,0.6c0,0.2,0.1,0.7,0.1,1.4c0,0.6,0,1.6,0,2.9c0,1.3,0,3-0.1,5.2c0,2.2,0,5,0,8.3
				C71.8,38.4,73.9,39.1,76.2,39.1z"/>
			<path class="st2" d="M94.4,38.7c1.1,0,1.9-0.3,2.3-0.8c0.4-0.6,0.7-1.3,0.7-2.3c0.1-1,0.1-2.1,0.1-3.4V20.2c0-0.6,0-1.1,0-1.7
				c0-0.6,0.1-1.1,0.2-1.8c-0.6,0-1.3,0.1-1.9,0.1c-0.6,0-1.2,0-1.9,0.1v-2.2h1.6c1.5,0,2.6-0.1,3.1-0.4c0.6-0.3,1.1-0.7,1.5-1h1.5
				c0.1,0.6,0.1,1.3,0.2,2.1c0,0.8,0.1,1.9,0.1,3.1c0.5-0.9,1.3-1.8,2.2-2.6c0.9-0.8,1.9-1.6,3.1-2.1c1.2-0.6,2.4-0.8,3.7-0.8
				c1,0,1.9,0.3,2.6,0.8c0.7,0.5,1.1,1.4,1.1,2.5c0,0.5-0.2,1-0.6,1.6c-0.4,0.6-1.1,0.9-2,0.9c-0.8,0-1.4-0.3-1.9-0.9
				c-0.5-0.6-0.6-1.3-0.5-2.1c-1.3-0.1-2.7,0.4-4.1,1.5c-1.4,1.1-2.5,2.5-3.4,4.2l0.1,13.1c0,0.7,0,1.3-0.1,1.9
				c0,0.5-0.1,1.1-0.2,1.7c0.6,0,1.1-0.1,1.6-0.1c0.6,0,1.1-0.1,1.7-0.1v2.2H94.4V38.7z"/>
			<path class="st2" d="M129.8,41.2c-2.4,0-4.7-0.6-6.6-1.7c-1.9-1.2-3.5-2.8-4.6-4.9c-1.1-2.1-1.7-4.6-1.7-7.5c0-2.5,0.5-4.8,1.6-7
				c1.1-2.2,2.7-3.9,4.7-5.2c2-1.3,4.4-2,7-2c2,0,3.8,0.4,5.4,1.3c1.6,0.8,2.9,2.1,3.9,3.9c1,1.7,1.5,3.9,1.5,6.6L122.3,25
				c0,4.1,0.6,7.3,2,9.8c1.4,2.4,3.6,3.7,6.7,3.7c1.1,0,2.2-0.2,3.3-0.6c1.2-0.4,2.2-0.9,3.2-1.6c1-0.7,1.8-1.4,2.4-2.2l1.3,1.1
				c-1,1.5-2.1,2.7-3.4,3.6c-1.3,0.9-2.7,1.5-4.1,1.9C132.3,41,131,41.2,129.8,41.2z M122.5,22.8H136c0-1.3-0.2-2.5-0.6-3.7
				c-0.4-1.2-1-2.2-1.8-2.9c-0.8-0.8-2-1.2-3.3-1.2c-2.1,0-3.8,0.6-5.1,1.9C123.8,18.1,122.9,20,122.5,22.8z"/>
			<path class="st2" d="M145.7,40.3v-1.6c1.1,0,1.9-0.3,2.3-0.8c0.4-0.6,0.7-1.3,0.7-2.3c0.1-1,0.1-2.1,0.1-3.4V20.2
				c0-0.6,0-1.1,0-1.7c0-0.6,0.1-1.1,0.2-1.8c-0.6,0-1.3,0.1-1.9,0.1c-0.6,0-1.2,0.1-1.9,0.1v-2.2c1.6,0,2.7-0.1,3.5-0.2
				c0.8-0.1,1.4-0.3,1.8-0.5c0.4-0.2,0.7-0.4,1-0.7h1.5c0.1,0.4,0.1,0.8,0.1,1.2c0,0.5,0.1,1,0.1,1.6c1.1-0.9,2.3-1.7,3.7-2.2
				c1.4-0.6,2.8-0.9,4.1-0.9c1.8,0,3.3,0.3,4.5,1c1.2,0.6,2.1,1.5,2.8,2.6c1.2-1,2.6-1.8,4.1-2.5c1.6-0.7,3.1-1.1,4.7-1.1
				c3.1,0,5.3,0.9,6.8,2.8c1.5,1.8,2.1,4.9,2.1,9.1l-0.1,9.9c0,0.7,0,1.3-0.1,1.9c0,0.5-0.1,1.1-0.2,1.7c0.6,0,1.1-0.1,1.6-0.1
				c0.6,0,1.1-0.1,1.7-0.1v2.2h-10.8v-1.6c1.1,0,1.9-0.3,2.3-0.8c0.4-0.6,0.7-1.3,0.7-2.3c0.1-1,0.1-2.1,0.1-3.4v-7.4
				c0-3-0.5-5.3-1.5-6.8c-1-1.5-2.5-2.3-4.6-2.2c-1.1,0-2.2,0.2-3.3,0.7c-1.1,0.5-2.1,1.1-2.9,1.9c0.2,0.6,0.3,1.2,0.4,1.9
				c0.1,0.6,0.2,1.3,0.2,2c0,2.1-0.1,4.1-0.1,6.2s0,4.2-0.1,6.3c0,0.7,0,1.3-0.1,1.9c0,0.5-0.1,1.1-0.2,1.7c0.6,0,1.1-0.1,1.6-0.1
				c0.6,0,1.1-0.1,1.7-0.1v2.2H162v-1.6c1.1,0,1.8-0.3,2.2-0.8c0.4-0.6,0.7-1.3,0.7-2.3c0.1-1,0.2-2.1,0.2-3.4l0.1-7.4
				c0-3-0.4-5.3-1.3-6.9c-0.9-1.6-2.4-2.3-4.5-2.3c-1.1,0-2.2,0.2-3.2,0.7c-1.1,0.5-2,1.1-2.7,1.8c0,0.4,0,0.9,0,1.4
				c0,0.5,0.1,1,0.1,1.5v13.6c0,0.7,0,1.3-0.1,1.9c0,0.5-0.1,1.1-0.2,1.7c0.6,0,1.1-0.1,1.6-0.1c0.6,0,1.1-0.1,1.7-0.1v2.2H145.7z"
				/>
			<path class="st2" d="M206,41.2c-2.4,0-4.7-0.6-6.6-1.7c-1.9-1.2-3.5-2.8-4.6-4.9c-1.1-2.1-1.7-4.6-1.7-7.5c0-2.5,0.5-4.8,1.6-7
				c1.1-2.2,2.7-3.9,4.7-5.2c2-1.3,4.4-2,7-2c2,0,3.8,0.4,5.4,1.3s2.9,2.1,3.9,3.9c1,1.7,1.5,3.9,1.5,6.6L198.5,25
				c0,4.1,0.6,7.3,2,9.8c1.4,2.4,3.6,3.7,6.7,3.7c1.1,0,2.2-0.2,3.3-0.6c1.2-0.4,2.2-0.9,3.2-1.6c1-0.7,1.8-1.4,2.4-2.2l1.3,1.1
				c-1,1.5-2.1,2.7-3.4,3.6c-1.3,0.9-2.7,1.5-4.1,1.9C208.5,41,207.2,41.2,206,41.2z M198.7,22.8h13.5c0-1.3-0.2-2.5-0.6-3.7
				c-0.4-1.2-1-2.2-1.8-2.9c-0.8-0.8-2-1.2-3.3-1.2c-2.1,0-3.8,0.6-5.1,1.9C200,18.1,199.1,20,198.7,22.8z"/>
			<path class="st2" d="M265.8,15c-0.4-3.3-1.5-5.9-3.5-7.7c-1.9-1.8-4.5-2.8-7.5-2.8c-2.5,0-4.8,0.7-6.8,2.1
				c-2.1,1.4-3.7,3.3-4.9,5.9c-1.2,2.5-1.8,5.6-1.8,9c0,3.3,0.6,6.3,1.9,8.8c1.3,2.5,3,4.5,5.1,5.9c2.2,1.4,4.5,2.1,7.2,2.1
				c2.3,0,4.6-0.5,6.8-1.5c2.2-1.1,4.1-2.6,5.5-4.6l1.4,1.1c-1.5,2.1-3.2,3.7-4.9,4.8c-1.8,1.1-3.5,1.9-5.3,2.3
				c-1.7,0.4-3.3,0.6-4.8,0.6c-2.7,0-5.1-0.5-7.3-1.4c-2.2-1-4.1-2.3-5.7-4c-1.6-1.7-2.8-3.7-3.7-6c-0.8-2.3-1.3-4.8-1.3-7.4
				c0-2.5,0.4-5,1.1-7.3c0.8-2.4,1.9-4.5,3.4-6.4c1.5-1.9,3.4-3.4,5.7-4.6c2.3-1.1,5-1.7,8.1-1.7c3.9,0,7.5,1.1,10.7,3.2l-0.3-2.9
				h2.9V15H265.8z"/>
			<path class="st2" d="M286.1,41.2c-2.5,0-4.7-0.6-6.7-1.7c-2-1.2-3.6-2.8-4.8-4.8c-1.2-2.1-1.8-4.4-1.8-7c0-2.8,0.6-5.3,1.8-7.5
				c1.2-2.2,2.8-4,4.8-5.3c2-1.3,4.3-2,6.8-2c2.5,0,4.7,0.6,6.7,1.8c2,1.2,3.6,2.8,4.8,4.8c1.2,2,1.8,4.3,1.8,6.9
				c0,2.7-0.6,5.2-1.8,7.5c-1.2,2.2-2.8,4-4.8,5.3C290.9,40.5,288.6,41.2,286.1,41.2z M286.5,39.1c1.9,0,3.4-0.5,4.5-1.6
				c1.1-1.1,1.9-2.4,2.3-4.1c0.5-1.7,0.7-3.5,0.7-5.4c0-1.6-0.2-3.1-0.5-4.7c-0.3-1.6-0.7-3-1.4-4.2c-0.6-1.3-1.5-2.3-2.5-3
				c-1-0.7-2.2-1.1-3.6-1.1c-1.8,0-3.3,0.5-4.5,1.6c-1.2,1.1-2,2.4-2.6,4.1c-0.5,1.7-0.8,3.5-0.8,5.5c0,2.2,0.3,4.3,0.9,6.3
				c0.6,1.9,1.5,3.5,2.8,4.8C283.1,38.4,284.6,39.1,286.5,39.1z"/>
			<path class="st2" d="M315.2,41.2c-1.9,0-3.5-0.4-4.8-1.1c-1.3-0.7-2.2-1.9-2.9-3.6c-0.6-1.7-1-4-1-6.9v-9.4c0-0.6,0-1.1,0-1.7
				c0-0.6,0.1-1.1,0.2-1.8c-0.6,0-1.2,0.1-1.9,0.1c-0.6,0-1.2,0-1.8,0.1v-2.2h1.6c1.5,0,2.6-0.1,3.3-0.4c0.7-0.3,1.3-0.7,1.6-1h1.5
				v16.2c0,3,0.4,5.3,1.3,6.8c0.9,1.5,2.4,2.2,4.5,2.2c1.3,0,2.6-0.4,3.8-1.2c1.2-0.8,2.2-1.8,3-2.9V20.7c0-0.8,0-1.6,0.1-2.2
				c0-0.6,0.1-1.3,0.2-1.9c-0.6,0-1.3,0.1-1.9,0.1c-0.6,0-1.3,0-1.9,0.1v-2.2h1.6c1.5,0,2.6-0.1,3.3-0.4c0.7-0.3,1.3-0.7,1.6-1h1.5
				l-0.1,20.1c0,0.6,0,1.4-0.1,2.4c0,1-0.1,1.9-0.2,2.6c0.6,0,1.3-0.1,1.9-0.1c0.6,0,1.3-0.1,1.9-0.1v2.2h-7.6
				c-0.1-0.6-0.2-1.2-0.3-1.7c0-0.5-0.1-1-0.1-1.5c-1.1,1.1-2.4,2.1-4,2.9C318.3,40.8,316.7,41.2,315.2,41.2z"/>
			<path class="st2" d="M335.6,38.7c1.1,0,1.9-0.3,2.3-0.8c0.4-0.6,0.7-1.3,0.7-2.3c0.1-1,0.1-2.1,0.1-3.4V20.2c0-0.6,0-1.1,0-1.7
				c0-0.6,0.1-1.1,0.2-1.8c-0.6,0-1.3,0.1-1.9,0.1c-0.6,0-1.2,0-1.9,0.1v-2.2h1.6c1.5,0,2.6-0.1,3.1-0.4c0.6-0.3,1.1-0.7,1.5-1h1.5
				c0.1,0.6,0.1,1.3,0.2,2.1c0,0.8,0.1,1.9,0.1,3.1c0.5-0.9,1.3-1.8,2.2-2.6c0.9-0.8,1.9-1.6,3.1-2.1c1.2-0.6,2.4-0.8,3.7-0.8
				c1,0,1.9,0.3,2.6,0.8c0.7,0.5,1.1,1.4,1.1,2.5c0,0.5-0.2,1-0.6,1.6c-0.4,0.6-1.1,0.9-2,0.9c-0.8,0-1.4-0.3-1.9-0.9
				c-0.5-0.6-0.6-1.3-0.5-2.1c-1.3-0.1-2.7,0.4-4.1,1.5c-1.4,1.1-2.5,2.5-3.4,4.2l0.1,13.1c0,0.7,0,1.3-0.1,1.9
				c0,0.5-0.1,1.1-0.2,1.7c0.6,0,1.1-0.1,1.6-0.1c0.6,0,1.1-0.1,1.7-0.1v2.2h-10.9V38.7z"/>
			<path class="st2" d="M368.9,41.2c-0.8,0-1.6-0.1-2.5-0.4c-0.8-0.2-1.6-0.7-2.4-1.3c-0.7-0.7-1.3-1.6-1.7-2.9
				c-0.4-1.3-0.6-3-0.6-5.1l0.1-15.4l-4.1,0.1v-2.3c0.9,0,1.9-0.4,2.8-1c1-0.7,1.8-1.6,2.5-2.7c0.8-1.1,1.3-2.4,1.6-3.7h1.8v7.4h8.9
				v2.1l-8.9,0.1l-0.1,14.8c0,2.4,0.3,4.2,0.9,5.5c0.6,1.3,1.7,1.9,3.1,1.9c1,0,1.9-0.3,2.8-0.8c0.9-0.6,1.7-1.3,2.3-2.3l1.4,1.2
				c-1,1.6-2.1,2.7-3.1,3.4c-1,0.7-1.9,1.1-2.8,1.3C370.3,41.1,369.5,41.2,368.9,41.2z"/>
			<path class="st2" d="M472,15c-0.4-3.3-1.5-5.9-3.5-7.7c-1.9-1.8-4.5-2.8-7.5-2.8c-2.5,0-4.8,0.7-6.8,2.1
				c-2.1,1.4-3.7,3.3-4.9,5.9c-1.2,2.5-1.8,5.6-1.8,9c0,3.3,0.6,6.3,1.9,8.8c1.3,2.5,3,4.5,5.1,5.9c2.2,1.4,4.5,2.1,7.2,2.1
				c2.3,0,4.6-0.5,6.8-1.5c2.2-1.1,4-2.6,5.5-4.6l1.4,1.1c-1.5,2.1-3.2,3.7-4.9,4.8c-1.8,1.1-3.5,1.9-5.3,2.3
				c-1.7,0.4-3.3,0.6-4.8,0.6c-2.7,0-5.1-0.5-7.3-1.4c-2.2-1-4.1-2.3-5.7-4c-1.6-1.7-2.8-3.7-3.7-6c-0.8-2.3-1.3-4.8-1.3-7.4
				c0-2.5,0.4-5,1.1-7.3c0.8-2.4,1.9-4.5,3.4-6.4c1.5-1.9,3.4-3.4,5.7-4.6c2.3-1.1,5-1.7,8.1-1.7c3.9,0,7.5,1.1,10.7,3.2l-0.3-2.9
				h2.9V15H472z"/>
			<path class="st2" d="M495.3,40.3c-0.1-0.6-0.2-1.1-0.2-1.6c0-0.5-0.1-0.9-0.2-1.4c-1.2,1.2-2.5,2.2-3.9,2.9c-1.4,0.7-2.8,1-4.4,1
				c-2.7,0-4.7-0.6-6-1.8c-1.3-1.2-2-2.7-2-4.5c0-1.6,0.5-3,1.5-4.2c1-1.2,2.3-2.2,3.9-2.9c1.6-0.8,3.4-1.3,5.3-1.7
				c1.9-0.4,3.7-0.6,5.5-0.5v-3.3c0-1.2-0.1-2.4-0.3-3.5c-0.2-1.1-0.7-2-1.4-2.7c-0.7-0.7-1.8-1.1-3.4-1.1c-1,0-2.1,0.2-3.2,0.6
				c-1.1,0.4-1.8,1.1-2.3,2.2c0.3,0.3,0.5,0.6,0.5,1c0.1,0.4,0.2,0.7,0.2,1c0,0.4-0.2,0.9-0.5,1.5c-0.4,0.5-1,0.8-1.9,0.7
				c-0.7,0-1.3-0.2-1.7-0.7c-0.4-0.5-0.6-1.1-0.6-1.9c0-1.2,0.4-2.3,1.3-3.2c0.9-1,2.2-1.7,3.8-2.3c1.6-0.6,3.4-0.8,5.4-0.8
				c3,0,5.2,0.8,6.6,2.4c1.4,1.6,2.1,4,2.1,7.4c0,2,0,4-0.1,6c0,2,0,4,0,5.9c0,0.6,0,1.1-0.1,1.7c0,0.6-0.1,1.2-0.2,1.9
				c0.6,0,1.3-0.1,1.9-0.1c0.6,0,1.3-0.1,1.9-0.1v2.2H495.3z M494.9,27.3c-1.2,0-2.5,0.2-3.8,0.5c-1.3,0.2-2.5,0.6-3.7,1.2
				c-1.1,0.5-2,1.2-2.7,2.1c-0.7,0.8-1,1.9-1,3.1c0.1,1.3,0.5,2.3,1.3,3c0.8,0.6,1.8,1,2.9,1c1.4,0,2.7-0.3,3.8-0.8
				c1.1-0.6,2.2-1.3,3.2-2.3c0-0.4-0.1-0.8-0.1-1.3c0-0.5,0-0.9,0-1.4c0-0.2,0-0.7,0-1.7C494.8,29.7,494.9,28.6,494.9,27.3z"/>
			<path class="st2" d="M506,38.7c1.1,0,1.9-0.3,2.3-0.8c0.4-0.6,0.7-1.3,0.7-2.3c0.1-1,0.1-2.1,0.1-3.4V7.2c0-0.6,0-1.1,0-1.6
				c0-0.5,0.1-1.1,0.2-1.9c-0.6,0-1.3,0.1-1.9,0.1c-0.6,0-1.2,0.1-1.9,0.1V1.7c1.6,0,2.8-0.1,3.6-0.2c0.9-0.1,1.5-0.3,2-0.5
				c0.5-0.2,0.8-0.4,1.1-0.7h1.5l0.1,34.4c0,0.7,0,1.3-0.1,1.9c0,0.5-0.1,1.1-0.2,1.7c0.6,0,1.1-0.1,1.6-0.1c0.6,0,1.1-0.1,1.7-0.1
				v2.2H506V38.7z"/>
			<path class="st2" d="M521,38.7c1.1,0,1.9-0.3,2.3-0.8c0.4-0.6,0.7-1.3,0.7-2.3c0.1-1,0.1-2.1,0.1-3.4V20.2c0-0.6,0-1.1,0.1-1.6
				c0-0.5,0.1-1.1,0.2-1.9c-0.6,0-1.3,0.1-1.9,0.1c-0.6,0-1.2,0.1-1.9,0.1v-2.2c1.6,0,2.8-0.1,3.6-0.2c0.8-0.1,1.5-0.3,1.9-0.5
				c0.5-0.2,0.8-0.4,1.1-0.7h1.5v21.4c0,0.7,0,1.3-0.1,1.9c0,0.5-0.1,1.1-0.2,1.7c0.6,0,1.1-0.1,1.6-0.1c0.6,0,1.1-0.1,1.7-0.1v2.2
				H521V38.7z M526.2,8c-0.7,0-1.4-0.3-2-0.9s-0.8-1.3-0.8-2.2c0-0.9,0.3-1.6,0.8-2.2c0.6-0.6,1.3-1,2-1c0.8,0,1.5,0.3,2,1
				c0.6,0.6,0.8,1.3,0.8,2.2c0,0.9-0.3,1.6-0.9,2.2C527.6,7.7,527,8,526.2,8z"/>
			<path class="st2" d="M539.3,12.7c0-3.9,0.7-7,2.1-9.3c1.5-2.3,3.9-3.4,7.4-3.4c0.8,0,1.6,0.1,2.4,0.4c0.9,0.2,1.6,0.7,2.3,1.3
				c0.6,0.6,1,1.3,1,2.2c0,0.7-0.2,1.2-0.6,1.7c-0.4,0.5-0.9,0.7-1.6,0.7c-0.8,0-1.5-0.2-1.8-0.7c-0.3-0.6-0.5-1-0.5-1.4
				c0-0.2,0-0.4,0.1-0.6c0-0.2,0.1-0.4,0.2-0.7c-0.2-0.3-0.6-0.5-1.1-0.7c-0.4-0.1-0.8-0.2-1.2-0.2c-1.1,0-1.9,0.3-2.5,1
				c-0.6,0.6-1,1.4-1.3,2.4c-0.2,1-0.4,1.9-0.4,3v5.6h7.2v2.1l-7.2,0.2l0.1,18.7c0,0.7,0,1.3-0.1,1.9c0,0.5-0.1,1.1-0.2,1.7
				c0.6,0,1.1-0.1,1.6-0.1c0.6,0,1.1-0.1,1.7-0.1v2.2h-10.8v-1.6c1.1,0,1.9-0.3,2.3-0.8c0.4-0.6,0.7-1.3,0.7-2.3
				c0.1-1,0.1-2.1,0.1-3.4l-0.1-16.2l-4.4,0.1v-2.4h4.4V12.7z"/>
			<path class="st2" d="M566.8,41.2c-2.5,0-4.7-0.6-6.7-1.7c-2-1.2-3.6-2.8-4.8-4.8c-1.2-2.1-1.8-4.4-1.8-7c0-2.8,0.6-5.3,1.8-7.5
				c1.2-2.2,2.8-4,4.8-5.3c2-1.3,4.3-2,6.8-2c2.5,0,4.7,0.6,6.7,1.8c2,1.2,3.6,2.8,4.8,4.8c1.2,2,1.8,4.3,1.8,6.9
				c0,2.7-0.6,5.2-1.8,7.5c-1.2,2.2-2.8,4-4.8,5.3C571.6,40.5,569.3,41.2,566.8,41.2z M567.2,39.1c1.9,0,3.4-0.5,4.5-1.6
				s1.9-2.4,2.3-4.1c0.5-1.7,0.7-3.5,0.7-5.4c0-1.6-0.2-3.1-0.5-4.7c-0.3-1.6-0.7-3-1.4-4.2c-0.6-1.3-1.5-2.3-2.5-3
				c-1-0.7-2.2-1.1-3.6-1.1c-1.8,0-3.3,0.5-4.5,1.6c-1.2,1.1-2,2.4-2.6,4.1c-0.5,1.7-0.8,3.5-0.8,5.5c0,2.2,0.3,4.3,0.9,6.3
				c0.6,1.9,1.5,3.5,2.8,4.8C563.8,38.4,565.3,39.1,567.2,39.1z"/>
			<path class="st2" d="M584.7,38.7c1.1,0,1.9-0.3,2.3-0.8c0.4-0.6,0.7-1.3,0.7-2.3c0.1-1,0.1-2.1,0.1-3.4V20.2c0-0.6,0-1.1,0-1.7
				c0-0.6,0.1-1.1,0.2-1.8c-0.6,0-1.3,0.1-1.9,0.1c-0.6,0-1.2,0-1.9,0.1v-2.2h1.6c1.5,0,2.6-0.1,3.1-0.4c0.6-0.3,1.1-0.7,1.5-1h1.5
				c0.1,0.6,0.1,1.3,0.2,2.1c0,0.8,0.1,1.9,0.1,3.1c0.5-0.9,1.3-1.8,2.2-2.6c0.9-0.8,1.9-1.6,3.1-2.1c1.2-0.6,2.4-0.8,3.7-0.8
				c1,0,1.9,0.3,2.6,0.8c0.7,0.5,1.1,1.4,1.1,2.5c0,0.5-0.2,1-0.6,1.6c-0.4,0.6-1.1,0.9-2,0.9c-0.8,0-1.4-0.3-1.9-0.9
				c-0.5-0.6-0.6-1.3-0.5-2.1c-1.3-0.1-2.7,0.4-4.1,1.5c-1.4,1.1-2.5,2.5-3.4,4.2l0.1,13.1c0,0.7,0,1.3-0.1,1.9
				c0,0.5-0.1,1.1-0.2,1.7c0.6,0,1.1-0.1,1.6-0.1c0.6,0,1.1-0.1,1.7-0.1v2.2h-10.9V38.7z"/>
			<path class="st2" d="M607.6,40.3v-1.6c1.1,0,1.9-0.3,2.3-0.8c0.4-0.6,0.7-1.3,0.7-2.3c0.1-1,0.1-2.1,0.1-3.4l0.1-12.1
				c0-0.6,0-1.1,0-1.7c0-0.6,0.1-1.1,0.2-1.8c-0.6,0-1.3,0.1-1.9,0.1c-0.6,0-1.2,0.1-1.9,0.1v-2.2c1.6,0,2.7-0.1,3.5-0.2
				c0.8-0.1,1.4-0.3,1.8-0.5c0.4-0.2,0.7-0.4,1-0.7h1.5c0.1,0.4,0.1,0.8,0.1,1.4c0,0.5,0.1,1.1,0.1,1.9c1.1-1,2.5-1.9,4-2.5
				c1.6-0.7,3.1-1,4.6-1c3.1,0,5.3,1,6.7,2.9c1.4,1.9,2.1,4.9,2.1,9v9.9c0,0.7,0,1.3-0.1,1.9c0,0.5-0.1,1.1-0.2,1.7
				c0.6,0,1.1-0.1,1.6-0.1c0.6,0,1.1-0.1,1.7-0.1v2.2h-10.8v-1.6c1.1,0,1.9-0.3,2.3-0.8c0.4-0.6,0.7-1.3,0.7-2.3
				c0.1-1,0.1-2.1,0.1-3.4v-7.4c0-3-0.5-5.3-1.5-6.9c-1-1.6-2.5-2.3-4.6-2.3c-1.3,0-2.5,0.4-3.8,1c-1.2,0.6-2.2,1.5-3,2.4
				c0,0.3,0.1,0.6,0.1,1c0,0.4,0,0.7,0,1.1l-0.1,13.5c0,0.7,0,1.3-0.1,1.9c0,0.5-0.1,1.1-0.2,1.7c0.6,0,1.1-0.1,1.6-0.1
				c0.6,0,1.1-0.1,1.7-0.1v2.2H607.6z"/>
			<path class="st2" d="M639.8,38.7c1.1,0,1.9-0.3,2.3-0.8c0.4-0.6,0.7-1.3,0.7-2.3c0.1-1,0.1-2.1,0.1-3.4V20.2c0-0.6,0-1.1,0.1-1.6
				c0-0.5,0.1-1.1,0.2-1.9c-0.6,0-1.3,0.1-1.9,0.1c-0.6,0-1.2,0.1-1.9,0.1v-2.2c1.6,0,2.8-0.1,3.6-0.2c0.8-0.1,1.5-0.3,1.9-0.5
				c0.5-0.2,0.8-0.4,1.1-0.7h1.5v21.4c0,0.7,0,1.3-0.1,1.9c0,0.5-0.1,1.1-0.2,1.7c0.6,0,1.1-0.1,1.6-0.1c0.6,0,1.1-0.1,1.7-0.1v2.2
				h-10.8V38.7z M645,8c-0.7,0-1.4-0.3-2-0.9c-0.6-0.6-0.8-1.3-0.8-2.2c0-0.9,0.3-1.6,0.8-2.2c0.6-0.6,1.3-1,2-1c0.8,0,1.5,0.3,2,1
				c0.6,0.6,0.8,1.3,0.8,2.2c0,0.9-0.3,1.6-0.9,2.2C646.4,7.7,645.8,8,645,8z"/>
			<path class="st2" d="M670.9,40.3c-0.1-0.6-0.2-1.1-0.2-1.6c0-0.5-0.1-0.9-0.2-1.4c-1.2,1.2-2.5,2.2-3.9,2.9c-1.4,0.7-2.8,1-4.4,1
				c-2.7,0-4.7-0.6-6-1.8c-1.3-1.2-2-2.7-2-4.5c0-1.6,0.5-3,1.5-4.2c1-1.2,2.3-2.2,3.9-2.9c1.6-0.8,3.4-1.3,5.3-1.7
				c1.9-0.4,3.8-0.6,5.5-0.5v-3.3c0-1.2-0.1-2.4-0.3-3.5c-0.2-1.1-0.7-2-1.4-2.7c-0.7-0.7-1.8-1.1-3.4-1.1c-1,0-2.1,0.2-3.2,0.6
				c-1.1,0.4-1.8,1.1-2.3,2.2c0.3,0.3,0.5,0.6,0.5,1c0.1,0.4,0.2,0.7,0.2,1c0,0.4-0.2,0.9-0.5,1.5c-0.4,0.5-1,0.8-1.9,0.7
				c-0.7,0-1.3-0.2-1.7-0.7c-0.4-0.5-0.6-1.1-0.6-1.9c0-1.2,0.4-2.3,1.3-3.2c0.9-1,2.2-1.7,3.8-2.3c1.6-0.6,3.4-0.8,5.4-0.8
				c3,0,5.2,0.8,6.6,2.4c1.4,1.6,2.1,4,2.1,7.4c0,2,0,4-0.1,6c0,2,0,4,0,5.9c0,0.6,0,1.1-0.1,1.7c0,0.6-0.1,1.2-0.2,1.9
				c0.6,0,1.3-0.1,1.9-0.1c0.6,0,1.3-0.1,1.9-0.1v2.2H670.9z M670.4,27.3c-1.2,0-2.5,0.2-3.8,0.5c-1.3,0.2-2.5,0.6-3.7,1.2
				c-1.1,0.5-2,1.2-2.7,2.1c-0.7,0.8-1,1.9-1,3.1c0.1,1.3,0.5,2.3,1.3,3c0.8,0.6,1.8,1,2.9,1c1.5,0,2.7-0.3,3.8-0.8
				c1.1-0.6,2.2-1.3,3.2-2.3c0-0.4-0.1-0.8-0.1-1.3c0-0.5,0-0.9,0-1.4c0-0.2,0-0.7,0-1.7C670.4,29.7,670.4,28.6,670.4,27.3z"/>
		</g>
	</g>
</g>
</svg>
