<?xml version="1.0" standalone="no"?>
<!DOCTYPE svg PUBLIC "-//W3C//DTD SVG 20010904//EN"
 "http://www.w3.org/TR/2001/REC-SVG-20010904/DTD/svg10.dtd">
<svg version="1.0" xmlns="http://www.w3.org/2000/svg"
 width="353.000000pt" height="56.000000pt" viewBox="0 0 353.000000 56.000000"
 preserveAspectRatio="xMidYMid meet">

<g transform="translate(0.000000,56.000000) scale(0.100000,-0.100000)"
fill="#000000" stroke="none">
<path d="M637 473 c-15 -14 -5 -33 24 -49 23 -11 30 -21 26 -35 -3 -10 -1 -17
4 -13 19 11 8 40 -22 58 -18 11 -28 23 -25 32 6 15 3 18 -7 7z"/>
<path d="M686 465 c4 -8 8 -15 10 -15 2 0 4 7 4 15 0 8 -4 15 -10 15 -5 0 -7
-7 -4 -15z"/>
<path d="M740 428 c5 -50 6 -53 35 -55 28 -2 28 -1 5 5 -21 7 -25 15 -28 55
-2 26 -6 47 -10 47 -4 0 -5 -24 -2 -52z"/>
<path d="M868 425 c-2 -37 1 -55 9 -55 6 0 9 8 6 19 -3 13 1 21 14 24 17 5 17
5 -1 6 -14 1 -17 7 -14 31 3 17 1 30 -3 30 -4 0 -9 -25 -11 -55z"/>
<path d="M918 468 c7 -9 9 -24 6 -34 -5 -15 -4 -16 5 -8 16 15 11 46 -9 52
-12 4 -13 3 -2 -10z"/>
<path d="M975 425 l0 -55 38 0 c20 0 37 4 37 8 0 5 -13 7 -30 4 -30 -4 -30 -4
-30 47 0 28 -3 51 -7 51 -5 0 -8 -25 -8 -55z"/>
<path d="M1085 425 c0 -34 4 -55 11 -55 7 0 9 10 6 25 -2 14 0 25 5 25 5 0 15
-11 21 -25 6 -14 17 -25 23 -25 8 0 6 7 -4 18 -19 21 -22 42 -6 42 16 0 6 43
-11 47 -12 4 -13 3 -1 -5 17 -12 7 -42 -14 -42 -9 0 -15 9 -15 25 0 14 -3 25
-7 25 -5 0 -8 -25 -8 -55z"/>
<path d="M1191 425 c-1 -33 2 -55 8 -55 7 0 11 23 11 55 0 30 -4 55 -8 55 -5
0 -10 -25 -11 -55z"/>
<path d="M1260 465 c-24 -29 -8 -95 22 -95 5 0 2 7 -6 16 -19 18 -21 65 -4 82
7 7 9 12 6 12 -3 0 -11 -7 -18 -15z"/>
<path d="M1324 464 c9 -8 16 -26 16 -39 0 -13 -7 -31 -16 -39 -8 -9 -11 -16
-6 -16 16 0 35 29 35 55 0 26 -19 55 -35 55 -5 0 -2 -7 6 -16z"/>
<path d="M1388 425 c-2 -36 1 -55 8 -55 7 0 9 10 6 25 -2 14 0 25 6 25 5 0 17
-11 26 -25 9 -14 21 -25 27 -25 5 0 1 10 -11 22 -18 20 -19 23 -4 39 18 19 13
49 -8 49 -9 0 -9 -3 -1 -11 16 -16 5 -39 -19 -39 -16 0 -19 5 -16 25 3 14 2
25 -2 25 -5 0 -10 -25 -12 -55z"/>
<path d="M1557 462 c-34 -38 -7 -93 44 -91 21 1 20 2 -6 8 -25 5 -31 12 -33
39 -2 18 2 40 9 48 17 21 5 17 -14 -4z"/>
<path d="M1610 476 c0 -2 7 -9 15 -16 12 -10 15 -10 15 4 0 9 -7 16 -15 16 -8
0 -15 -2 -15 -4z"/>
<path d="M1677 462 c-10 -10 -17 -25 -17 -33 0 -20 29 -59 43 -59 7 0 4 5 -5
11 -21 12 -24 69 -6 87 7 7 10 12 7 12 -3 0 -13 -8 -22 -18z"/>
<path d="M1745 463 c12 -12 15 -26 11 -52 -4 -25 -2 -31 4 -21 21 32 6 90 -23
90 -5 0 -1 -8 8 -17z"/>
<path d="M1810 428 c5 -50 6 -53 35 -55 28 -2 28 -1 5 5 -21 7 -25 15 -28 55
-2 26 -6 47 -10 47 -4 0 -5 -24 -2 -52z"/>
<path d="M1938 425 c-2 -36 1 -55 8 -55 7 0 9 10 6 25 -2 14 0 25 6 25 5 0 17
-11 26 -25 9 -14 21 -25 27 -25 5 0 1 10 -11 22 -18 19 -18 23 -5 38 9 10 13
25 9 34 -10 25 -22 19 -16 -9 3 -21 0 -25 -18 -25 -18 0 -21 4 -18 25 3 14 2
25 -2 25 -5 0 -10 -25 -12 -55z"/>
<path d="M2030 465 c0 -8 2 -15 4 -15 2 0 6 7 10 15 3 8 1 15 -4 15 -6 0 -10
-7 -10 -15z"/>
<path d="M2070 425 c0 -37 4 -55 13 -55 8 0 11 16 9 55 -5 71 -22 71 -22 0z"/>
<path d="M2116 465 c4 -8 8 -15 10 -15 2 0 4 7 4 15 0 8 -4 15 -10 15 -5 0 -7
-7 -4 -15z"/>
<path d="M2217 462 c-10 -10 -17 -28 -17 -39 0 -20 28 -53 45 -53 5 0 2 6 -7
13 -23 19 -28 42 -13 71 16 31 14 33 -8 8z"/>
<path d="M2287 454 c16 -25 16 -29 1 -55 -13 -22 -14 -27 -2 -22 31 12 25 103
-6 103 -6 0 -3 -12 7 -26z"/>
<path d="M2345 425 c0 -30 5 -55 10 -55 6 0 10 25 10 55 0 30 -4 55 -10 55 -5
0 -10 -25 -10 -55z"/>
<path d="M2500 465 c-7 -8 -12 -26 -12 -40 0 -34 19 -55 51 -54 21 1 22 2 6 6
-11 3 -26 10 -32 15 -16 13 -17 60 -1 76 7 7 9 12 6 12 -3 0 -11 -7 -18 -15z"/>
<path d="M2566 465 c4 -8 8 -15 10 -15 2 0 4 7 4 15 0 8 -4 15 -10 15 -5 0 -7
-7 -4 -15z"/>
<path d="M2636 465 c-9 -23 -7 -33 3 -17 5 9 12 -1 21 -32 7 -25 16 -46 21
-46 8 0 -12 65 -29 96 -8 15 -10 14 -16 -1z"/>
<path d="M2725 425 l0 -55 35 1 c30 2 31 3 8 6 -26 4 -28 8 -28 54 0 27 -3 49
-7 49 -5 0 -8 -25 -8 -55z"/>
<path d="M2825 425 c0 -30 5 -55 10 -55 6 0 9 23 7 55 -5 71 -17 71 -17 0z"/>
<path d="M2888 425 c-3 -50 -1 -55 17 -55 14 0 16 3 8 8 -8 5 -12 26 -10 55 1
26 0 47 -4 47 -4 0 -9 -25 -11 -55z"/>
<path d="M2990 465 c-24 -29 -8 -95 22 -95 5 0 2 7 -6 16 -19 18 -21 65 -4 82
7 7 9 12 6 12 -3 0 -11 -7 -18 -15z"/>
<path d="M3054 464 c9 -8 16 -26 16 -39 0 -13 -7 -31 -16 -39 -8 -9 -11 -16
-6 -16 16 0 35 29 35 55 0 26 -19 55 -35 55 -5 0 -2 -7 6 -16z"/>
<path d="M3118 425 c-2 -36 1 -55 8 -55 7 0 9 10 6 25 -2 14 0 25 6 25 5 0 17
-11 26 -25 9 -14 21 -25 27 -25 6 0 3 7 -5 16 -19 18 -20 36 -5 51 14 14 5 43
-13 43 -9 0 -9 -3 -1 -11 16 -16 5 -39 -19 -39 -16 0 -19 5 -16 25 3 14 2 25
-2 25 -5 0 -10 -25 -12 -55z"/>
<path d="M3229 427 c-3 -35 0 -57 6 -57 6 0 9 17 7 40 -2 22 -2 40 1 40 3 0
19 -19 36 -42 17 -23 31 -35 31 -27 0 7 -18 34 -39 59 l-39 44 -3 -57z"/>
<path d="M3312 450 c0 -19 2 -27 5 -17 2 9 2 25 0 35 -3 9 -5 1 -5 -18z"/>
<path d="M3360 425 c0 -30 5 -55 10 -55 6 0 10 25 10 55 0 30 -4 55 -10 55 -5
0 -10 -25 -10 -55z"/>
<path d="M3446 465 c-9 -23 -7 -33 3 -17 5 9 12 -1 21 -32 7 -25 16 -46 21
-46 8 0 -12 65 -29 96 -8 15 -10 14 -16 -1z"/>
<path d="M2925 430 c-3 -5 -1 -10 4 -10 6 0 11 5 11 10 0 6 -2 10 -4 10 -3 0
-8 -4 -11 -10z"/>
<path d="M2612 401 c-6 -17 -7 -31 -3 -31 10 0 25 50 18 57 -3 2 -9 -10 -15
-26z"/>
<path d="M3422 401 c-6 -17 -7 -31 -3 -31 8 0 22 52 16 58 -1 2 -7 -11 -13
-27z"/>
<path d="M292 400 c0 -14 2 -19 5 -12 2 6 2 18 0 25 -3 6 -5 1 -5 -13z"/>
<path d="M343 405 c4 -8 2 -17 -3 -20 -15 -10 -12 -25 4 -19 8 3 23 1 34 -5
18 -9 19 -8 15 12 -6 22 -29 47 -46 47 -5 0 -7 -7 -4 -15z"/>
<path d="M630 387 c0 -10 8 -17 18 -17 9 0 13 4 7 8 -5 4 -13 11 -17 16 -5 5
-8 2 -8 -7z"/>
<path d="M356 336 c5 -23 4 -27 -12 -24 -11 2 -19 -3 -20 -12 -4 -57 -4 -56
-15 -40 -8 12 -10 12 -7 1 2 -8 -6 -24 -19 -37 -29 -29 -31 -54 -3 -47 11 3
18 8 15 12 -2 4 9 27 24 50 19 28 31 38 34 29 4 -10 7 -10 16 2 5 8 14 11 18
6 4 -4 0 -14 -10 -21 -14 -10 -16 -18 -10 -32 5 -10 10 -34 12 -52 2 -44 2
-44 30 -25 23 17 25 42 6 102 -6 18 -4 22 14 22 25 0 28 18 5 27 -9 3 -20 0
-25 -8 -7 -11 -9 -9 -9 6 0 11 -12 31 -26 44 l-25 24 7 -27z"/>
<path d="M205 341 c-3 -5 -2 -12 3 -15 5 -3 9 1 9 9 0 17 -3 19 -12 6z"/>
<path d="M170 325 c0 -8 4 -15 8 -15 5 0 9 7 9 15 0 8 -4 15 -9 15 -4 0 -8 -7
-8 -15z"/>
<path d="M290 289 c0 -5 5 -7 10 -4 6 3 10 8 10 11 0 2 -4 4 -10 4 -5 0 -10
-5 -10 -11z"/>
<path d="M105 280 c-4 -6 3 -10 14 -10 25 0 27 6 6 13 -8 4 -17 2 -20 -3z"/>
<path d="M180 285 c-2 -5 -2 -14 -1 -19 1 -5 -6 -5 -16 -2 -14 6 -15 4 -7 -4
19 -19 43 -8 33 15 -4 11 -8 16 -9 10z"/>
<path d="M1348 283 c397 -2 1047 -2 1445 0 397 1 72 2 -723 2 -795 0 -1120 -1
-722 -2z"/>
<path d="M430 250 c-13 -8 -12 -10 3 -10 9 0 17 5 17 10 0 12 -1 12 -20 0z"/>
<path d="M170 213 c0 -13 -6 -23 -12 -24 -7 0 -2 -5 11 -10 17 -7 28 -6 35 2
8 9 6 10 -8 5 -13 -4 -17 -2 -13 7 3 8 1 20 -4 28 -7 11 -9 9 -9 -8z"/>
<path d="M327 213 c-10 -9 -9 -33 1 -33 4 0 8 9 8 20 0 23 0 22 -9 13z"/>
<path d="M663 198 c-59 -28 -41 -138 23 -138 59 0 73 27 17 32 -33 3 -38 7
-41 31 -5 39 15 60 50 53 36 -7 46 11 13 24 -31 12 -34 12 -62 -2z"/>
<path d="M830 203 c-77 -29 -58 -143 24 -143 34 0 76 41 76 73 0 47 -57 86
-100 70z m46 -31 c36 -25 19 -85 -23 -80 -36 4 -50 29 -35 62 11 25 36 33 58
18z"/>
<path d="M970 152 c0 -69 15 -92 59 -92 43 0 61 28 61 93 0 44 -3 57 -15 57
-11 0 -15 -12 -15 -47 0 -56 -10 -76 -36 -71 -15 2 -20 15 -24 57 -7 78 -30
80 -30 3z"/>
<path d="M1140 135 c0 -43 4 -75 10 -75 6 0 10 21 10 48 l0 47 41 -47 c22 -27
45 -48 50 -48 5 0 9 34 9 76 0 56 -3 75 -12 72 -7 -3 -15 -24 -18 -47 l-5 -43
-30 41 c-48 64 -55 61 -55 -24z"/>
<path d="M1300 195 c0 -8 9 -15 20 -15 18 0 20 -7 20 -60 0 -47 3 -60 15 -60
12 0 15 13 15 60 0 53 2 60 20 60 11 0 20 7 20 15 0 12 -13 15 -55 15 -42 0
-55 -3 -55 -15z"/>
<path d="M1440 203 c0 -5 12 -26 25 -48 14 -22 25 -52 25 -67 0 -18 5 -28 15
-28 10 0 15 10 15 27 0 14 12 46 26 70 14 25 24 47 21 49 -10 11 -36 -10 -48
-38 l-12 -30 -15 28 c-15 29 -30 44 -44 44 -5 0 -8 -3 -8 -7z"/>
<path d="M1703 200 c-70 -29 -45 -140 31 -140 39 0 76 35 76 72 0 51 -58 88
-107 68z m68 -41 c16 -31 -3 -69 -36 -69 -17 0 -29 8 -36 24 -15 32 4 66 36
66 15 0 29 -9 36 -21z"/>
<path d="M1850 135 c0 -58 3 -75 14 -75 9 0 16 12 18 28 2 19 9 28 26 30 30 5
28 22 -3 22 -18 0 -25 5 -25 20 0 16 7 20 30 20 20 0 30 5 30 15 0 11 -12 15
-45 15 l-45 0 0 -75z"/>
<path d="M2047 204 c-4 -4 -7 -38 -7 -76 l0 -68 51 0 c36 0 49 4 47 13 -3 6
-17 13 -31 15 -31 4 -37 32 -7 32 11 0 20 7 20 15 0 8 -9 15 -20 15 -11 0 -20
7 -20 15 0 10 10 15 31 15 46 0 31 24 -17 28 -22 2 -43 0 -47 -4z"/>
<path d="M2180 135 l0 -75 46 0 c50 0 59 22 11 28 -26 3 -27 6 -27 63 0 46 -3
59 -15 59 -12 0 -15 -15 -15 -75z"/>
<path d="M2410 203 c-51 -19 -68 -85 -30 -123 24 -24 72 -26 90 -5 14 16 10
18 -37 15 -27 -1 -33 3 -38 23 -4 14 -1 35 5 47 9 18 18 21 41 16 34 -6 47 9
20 23 -21 12 -28 12 -51 4z"/>
<path d="M2553 200 c-70 -29 -45 -140 31 -140 39 0 76 35 76 72 0 51 -58 88
-107 68z m69 -46 c15 -33 1 -58 -35 -62 -33 -4 -51 26 -37 62 13 36 56 36 72
0z"/>
<path d="M2700 135 c0 -60 3 -75 15 -75 11 0 15 12 15 47 l0 46 36 -46 c53
-68 66 -63 62 25 -2 46 -7 73 -15 76 -9 2 -13 -11 -13 -45 l-1 -48 -40 48
c-23 26 -45 47 -50 47 -5 0 -9 -34 -9 -75z"/>
<path d="M2878 204 c-5 -4 -8 -38 -8 -76 l0 -68 43 0 c60 0 87 22 87 69 0 24
-7 44 -18 54 -20 18 -93 33 -104 21z m81 -38 c7 -8 11 -27 9 -43 -2 -22 -9
-29 -30 -31 -27 -3 -28 -2 -28 42 0 38 3 46 19 46 10 0 24 -6 30 -14z"/>
<path d="M3083 198 c-8 -12 -53 -123 -53 -134 0 -11 31 -2 36 11 8 20 60 20
68 0 5 -15 37 -22 35 -7 -2 21 -56 136 -65 139 -6 2 -15 -2 -21 -9z m30 -58
c4 -15 0 -20 -13 -20 -13 0 -17 5 -13 20 3 11 9 20 13 20 4 0 10 -9 13 -20z"/>
<path d="M3210 135 l0 -75 40 0 c99 0 125 114 32 140 -71 19 -72 19 -72 -65z
m76 37 c35 -24 20 -82 -21 -82 -23 0 -25 4 -25 45 0 36 3 45 18 45 9 0 22 -4
28 -8z"/>
<path d="M3420 203 c-51 -19 -68 -85 -30 -123 36 -36 102 -21 121 27 21 57
-35 116 -91 96z m48 -32 c8 -5 12 -22 10 -42 -3 -29 -7 -34 -32 -37 -31 -4
-46 10 -46 44 0 37 36 56 68 35z"/>
<path d="M230 185 c-8 -9 -8 -15 -2 -15 12 0 26 19 19 26 -2 2 -10 -2 -17 -11z"/>
<path d="M238 147 c-6 -8 -22 -12 -34 -9 -29 5 -40 -15 -13 -23 11 -4 23 -4
26 -1 4 3 13 0 21 -6 8 -7 25 -14 38 -15 19 -3 23 0 21 16 -3 21 -25 51 -38
51 -4 0 -14 -6 -21 -13z"/>
<path d="M318 133 c7 -3 16 -2 19 1 4 3 -2 6 -13 5 -11 0 -14 -3 -6 -6z"/>
</g>
</svg>
