<svg width="923px" height="1088px" viewBox="0 0 923 1088" version="1.1" xmlns="http://www.w3.org/2000/svg" xmlns:xlink="http://www.w3.org/1999/xlink">
    <title>JCC_California_Districts</title>
    <g id="Page-1" stroke="none" stroke-width="1" fill="none" fill-rule="evenodd" stroke-linejoin="bevel">
        <g id="JCC_California_Districts" transform="translate(1.001414, 0.990402)" fill-rule="nonzero" stroke="#FFFFFF">
            <g id="District_6" transform="translate(191.007879, 520.964363)" fill="#4BD6A7">
                <polyline id="Santa-Cruz" transform="translate(32.933619, 60.100973) rotate(-15.000000) translate(-32.933619, -60.100973) " points="23.318141 33.2444406 23.2852334 34.4450103 23.4707147 35.0496185 25.7538447 39.8282107 30.1935307 48.7976151 32.3578156 51.8885908 38.1665438 56.9800165 41.8029498 59.5849545 49.1278138 67.3135833 59.2600918 84.0357892 59.8328248 84.9848633 59.2619117 86.9575061 53.8849833 86.1901523 38.7909793 86.902804 38.1830586 83.4937578 36.8497633 77.2213151 35.8975388 74.8783132 35.0635736 73.2826052 34.3056888 72.2578545 32.5967299 70.7371643 31.797304 70.560357 27.5489197 71.5400174 23.7541514 71.3445569 21.7935561 71.0746748 20.4218835 70.7295972 19.7401312 70.3597611 19.4707886 70.2000747 18.2671839 69.5192721 17.3497391 68.9813748 14.0491813 65.2432214 10.781688 60.5563704 8.32120291 54.7114096 6.26439103 48.5560574 6.03441396 44.0558005 6.72168292 39.7744029 13.7633447 38.6033766 21.160393 40.6481378 21.7316199 39.1792392 23.318141 33.2444406"></polyline>
                <polyline id="Santa-Clara" transform="translate(56.535432, 45.207998) rotate(-15.000000) translate(-56.535432, -45.207998) " points="31.7916357 8.13194326 33.1474898 10.0973719 43.5492252 13.6552039 45.0638392 13.8492456 48.0168665 13.4732761 48.664545 13.1714346 49.5391831 12.5255119 50.5657465 12.6436893 82.0391395 21.6214273 80.7100853 22.1579239 80.3770663 27.8331875 82.8259221 55.5320134 92.3807658 63.7573096 92.8360029 65.1848559 91.6280424 71.0190933 89.8460468 73.8137427 87.6842982 74.7946921 86.4753442 79.0337522 86.5514506 79.6466832 87.2002064 81.0743497 88.3704851 82.2840531 71.4978896 77.7483019 63.7645382 76.1063404 56.2115383 80.3414575 56.7824515 78.3688307 56.2097185 77.4197644 46.0774405 60.6976948 38.7525766 52.9691289 35.1161706 50.3642122 29.3074424 45.2728279 27.1431576 42.1818775 22.7034715 33.2125462 20.4203416 28.4339929 20.2348603 27.8293896 20.2677679 26.6288298 31.7916357 8.13194326"></polyline>
                <polyline id="San-Benito" transform="translate(107.789553, 114.129152) rotate(-15.000000) translate(-107.789553, -114.129152) " points="70.4191589 68.6569766 75.7960873 69.4243304 83.3490871 65.1891787 91.0824385 66.8311536 107.955034 71.3669417 106.214496 73.1793386 105.609221 74.0185359 105.382424 74.6228879 105.955533 76.176455 110.547281 86.1282549 125.456682 99.7302166 126.37476 101.283998 145.621339 134.887296 137.470465 151.841615 133.157055 156.490171 128.945558 162.658419 128.30634 163.035829 127.843599 163.069125 125.537638 162.160952 109.559782 148.726241 104.364496 142.401024 92.9325834 119.414792 85.7518893 99.9993893 77.8255889 85.7636921 70.834884 74.1900243 69.957767 70.8563724 70.4191589 68.6569766"></polyline>
                <polyline id="Monterey" transform="translate(103.728097, 145.036531) rotate(-15.000000) translate(-103.728097, -145.036531) " points="78.2801864 70.7613021 77.8187946 72.9606979 78.6959115 76.2943499 85.6866165 87.8680176 93.6129169 102.103715 100.793611 121.519117 112.225524 144.505349 117.420809 150.830567 133.398666 164.265278 135.704627 165.17345 136.167368 165.140155 136.806585 164.762744 141.018082 158.594497 138.711311 169.893722 139.093742 176.006055 144.441324 183.691476 161.635472 204.666313 166.920078 219.311759 71.4150034 193.166851 68.720128 189.244368 64.2388172 180.988575 64.3877668 176.975506 64.4959441 175.044555 64.6872716 171.526861 64.1889193 168.420129 64.1129122 167.966712 54.0533885 146.475774 51.8128507 142.536781 47.4935211 137.681362 46.2728324 136.589158 46.239177 136.589137 45.3977184 136.471074 44.8674574 136.168498 44.0338322 135.118513 43.5030272 133.94278 41.3712577 129.021554 40.6129022 127.241187 40.536116 125.536805 43.2955297 97.9921136 49.3605795 95.8465751 49.5457261 95.9138561 50.9172052 95.9482914 51.9686545 95.4955753 54.0627419 93.9520616 55.3492353 92.626335 56.2908809 91.4934961 57.9216311 89.0261636 59.4762696 85.9374994 63.6439298 76.9314661 63.7188753 75.6805482 63.2284191 71.7426436 63.1861825 71.4739539 78.2801864 70.7613021"></polyline>
            </g>
            <g id="District_5" transform="translate(250.987769, 420.020160)" fill="#2378C3">
                <polyline id="Tuolumne" transform="translate(141.114095, 58.579403) rotate(-15.000000) translate(-141.114095, -58.579403) " points="177.596276 33.2620477 176.958481 33.7910549 176.043379 36.9814463 174.68253 46.921808 178.155559 52.4454541 180.65575 54.5691107 182.619045 55.8533088 186.176529 57.7837104 189.163387 59.9744563 191.244104 61.6028479 194.574843 64.7758034 196.915151 69.8882471 201.258756 89.1466371 198.312073 98.6758651 193.805591 102.12706 192.295064 103.109551 190.030246 98.1901902 187.757202 92.1794284 182.689933 86.3453947 174.71937 80.6041515 169.79369 81.7382791 162.492649 87.5657968 161.175156 88.2796061 150.778484 89.876312 148.093363 89.9103017 140.264897 87.7874547 137.84008 86.6208624 137.345063 86.2851216 136.74947 85.1854145 129.635082 77.5047036 128.007358 76.6654108 103.420992 81.8155276 98.4697708 85.37593 97.7479854 86.4338602 97.3361833 90.6736003 80.9694347 63.9283394 95.7474413 54.1622424 101.991266 48.0242555 112.397717 37.2849563 122.342436 28.048504 135.014493 17.0486031 137.062039 16.0912162 139.025622 15.4780536 149.422269 14.0492557 158.60877 24.7603915 159.85912 24.1473373 166.328897 21.9887361 170.977589 21.4171425 174.266739 22.1806242 174.644276 22.5583599 174.946236 23.3139001 177.596276 33.2620477"></polyline>
                <polyline id="Tulare" transform="translate(240.061329, 256.166541) rotate(-15.000000) translate(-240.061329, -256.166541) " points="296.486911 208.10773 298.523467 224.260173 304.836436 260.09918 307.247689 295.325917 307.624197 302.478741 306.188569 307.549782 302.067229 316.550278 297.06642 315.115424 260.004757 306.457002 213.528829 295.037923 172.49846 284.868931 181.473738 249.867141 185.671375 235.745438 188.432122 234.997828 190.62209 235.51801 194.140032 221.564319 191.985135 211.120767 188.2429 210.172656 199.513032 203.320296 215.28894 197.676189 226.104482 200.554169 241.946035 204.673903 244.372379 195.782805 281.543112 204.525165 296.486911 208.10773"></polyline>
                <polyline id="Stanislaus" transform="translate(57.982011, 101.439421) rotate(-15.000000) translate(-57.982011, -101.439421) " points="73.8371383 55.1138808 89.2297664 86.9049257 105.596515 113.650187 105.554554 113.69217 61.3159051 122.774321 49.0225607 126.411397 49.6602182 126.789093 50.1467333 127.855235 49.9951563 131.406513 22.3108147 147.764961 12.7882955 139.54731 10.3675072 111.85125 10.7040085 106.175908 12.0298656 105.638401 12.1053717 105.722343 34.3854361 92.5465734 38.3211916 90.0189597 40.0162865 89.2547206 49.5907849 86.7178546 51.705197 87.4815148 55.900563 88.3120221 60.7504666 88.873777 65.3992569 87.6557375 68.4302919 75.2132925 73.8371383 55.1138808"></polyline>
                <polyline id="Merced" transform="translate(81.815316, 150.445334) rotate(-15.000000) translate(-81.815316, -150.445334) " points="119.050317 109.193493 123.133561 130.038653 123.099755 131.633784 123.02419 131.93603 122.646538 132.313881 126.083722 152.856905 128.306852 156.021633 134.405895 163.945965 126.040083 163.947236 113.218919 162.236523 96.8058993 163.909702 89.9246711 167.999307 50.1394154 191.697175 49.225034 190.144164 34.3666646 176.554268 29.795089 166.606412 29.2247379 165.05335 29.4513863 164.448846 30.0556647 163.609214 31.7928738 161.795544 30.6267106 160.586783 29.9808215 159.159663 29.9053958 158.54681 31.1143414 154.306949 33.2709736 153.324359 35.0502869 150.528421 36.2594748 144.693433 35.8065784 143.266284 63.49092 126.907836 63.6424971 123.356558 63.1559819 122.290416 62.5183244 121.91272 74.8116688 118.275643 119.050317 109.193493"></polyline>
                <polyline id="Mariposa" transform="translate(157.160129, 108.618764) rotate(-15.000000) translate(-157.160129, -108.618764) " points="110.834078 88.2256311 111.24588 83.985891 111.967666 82.9279608 116.918887 79.3675584 141.505253 74.2174417 143.132977 75.0567344 150.247365 82.7374454 150.842958 83.8371524 151.337975 84.1728933 153.762792 85.3394856 161.591258 87.4623325 164.276379 87.4283429 174.673051 85.8316369 175.990544 85.1178276 183.291585 79.2903099 188.217265 78.1561823 196.187828 83.8974255 201.255097 89.7314593 203.528141 95.7422211 175.08007 113.083047 173.191054 119.959167 165.663317 126.701818 156.509093 124.470033 126.147694 143.020087 120.048652 135.095755 117.825522 131.931027 114.388338 111.388003 114.76599 111.010152 114.841554 110.707906 114.875361 109.112775 110.792117 88.2676145 110.834078 88.2256311"></polyline>
                <polyline id="Madera" transform="translate(160.090143, 139.873763) rotate(-15.000000) translate(-160.090143, -139.873763) " points="213.982186 100.968227 220.258383 102.67154 225.561227 104.375 226.727361 105.776855 229.336164 110.998398 230.324588 122.273272 203.91569 138.539176 200.172937 140.999597 198.586804 142.561383 197.562799 144.56804 196.84044 149.4039 196.764638 151.267691 196.579928 151.981328 194.84238 156.028175 193.591916 157.38842 191.208554 159.512819 188.632305 160.940429 176.339633 160.153129 172.756596 160.72456 158.985686 169.315148 155.276497 171.775564 154.412117 172.489305 148.470294 179.114179 147.035074 181.498691 144.87827 183.61466 144.576181 183.69866 108.226615 182.528827 103.049527 181.547352 97.0758826 176.695718 93.8209839 171.407109 92.9486326 169.358764 92.5376809 167.998772 92.235914 165.96713 89.8556972 147.380074 96.7369255 143.290468 113.149945 141.617289 125.971109 143.328003 134.336921 143.326732 164.698319 124.776678 173.852544 127.008463 181.380281 120.265812 183.269297 113.389692 211.717367 96.048866 213.982186 100.968227"></polyline>
                <polyline id="Kings" transform="translate(152.898714, 270.570957) rotate(-15.000000) translate(-152.898714, -270.570957) " points="189.001043 233.222819 192.743278 234.170931 194.898175 244.614482 191.380233 258.568173 189.190265 258.047991 186.429518 258.795601 182.231881 272.917304 173.256603 307.919095 117.819523 293.739291 116.158177 293.286191 110.899253 278.645411 148.343046 257.441334 154.211865 234.252344 167.108327 237.423846 179.283455 238.672911 189.001043 233.222819"></polyline>
                <polyline id="Kern" transform="translate(247.715892, 349.905827) rotate(-15.000000) translate(-247.715892, -349.905827) " points="197.020796 286.081873 238.051164 296.250865 284.527092 307.669944 321.588755 316.328366 326.589564 317.76322 358.616951 324.348743 355.099767 333.315566 354.268589 336.413595 353.133869 349.166348 334.737264 427.909585 331.716623 427.162854 226.20374 402.504802 226.580857 405.644625 218.450298 403.63936 196.626876 393.57659 196.216165 390.629867 195.041853 387.825981 186.458484 383.822679 181.466124 382.010031 178.856627 381.355586 183.550002 362.826223 179.389993 350.183406 169.289052 338.305482 159.874747 335.805083 156.209531 324.983968 146.118332 304.206884 136.814833 290.364281 141.583716 271.902069 197.020796 286.081873"></polyline>
                <polyline id="Fresno" transform="translate(173.373229, 195.768659) rotate(-15.000000) translate(-173.373229, -195.768659) " points="262.476204 138.779027 259.454385 145.789646 259.22683 152.363279 263.461041 173.670164 264.174033 175.265182 264.442504 175.525398 270.97838 180.141876 272.648163 180.292739 279.032652 187.20958 280.13153 189.450985 281.530809 202.723901 281.756743 206.820823 281.042625 212.647339 278.582447 223.309873 263.638648 219.727307 226.467915 210.984947 224.04157 219.876046 208.200018 215.756311 197.384476 212.878332 181.608568 218.522438 170.338436 225.374798 160.620848 230.82489 148.44572 229.575825 135.549258 226.404323 129.680439 249.593313 92.2366463 270.79739 75.1054396 249.836677 69.7783311 242.155694 69.401665 236.043899 71.7109019 224.743339 76.0161833 220.091632 84.1580138 203.131685 64.9897154 169.544598 104.774971 145.846731 107.155188 164.433787 107.456955 166.465428 107.867906 167.825421 108.740258 169.873766 111.995156 175.162374 117.9688 180.014008 123.145889 180.995483 159.495455 182.165316 159.797543 182.081316 161.954348 179.965348 163.389568 177.580836 169.331391 170.955961 170.195771 170.242221 173.90496 167.781805 187.67587 159.191217 191.258907 158.619785 203.551579 159.407085 206.127828 157.979475 208.51119 155.855077 209.761654 154.494832 211.499202 150.447985 211.683912 149.734347 211.759714 147.870557 212.482073 143.034696 213.506078 141.02804 215.092211 139.466254 218.834964 137.005833 245.243862 120.739928 262.476204 138.779027"></polyline>
            </g>
            <g id="District_4" transform="translate(493.001528, 479.951321)" fill="#5C5C5C">
                <polyline id="San-Diego" transform="translate(196.698628, 530.032418) rotate(-15.000000) translate(-196.698628, -530.032418) " points="140.300654 469.2067 153.023521 472.123119 162.461944 480.530448 162.042174 482.352497 197.496533 490.866066 216.732053 495.068588 244.648339 501.128663 263.547754 505.415083 258.553201 530.462121 255.900439 542.847058 247.352455 572.965104 243.263927 590.858135 234.78501 589.831923 217.516257 587.754242 199.936597 585.710084 175.130108 582.782725 151.306783 579.872367 150.77738 579.830271 146.647668 561.775968 148.305841 535.023647 148.30565 534.116777 148.347665 534.116786 148.413661 528.280922 148.455198 526.013756 147.394458 516.743304 146.940001 513.460003 145.199477 508.295515 145.039725 507.850443 140.154948 495.547889 138.717297 492.104838 138.448285 491.567377 136.48109 487.410475 133.564339 483.211388 131.782483 481.288112 129.849502 479.986179 140.300654 469.2067"></polyline>
                <polyline id="San-Bernardino" transform="translate(238.567526, 326.719434) rotate(-15.000000) translate(-238.567526, -326.719434) " points="134.615724 205.681939 156.473225 210.943028 296.264859 241.847965 304.222563 241.816052 321.605613 267.900625 327.598885 276.82784 329.826394 280.128309 361.961462 328.165604 373.813509 345.793288 371.093449 357.833936 370.942512 359.345354 371.01826 359.916363 375.79382 372.328054 381.820816 381.784284 382.124245 386.142362 387.725651 409.688578 393.256269 416.314932 398.072359 421.673197 402.241817 428.954227 401.940295 433.648056 401.747056 433.799161 390.387481 440.346387 382.732942 443.485234 371.566158 447.756929 311.120297 435.627412 299.683595 435.06241 293.46575 437.101559 249.003103 427.670826 185.220937 414.188699 163.212474 410.321471 151.893443 409.890844 126.061185 404.141896 114.472438 399.823426 113.715779 398.009527 110.303963 397.211099 97.7659793 394.370292 86.6759404 403.948873 83.7191869 409.305502 76.0282255 399.101593 75.3053453 398.077014 74.8932357 396.372347 75.0443318 395.616654 77.312578 392.846139 83.6058363 389.790975 85.6134686 386.457811 90.6451391 378.053527 96.4658159 365.459333 97.2629918 360.161028 99.277147 347.901911 101.954689 333.476522 107.713937 308.505217 110.739201 309.253182 129.133745 230.502124 130.265473 217.747435 131.096725 214.649137 134.615724 205.681939"></polyline>
                <polyline id="Riverside" transform="translate(260.928642, 452.382650) rotate(-15.000000) translate(-260.928642, -452.382650) " points="404.852128 446.251316 396.711973 457.753419 394.175169 462.144488 391.86607 470.431787 391.37103 473.950003 388.802392 486.779996 385.275684 499.038795 374.371204 511.90062 356.387869 508.302942 344.79961 506.30203 300.110221 497.543005 245.639099 486.14528 226.739685 481.85886 198.823399 475.798786 179.587879 471.596264 144.13352 463.082694 144.55329 461.260646 135.114867 452.853316 122.392 449.936898 123.038382 446.830164 134.623838 435.521916 130.303397 429.533984 125.269558 427.643612 122.646317 420.606419 117.005157 407.799889 119.96191 402.44326 131.051949 392.864679 143.589933 395.705486 147.001749 396.503914 147.758408 398.317814 159.347155 402.636283 185.179414 408.385232 196.498444 408.815859 218.506907 412.683087 282.289073 426.165214 326.75172 435.595946 332.969565 433.556797 344.406267 434.1218 404.852128 446.251316"></polyline>
                <polyline id="Orange" transform="translate(104.015494, 468.715000) rotate(-15.000000) translate(-104.015494, -468.715000) " points="108.194633 438.764604 115.885595 448.968512 121.526754 461.775042 124.149996 468.812235 129.183835 470.702607 133.504276 476.690539 121.91882 487.998786 121.272438 491.10552 110.821285 501.884999 110.249391 499.584115 108.736193 496.518912 107.79476 495.150011 91.1606854 474.296893 77.7879514 457.945225 74.5267116 453.922401 76.8366972 449.841972 81.6839865 443.746809 91.22815 435.545002 95.2784863 435.80616 96.303709 436.033093 108.194633 438.764604"></polyline>
                <polyline id="Inyo" transform="translate(140.009534, 143.213246) rotate(-15.000000) translate(-140.009534, -143.213246) " points="29.8988123 25.3226639 108.227762 43.8544175 151.803062 109.21702 153.425365 111.635682 162.705261 125.417023 168.126973 133.630378 196.731641 176.402044 219.914644 211.187074 222.90708 215.654879 235.339147 234.273525 236.322611 235.718007 253.369384 261.071916 245.411681 261.103829 105.620047 230.198892 83.7625453 224.937803 51.6866248 218.339448 55.8106378 209.33879 57.246495 204.267337 56.8668496 197.11306 54.4393425 161.878964 48.104277 126.031068 46.0589269 109.874914 48.5187811 99.2113102 49.2318148 93.3839798 49.0040686 89.2862223 47.5979588 76.0103549 46.4966839 73.7681385 40.1004874 66.8477087 38.4282439 66.6962117 31.8812767 62.0765133 31.6123235 61.8161514 30.8977262 60.2205813 26.6496847 38.9082384 26.8751828 32.3334772 29.8988123 25.3226639"></polyline>
                <polyline id="Imperial" transform="translate(322.424429, 523.156065) rotate(-15.000000) translate(-322.424429, -523.156065) " points="266.052025 472.640545 320.523147 484.03827 365.212536 492.797295 376.800795 494.798207 394.78413 498.395885 385.700879 500.635958 380.371847 533.483688 380.439111 533.668435 382.330862 538.698604 386.507805 541.621621 387.978479 542.268495 395.86084 543.588475 396.129802 543.890821 396.390354 544.159578 399.080659 550.432663 398.208239 557.55309 397.410529 560.315517 397.410538 560.357502 393.479063 565.881865 380.909706 573.671585 371.397277 572.955842 370.867874 572.913746 303.91051 564.956141 302.582791 564.796319 294.969415 563.887846 266.675557 560.514715 254.633657 559.109891 245.768199 558.083597 249.856726 540.190566 258.404711 510.07252 261.057473 497.687584 266.052025 472.640545"></polyline>
            </g>
            <g id="District_3" transform="translate(65.006158, 0.000000)" fill="#25B6E2">
                <polyline id="Yuba" transform="translate(217.331776, 340.150898) rotate(-15.000000) translate(-217.331776, -340.150898) " points="243.44689 312.406403 250.02941 309.414486 241.926544 335.310845 239.656587 334.21802 237.680921 333.915314 233.166382 334.402563 226.239213 338.041671 218.849742 343.160091 216.655713 346.648177 211.007395 367.333372 199.002234 368.316102 195.437596 367.206392 193.613277 367.256719 187.938587 368.046492 185.920995 369.634983 184.752493 370.88731 184.634142 359.607348 188.390779 337.131708 188.878292 335.509507 190.315716 332.46686 190.84534 332.164299 201.379363 332.744875 209.752715 332.140175 213.048168 330.467705 243.44689 312.406403"></polyline>
                <polyline id="Yolo" transform="translate(164.720640, 411.819313) rotate(-15.000000) translate(-164.720640, -411.819313) " points="139.027117 371.182508 179.717728 382.58249 193.019078 407.706795 193.355976 418.389991 196.508928 423.962909 196.626655 424.45883 196.509022 425.585138 192.836022 440.554821 188.70867 449.077589 187.069359 450.060918 181.537682 452.456118 173.281857 450.093743 178.4343 431.804039 179.342034 427.937638 179.342014 427.601425 178.467601 426.155657 149.782535 420.429969 145.957307 419.790942 145.998884 411.873122 145.881057 409.637297 144.897075 403.383674 140.734321 381.226978 132.814624 376.216943 139.027117 371.182508"></polyline>
                <polyline id="Trinity" transform="translate(76.760324, 193.775064) rotate(-15.000000) translate(-76.760324, -193.775064) " points="63.7756528 125.347251 67.6430594 128.457447 71.359168 132.055144 77.3454815 141.032384 88.2584524 152.54832 94.6227493 155.776335 96.1780602 156.003369 97.9938923 154.566162 98.977412 152.81791 98.2541177 147.783074 110.115706 135.50357 127.131117 128.805504 136.715455 134.715006 134.748851 145.734282 136.346249 146.869095 137.666234 148.306483 137.893282 149.331946 136.716548 153.618597 136.153333 154.568367 135.396765 155.661017 126.258808 163.771634 123.265974 164.864154 122.736337 164.939771 100.988918 191.381688 87.0426964 208.964837 74.0878323 214.948684 64.2352729 222.941585 63.0585143 226.80797 68.1787231 232.633161 68.5907208 233.566176 68.5235293 234.684082 67.4981533 239.525494 67.0778244 239.903709 65.5312495 245.367085 63.7498184 260.177177 64.010553 262.202877 15.6273662 248.053908 16.4174764 245.473516 38.616094 170.961533 41.0786244 158.42092 49.8299198 151.377758 52.4527748 149.066443 58.3961841 143.006542 58.8078232 137.736423 58.3958381 137.021946 58.5469603 133.491715 61.0519641 128.532714 62.4474193 126.641595 63.7756528 125.347251"></polyline>
                <polyline id="Tehama" transform="translate(144.500594, 247.843157) rotate(-15.000000) translate(-144.500594, -247.843157) " points="207.930105 229.566552 207.509837 231.003839 206.938579 238.240797 206.904992 238.963654 207.207706 240.022743 207.476746 240.283324 213.126418 243.023788 213.841022 243.158315 214.824937 248.243598 212.328485 255.707388 211.723235 256.657156 211.4206 256.95973 204.258106 261.851219 203.114879 264.044945 202.097665 264.65007 196.910593 265.633194 192.849942 264.531861 178.188633 273.617177 174.699869 276.163791 173.455707 277.483356 172.808442 278.786145 172.161215 280.74455 169.63078 282.072446 167.276807 281.912609 148.217807 276.767444 144.846817 280.625297 144.350985 283.777268 145.418783 285.634908 74.521251 265.289907 74.1765323 264.751946 74.1762505 259.876854 76.6392163 254.867418 79.5563519 253.161305 80.4305672 251.186102 80.6909816 247.672689 80.3125989 246.512731 80.0518643 244.487031 81.8332954 229.676939 83.3798703 224.213563 83.8001992 223.835347 84.8255752 218.993935 84.8927667 217.87603 84.480769 216.943015 79.3605602 211.117824 86.338336 210.311315 97.7046051 210.051407 106.792594 210.161201 125.859853 212.74274 131.005148 216.23125 138.849038 218.736492 141.623396 219.476322 152.081762 220.174569 159.883457 219.906049 166.894929 220.284694 179.892281 222.134618 191.410023 224.421534 207.930105 229.566552"></polyline>
                <polyline id="Sutter" transform="translate(186.251934, 368.716782) rotate(-15.000000) translate(-186.251934, -368.716782) " points="197.179715 341.181712 196.650091 341.484274 195.212667 344.526921 194.725154 346.149122 190.968517 368.624762 191.086868 379.904724 192.25537 378.652397 194.272962 377.063906 199.947651 376.274133 201.771971 376.223806 205.336609 377.333516 203.36139 384.75531 198.88879 383.578305 192.147512 403.439714 182.596983 400.665403 169.295633 375.541097 172.481526 369.220472 169.605582 356.334932 167.167259 351.342024 167.965623 346.113954 174.598058 333.993849 197.179715 341.181712"></polyline>
                <polyline id="Siskiyou" transform="translate(119.539021, 88.185481) rotate(-15.000000) translate(-119.539021, -88.185481) " points="54.9153982 22.3383801 77.1186836 28.5512035 77.3120474 28.5932414 83.1045501 29.7955386 91.3688192 32.7967196 94.773719 33.8139616 96.7830286 34.3856402 123.046972 41.8090661 133.463413 44.3901049 142.971895 46.962686 145.435197 47.7613349 149.756479 49.089627 214.51683 68.3752008 212.423759 73.1493058 211.675686 75.7633208 207.540315 90.993543 207.658032 91.3297631 208.036361 91.5567289 198.185455 128.152974 191.099837 154.032581 147.718944 141.976829 125.246617 135.461398 108.877904 131.064463 110.844509 120.045187 101.26017 114.135685 84.2447595 120.833751 72.3831713 133.113255 73.1064656 138.148091 72.1229459 139.896343 70.3071138 141.33355 68.7518029 141.106516 62.387506 137.8785 51.4745351 126.362565 45.4882216 117.385325 41.772113 113.787628 37.9047064 110.677432 38.5087876 89.5044359 36.9954001 87.3441782 24.5612127 83.6703296 26.6544758 82.2247335 30.4373789 77.8373689 30.899688 76.5093532 30.1762819 69.5412938 29.4531339 67.0364632 35.5886145 38.6604176 43.2806371 31.8105167 48.7787943 31.2812985 52.3346939 26.6501662 54.9153982 22.3383801"></polyline>
                <polyline id="Sierra" transform="translate(281.103749, 306.925991) rotate(-15.000000) translate(-281.103749, -306.925991) " points="243.603148 291.776973 251.370944 286.835087 252.438408 282.909859 254.590516 281.388618 258.533341 280.254126 273.918875 292.308261 290.632261 296.469866 314.617843 302.842494 326.707215 304.314126 318.974454 333.597855 279.645838 323.214997 278.578112 322.609752 276.804112 320.525127 276.198511 315.41465 274.491764 313.288003 268.505859 311.362836 267.211189 311.547678 264.33607 312.942797 263.12552 313.976583 262.856515 314.304375 252.171352 316.959843 238.526704 315.866361 236.635154 316.353761 235.500283 317.673332 243.603148 291.776973"></polyline>
                <polyline id="Shasta" transform="translate(143.121908, 179.698156) rotate(-15.000000) translate(-143.121908, -179.698156) " points="215.588628 151.0471 224.567457 153.426328 217.070001 181.121463 216.918885 184.760963 206.807362 221.357193 203.663714 231.31733 190.245903 227.601397 173.725822 222.45638 162.208079 220.169464 149.210727 218.31954 142.199255 217.940894 134.397561 218.209414 123.939194 217.511167 121.164836 216.771338 113.320946 214.266096 108.175652 210.777586 89.1083927 208.196047 80.0204032 208.086252 68.6541342 208.346161 61.6763584 209.152669 62.853117 205.286285 72.7056764 197.293383 85.6605405 191.309536 99.6067618 173.726388 121.354181 147.284471 121.883818 147.208853 124.876653 146.116333 134.014609 138.005716 134.771177 136.913067 135.334392 135.963297 136.511126 131.676645 136.284078 130.651182 134.964093 129.213794 133.366695 128.078982 149.735407 132.475916 172.207734 138.991347 215.588628 151.0471"></polyline>
                <polyline id="San-Joaquin" transform="translate(217.940047, 490.974534) rotate(-15.000000) translate(-217.940047, -490.974534) " points="250.035815 463.874408 251.474406 481.029774 246.061452 501.151825 243.027239 513.608352 238.369824 514.826856 233.510536 514.263418 229.306981 513.431047 227.188369 512.666039 217.596112 515.203895 215.897939 515.968682 211.955195 518.498459 189.635333 531.685135 185.011068 524.6412 184.405688 523.346743 189.0706 506.376648 192.474731 494.096655 198.425199 464.703554 202.098789 459.937943 211.236655 450.263934 213.161861 450.264045 214.641532 450.886125 215.658916 453.231272 217.222706 454.7107 221.308574 455.727982 236.315197 457.477158 236.88687 457.401543 242.721222 455.393006 249.581357 455.57832 250.035815 463.874408"></polyline>
                <polyline id="Sacramento" transform="translate(199.990623, 435.188745) rotate(-15.000000) translate(-199.990623, -435.188745) " points="209.819856 402.148857 236.991904 412.10234 240.398133 436.124975 234.53132 458.323118 227.671185 458.137804 221.836833 460.146341 221.26516 460.221956 206.258538 458.47278 202.17267 457.455498 200.608879 455.97607 199.591495 453.630923 198.111825 453.008843 196.186618 453.008732 187.048752 462.682741 183.375162 467.448352 183.106118 467.103717 181.592809 466.313529 176.77554 465.447501 175.833954 465.447447 175.228667 465.750004 174.816762 466.422407 174.581453 467.943758 174.169553 468.691809 172.160349 469.952492 168.444509 471.002944 165.148955 470.927106 164.207357 470.708513 162.080331 469.834235 161.323641 468.817146 159.583113 464.042817 164.509744 466.119219 172.572025 465.321178 181.852817 455.764852 188.787931 444.123869 194.319609 441.728669 195.95892 440.74534 200.086272 432.222572 203.759272 417.252888 203.876905 416.12658 203.759178 415.630659 200.606225 410.057742 200.269327 399.374546 209.819856 402.148857"></polyline>
                <polyline id="Plumas" transform="translate(256.949093, 253.981001) rotate(-15.000000) translate(-256.949093, -253.981001) " points="213.350286 200.671881 226.768096 204.387813 247.870027 209.986983 242.457068 230.033387 243.440845 232.731555 251.209327 239.657997 254.202271 240.456677 255.900465 240.07013 256.589694 237.540165 264.811374 230.95086 267.720151 230.076873 270.755129 230.875555 284.702971 241.324189 303.115582 262.91855 305.469724 265.995038 309.52292 283.562416 309.447448 286.865707 308.648958 289.925201 304.59747 301.91097 300.091621 307.290122 276.106039 300.917495 259.392653 296.755889 244.007119 284.701754 240.064295 285.836246 237.912187 287.357487 236.844723 291.282715 229.076927 296.224601 222.494407 299.216519 216.306076 285.918927 204.375266 264.207265 211.124969 244.656853 212.898747 242.883431 213.310605 241.404116 213.201164 238.815268 212.208839 233.671147 209.678286 232.956548 216.84078 228.065059 217.143415 227.762484 217.748666 226.812717 220.245118 219.348926 219.261203 214.263644 218.546599 214.129117 212.896926 211.388652 212.627887 211.128072 212.325173 210.068982 212.358759 209.346126 212.930018 202.109168 213.350286 200.671881"></polyline>
                <polyline id="Placer" transform="translate(262.301298, 367.191460) rotate(-15.000000) translate(-262.301298, -367.191460) " points="207.533146 357.598518 219.538306 356.615788 223.557058 360.053801 224.431412 360.474118 235.797917 364.299201 238.521764 363.84547 243.750627 358.659683 244.473569 357.600653 245.112406 355.936434 245.835365 355.171591 249.778084 352.213142 253.720856 350.170874 259.706478 347.187327 271.181745 341.842199 275.469266 340.859023 278.613481 340.72472 330.258548 354.117398 326.207288 370.062078 324.845678 375.710383 323.7026 380.484545 312.260484 377.567234 311.234875 378.365681 310.898668 379.643272 309.721715 380.147524 307.981487 380.559284 303.206279 380.147147 285.131157 379.465271 280.658842 383.21379 278.649617 384.113045 274.59748 384.877696 273.916512 384.877656 272.890821 384.264008 267.88836 379.304573 266.719707 377.951247 266.030265 376.799677 265.088557 374.681479 262.47382 371.983216 260.506511 370.823166 259.934821 370.596189 256.294572 370.402656 244.886361 372.259575 235.94985 374.797469 234.167649 376.276705 231.856011 381.311365 221.516096 393.6582 194.344049 383.704716 201.085327 363.843307 205.557926 365.020312 207.533146 357.598518"></polyline>
                <polyline id="Nevada" transform="translate(269.539615, 338.437812) rotate(-15.000000) translate(-269.539615, -338.437812) " points="326.736275 337.664612 323.063196 351.264227 271.418129 337.871549 268.273913 338.005852 263.986393 338.989028 252.511126 344.334156 246.525504 347.317703 242.582732 349.359971 238.640013 352.31842 237.917054 353.083263 237.278217 354.747482 236.555275 355.806512 231.326412 360.9923 228.602565 361.44603 217.23606 357.620947 216.361706 357.20063 212.342954 353.762617 217.991273 333.077422 220.185302 329.589336 227.574772 324.470916 234.501942 320.831808 239.016481 320.344559 240.992147 320.647265 243.262104 321.74009 244.396975 320.420518 246.288525 319.933118 259.933173 321.0266 270.618336 318.371133 270.887341 318.04334 272.097892 317.009554 274.97301 315.614436 276.26768 315.429593 282.253585 317.35476 283.960332 319.481408 284.565933 324.591884 286.339934 326.676509 287.407659 327.281755 326.736275 337.664612"></polyline>
                <polyline id="Mono" transform="translate(427.668723, 471.256967) rotate(-15.000000) translate(-427.668723, -471.256967) " points="380.528402 387.418952 396.704898 411.627243 407.584511 427.824946 453.885968 497.465796 492.502718 555.094982 414.139861 536.556697 396.870808 518.492641 395.878128 507.204223 393.263244 501.975956 392.094588 500.572198 386.781256 498.865608 380.49271 497.158962 382.005916 496.175626 386.520283 492.721296 389.470594 483.181414 385.114646 463.899332 382.768793 458.780349 379.431024 455.602941 377.34599 453.972186 374.352966 451.778221 370.78828 449.844789 368.820964 448.558659 366.315551 446.431966 362.834727 440.901056 364.196088 430.949222 365.112268 427.755249 365.751171 427.22575 374.309091 419.947227 378.251458 410.903318 374.837483 398.320339 374.955117 397.219247 376.930473 392.142541 380.528402 387.418952"></polyline>
                <polyline id="Modoc" transform="translate(264.032321, 88.891771) rotate(-15.000000) translate(-264.032321, -88.891771) " points="219.623121 31.0016492 263.500041 43.2759669 277.901481 47.1432518 278.010774 47.1852848 306.426921 54.7265097 309.495527 55.5167882 331.858513 61.1664636 309.694164 146.781892 205.184958 119.038258 196.206129 116.65903 203.291746 90.7794227 213.142652 54.1831773 212.764323 53.9562115 212.646606 53.6199914 216.781977 38.3897692 217.53005 35.7757542 219.623121 31.0016492"></polyline>
                <polyline id="Lassen" transform="translate(278.957775, 210.449724) rotate(-15.000000) translate(-278.957775, -210.449724) " points="341.664249 147.060887 333.023783 180.698526 323.2907 219.454948 318.407316 238.349852 316.852371 244.452033 316.810342 244.5613 311.506682 264.725385 303.328429 295.404373 301.664198 301.582196 289.574825 300.110564 294.080674 294.731412 298.132163 282.745643 298.930652 279.686148 299.006124 276.382857 294.952928 258.81548 292.598786 255.738992 274.186175 234.144631 260.238333 223.695997 257.203355 222.897315 254.294578 223.771302 246.072898 230.360607 245.383669 232.890572 243.685475 233.277119 240.692531 232.478439 232.924049 225.551997 231.940272 222.853829 237.353231 202.807425 216.2513 197.208254 219.394948 187.248118 229.506472 150.651888 229.657588 147.012388 237.155044 119.317253 341.664249 147.060887"></polyline>
                <polyline id="Glenn" transform="translate(126.778268, 305.546202) rotate(-15.000000) translate(-126.778268, -305.546202) " points="88.8520243 271.842966 159.749557 292.187967 163.877981 302.224171 167.208411 323.884904 167.099145 324.31357 160.05493 339.249437 92.0326594 319.997296 94.6132112 313.046236 95.5546244 310.062397 98.3199128 299.345759 86.3481259 295.924097 88.8520243 271.842966"></polyline>
                <polyline id="El-Dorado" transform="translate(283.290798, 395.366478) rotate(-15.000000) translate(-283.290798, -395.366478) " points="331.710032 376.012103 335.998548 392.259857 336.940251 394.277191 337.058069 396.36172 336.486567 399.379201 336.066253 400.026388 329.282141 406.061024 327.205696 407.573864 316.024688 413.137547 296.403346 424.054939 291.703868 424.802742 275.099971 424.053708 269.080508 423.364123 265.322517 422.414103 240.773554 414.116622 232.929757 413.208393 229.523527 389.185758 239.863442 376.838923 242.17508 371.804263 243.957282 370.325027 252.893792 367.787134 264.302004 365.930215 267.942252 366.123748 268.513942 366.350725 270.481251 367.510774 273.095989 370.209037 274.037697 372.327235 274.727138 373.478805 275.895792 374.832131 280.898252 379.791566 281.923944 380.405214 282.604912 380.405254 286.657049 379.640603 288.666273 378.741348 293.138589 374.992829 311.21371 375.674705 315.988918 376.086842 317.729146 375.675082 318.906099 375.17083 319.242306 373.893239 320.267916 373.094792 331.710032 376.012103"></polyline>
                <polyline id="Colusa" transform="translate(136.294689, 353.562497) rotate(-15.000000) translate(-136.294689, -353.562497) " points="172.806726 338.422522 168.973588 346.407365 162.341154 358.527471 161.54279 363.755541 163.981113 368.748449 166.857057 381.633989 163.671164 387.954614 122.980553 376.554633 118.961724 371.780172 118.583358 370.914401 115.699116 359.92006 116.001329 352.313252 107.971837 338.595287 105.054434 335.678468 100.46381 328.861479 99.7826532 325.60017 101.44708 322.792886 104.784455 319.170381 172.806726 338.422522"></polyline>
                <polyline id="Calaveras" transform="translate(287.934608, 463.131015) rotate(-15.000000) translate(-287.934608, -463.131015) " points="330.654827 443.873279 320.238618 445.301583 318.271412 445.915059 316.220156 446.873148 303.5262 457.883399 293.564421 467.128688 283.140344 477.878505 276.88588 484.022441 262.081692 493.796987 246.65298 461.965104 245.214389 444.809738 245.777696 445.456981 246.837017 446.104253 253.436605 447.508325 273.478563 441.180268 288.636025 434.507311 292.578797 432.465043 296.252675 432.683794 328.460063 434.660908 330.654827 443.873279"></polyline>
                <polyline id="Butte" transform="translate(193.122855, 294.143727) rotate(-15.000000) translate(-193.122855, -294.143727) " points="159.059016 274.628194 157.991218 272.770554 158.48705 269.618583 161.858039 265.760731 180.91704 270.905895 183.271013 271.065733 185.801448 269.737836 186.448675 267.779432 187.09594 266.476643 188.340101 265.157077 191.828865 262.610463 206.490174 253.525147 210.550826 254.62648 215.737897 253.643356 216.755111 253.038231 217.898338 250.844506 220.428891 251.559105 221.421216 256.703225 221.530657 259.292074 221.118799 260.771388 219.345021 262.544811 212.595318 282.095223 224.526128 303.806884 230.714459 317.104477 200.315737 335.165778 197.020284 336.838249 188.646932 337.442949 178.112909 336.862372 155.531252 329.674508 159.364389 321.689665 166.408604 306.753797 166.517871 306.325131 163.187441 284.664399 159.059016 274.628194"></polyline>
                <polyline id="Amador" transform="translate(280.848210, 431.637471) rotate(-15.000000) translate(-280.848210, -431.637471) " points="325.329082 415.00564 320.067471 435.421886 287.860083 433.444772 284.186205 433.226021 280.243433 435.268289 265.085971 441.941246 245.044013 448.269303 238.444425 446.865231 237.385104 446.217959 236.821797 445.570716 236.367338 437.274628 242.234152 415.076485 250.077949 415.984714 274.626912 424.282196 278.384903 425.232215 284.404365 425.9218 301.008263 426.670835 305.707741 425.923032 325.329082 415.00564"></polyline>
                <polyline id="Alpine" transform="translate(339.880740, 413.091127) rotate(-15.000000) translate(-339.880740, -413.091127) " points="342.514281 378.217255 362.482672 408.158201 358.884742 412.88179 356.909387 417.958496 356.791753 419.059588 360.205728 431.642567 356.263361 440.686476 347.70544 447.964999 345.048248 438.004527 344.745552 437.24803 344.367214 436.869768 341.07162 436.104692 336.414167 436.675985 329.932483 438.835781 328.679874 439.449298 319.473572 428.723563 317.278809 419.511192 322.54042 399.094945 333.721428 393.531262 335.797873 392.018422 342.581986 385.983786 343.002299 385.3366 343.573802 382.319118 343.455983 380.234589 342.514281 378.217255"></polyline>
            </g>
            <g id="District_2" transform="translate(275.998586, 684.956790)" fill="#0B4778">
                <polyline id="Ventura" transform="translate(198.483775, 177.571281) rotate(-15.000000) translate(-198.483775, -177.571281) " points="180.139898 127.043366 185.138918 128.857513 193.734155 132.862968 194.911158 135.666075 195.323739 138.611591 217.177282 148.679892 225.318238 150.688047 233.552744 208.599774 232.982765 212.560335 227.684611 221.000389 217.233268 218.420877 210.269993 221.330463 201.635238 225.070261 200.502111 228.099195 188.612194 219.133362 175.541764 196.430421 166.599692 184.931329 164.515461 182.287369 163.414806 181.791923 165.917667 180.055704 166.639926 179.418189 168.301569 174.115354 180.139898 127.043366"></polyline>
                <path d="M83.2008296,219.080533 L97.7507758,220.384927 L104.261182,227.001292 L104.04494,230.67419 L103.983157,231.369294 L103.635627,231.489436 L91.7578043,233.034112 L90.684321,233.102765 L87.5179315,229.515682 L86.923268,228.357175 L83.2008296,219.080533 M129.481797,225.1566 L132.932746,227.608039 L142.025171,230.646072 L142.338104,230.453459 L142.485877,230.365908 L142.720577,230.252091 L143.076972,230.059478 L143.546371,229.779314 L143.824533,229.665497 L146.293222,229.823089 L149.26608,232.03814 L149.891945,232.97494 L149.857174,233.018715 L149.822404,233.097511 L149.735478,233.167553 L146.719158,235.540195 L145.858593,236.249362 L145.232729,236.336913 L129.838192,236.608322 L126.500246,235.811605 L123.249226,234.515844 L123.214456,234.515844 L121.997496,233.911739 L119.250645,232.624734 L116.790648,230.803665 L116.590719,230.138274 L114.791358,219.877251 L115.417223,219.080533 L115.964854,219.246881 L120.789229,221.173012 L129.481797,225.1566 M74.0928045,111.661156 L87.9819762,113.084923 L92.9282132,114.891049 L97.5118989,119.325067 L103.54579,118.373177 L109.381141,115.289704 L127.353332,110.408241 L129.027975,112.279478 L134.129591,116.786694 L149.883313,128.705659 L169.642364,143.366392 L173.613165,144.326418 L175.287807,144.326418 L177.972414,144.961012 L165.792413,190.602918 L164.083243,195.744752 L163.340875,196.363073 L160.768487,198.047186 L154.27709,192.441612 L149.374014,190.432066 L144.393248,189.76493 L143.037997,189.789337 L142.839457,189.789337 L137.513404,189.545263 L126.300207,186.20958 L122.450256,182.540328 L115.872538,178.065632 L113.231092,177.081198 L106.385776,174.689269 L100.662643,173.257367 L94.0072353,171.939365 L86.3850236,171.028154 L77.3212385,169.555572 L65.6505361,155.187728 L66.3842711,146.856656 L72.107404,119.178622 L74.0928045,111.661156" id="Santa-Barbara" transform="translate(121.811475, 173.508282) rotate(-15.000000) translate(-121.811475, -173.508282) "></path>
                <polyline id="San-Luis-Obispo" transform="translate(84.762096, 83.668037) rotate(-15.000000) translate(-84.762096, -83.668037) " points="15.2271656 15.6803396 110.575483 41.7830038 112.238974 42.236673 107.473279 60.6878449 116.794136 74.5282602 126.906887 95.30023 130.58148 106.117929 140.007908 108.62159 150.126205 120.498639 154.297026 133.137407 149.606958 151.655734 147.977216 151.655212 144.112559 150.663787 124.878422 135.536309 109.543134 123.237984 104.576807 118.587578 102.946445 116.657032 85.457729 121.686243 79.7798524 124.864766 73.9080533 125.844677 69.4457948 121.269931 64.6315753 119.405521 51.1143203 117.932691 52.5500058 115.315033 52.6675568 115.13046 54.0275065 112.110024 55.1270683 109.198559 55.6473402 107.411356 56.033195 105.607328 56.1422457 105.11227 56.1841847 104.91089 56.3682279 102.502615 56.3681902 102.385136 56.1072099 100.648031 55.7288455 99.615767 54.9389124 98.793156 52.3170211 96.1070658 51.9388775 95.762897 51.1826443 95.2423874 43.3379117 73.9089206 28.8296692 47.1944267 19.2816987 32.4392755 17.8026736 30.8947828 16.9370585 29.8371882 15.566198 25.036865 15.2271656 15.6803396"></polyline>
                <path d="M240.297197,350.642288 L232.826212,350.349074 L228.084652,344.418593 L227.451202,343.397074 L225.140972,335.934315 L223.044998,322.597825 L225.690583,323.496383 L239.458807,347.870946 L240.595291,350.349074 L240.297197,350.642288 M234.002875,271.382481 L233.646457,271.068976 L233.575174,270.185461 L233.646457,270.014458 L234.034557,270.13796 L238.398699,271.895489 L243.285588,276.607567 L247.24579,280.41713 L250.247622,283.45718 L254.104859,293.042838 L254.421675,294.030854 L254.635526,296.082888 L254.247426,297.194406 L253.067286,298.02092 L252.996002,298.058921 L252.314848,298.058921 L242.034164,292.235325 L241.35301,291.503813 L234.002875,271.382481 M349.40711,151.31265 L343.654395,176.636742 L340.979298,191.26579 L338.966686,203.697927 L338.170027,209.070994 L332.35861,221.843738 L327.335466,230.367415 L325.33124,233.747934 L319.050214,236.847453 L316.786025,239.657457 L316.635079,240.423822 L317.045988,242.152399 L317.767173,243.191249 L305.901149,240.423822 L304.878071,240.193912 L300.836076,239.929942 L291.309712,248.249256 L286.471058,254.431263 L284.16494,258.569632 L277.439462,259.497785 L270.370162,259.344512 L267.11644,258.041692 L265.497964,257.113539 L259.183394,252.975171 L258.0513,252.021472 L257.372043,248.147074 L258.009371,247.457345 L260.055526,245.916101 L261.112147,245.686192 L261.640458,244.579221 L262.202312,241.811793 L261.531441,236.745271 L261.112147,234.28439 L260.885728,232.904933 L260.399347,230.060869 L259.527215,226.603713 L258.311262,223.274285 L258.202246,223.03586 L258.0513,222.686739 L258.009371,222.618617 L257.070152,220.736767 L256.877276,220.472797 L256.164476,219.433947 L255.929672,219.09334 L255.669709,218.854916 L254.151864,217.398823 L251.963149,216.521761 L243.308917,214.673971 L236.507966,213.754334 L232.918808,214.06088 L219.534939,208.032145 L220.667033,204.958171 L229.287721,201.160409 L236.239618,198.205648 L246.671657,200.819802 L251.963149,192.253549 L252.533389,188.234393 L244.331995,129.471259 L243.95463,126.286588 L349.40711,151.31265" id="Los-Angeles" transform="translate(284.471025, 238.464438) rotate(-15.000000) translate(-284.471025, -238.464438) "></path>
            </g>
            <g id="District_1" transform="translate(0.000000, 26.008996)" fill="#34A37E">
                <polyline id="Sonoma" transform="translate(144.229495, 402.899808) rotate(-15.000000) translate(-144.229495, -402.899808) " points="105.004036 356.132767 108.263333 355.931203 119.469278 356.048924 143.998051 358.056776 164.788754 364.373758 174.894521 388.078503 173.500129 392.740456 173.231398 399.855204 176.557998 408.985977 182.354398 429.498697 183.379325 438.251448 183.454954 440.788231 183.261776 443.283012 180.649342 447.524954 177.356434 446.920123 177.507646 447.55852 169.141014 449.868413 159.640209 439.267583 141.730631 417.948337 141.050208 417.771931 134.195596 417.612258 133.170771 418.149843 127.802799 399.056717 110.271099 365.515559 105.004036 356.132767"></polyline>
                <polyline id="Solano" transform="translate(221.001127, 424.506665) rotate(-15.000000) translate(-221.001127, -424.506665) " points="185.56463 427.786398 202.76001 432.74255 203.129611 431.759761 202.9448 431.272562 202.64239 431.230559 202.18877 430.592159 201.886351 429.710162 202.113148 428.769371 206.691145 415.631911 218.165932 418.840813 218.543933 417.942024 218.661527 416.992831 218.770709 415.060846 218.695097 414.153651 218.317059 411.692464 216.460541 406.089683 216.494136 405.560487 216.645333 404.846494 220.467373 397.656185 220.88738 397.194193 224.709504 397.83263 253.371244 403.553301 254.244887 404.9981 254.24489 405.334098 253.337704 409.198061 248.188545 427.476279 256.437623 429.836752 249.507537 441.470596 240.233756 451.02123 232.177918 451.819137 227.255345 449.744298 226.574933 450.575885 225.810515 451.071473 224.710082 451.147061 223.500444 451.021048 205.63305 446.678085 201.432908 445.460048 194.124636 441.033199 185.715842 428.424795 185.56463 427.786398"></polyline>
                <polyline id="San-Mateo" transform="translate(197.294192, 515.720666) rotate(-15.000000) translate(-197.294192, -515.720666) " points="196.210098 484.388986 196.058894 484.430984 194.210957 495.485288 195.33661 497.257688 208.441161 511.008535 209.390396 511.604941 211.658475 512.40296 213.212518 511.99138 213.254518 511.882181 214.808608 515.779771 203.292056 534.293118 201.704471 540.231859 201.13327 541.701843 193.749422 539.660577 186.718421 540.836493 186.029646 545.120456 186.256502 549.622827 185.576069 548.522427 183.265957 544.734028 180.157799 538.938035 179.779776 537.871238 179.972926 532.730476 181.375465 504.641085 183.97942 493.208793 187.162994 481.818506 196.210098 484.388986"></polyline>
                <polyline id="San-Franciso" transform="translate(183.683179, 480.812949) rotate(-15.000000) translate(-183.683179, -480.812949) " points="186.711532 486.722324 177.664428 484.151844 177.664427 484.076244 177.773613 482.404657 178.840377 476.230711 179.823201 475.667926 183.720912 474.903573 186.980214 475.130407 188.534266 475.516821 189.105493 476.356822 189.701931 478.204815 189.214786 484.672765 188.727588 486.235149 186.711532 486.722324"></polyline>
                <polyline id="Napa" transform="translate(193.755795, 399.391483) rotate(-15.000000) translate(-193.755795, -399.391483) " points="200.328656 359.844583 208.241753 364.851035 212.400121 386.993326 213.383018 393.242894 213.500646 395.47728 213.458731 403.390024 213.038723 403.852017 209.216684 411.042325 209.065487 411.756319 209.031892 412.285515 210.888409 417.888296 211.266447 420.349483 211.34206 421.256678 211.232877 423.188663 211.115284 424.137855 210.737282 425.036645 199.262496 421.827743 194.684498 434.965202 194.457701 435.905993 194.76012 436.78799 195.213741 437.426391 195.516151 437.468394 195.700961 437.955592 195.331361 438.938382 178.13598 433.98223 181.428888 434.587061 184.041322 430.345119 184.234501 427.850338 184.158871 425.313555 183.133945 416.560804 177.337545 396.048084 174.010944 386.917311 174.279675 379.802563 175.674067 375.14061 190.021705 374.955967 199.723913 366.740929 200.664726 365.304549 200.328656 359.844583"></polyline>
                <polyline id="Mendocino" transform="translate(113.764138, 294.106935) rotate(-15.000000) translate(-113.764138, -294.106935) " points="75.5463533 219.662125 113.440037 230.977257 112.65044 233.556031 160.994073 247.693657 161.372097 248.852853 161.111727 252.364026 160.238122 254.338003 157.323251 256.043159 154.86203 261.049498 154.862083 265.921464 155.206499 266.459064 152.703483 290.524871 152.216285 292.087255 150.771481 295.791613 146.688959 296.026767 139.674719 293.708307 136.19702 294.422265 133.853403 299.537804 133.206601 301.175786 132.299406 304.191355 132.753182 319.084457 132.030809 323.620417 128.511144 327.551552 124.915847 328.651905 123.059428 332.137861 121.203018 336.497411 120.749421 338.042995 120.564625 338.958587 121.967536 345.166159 126.621411 357.388125 128.704709 360.731324 135.593005 368.551745 114.802301 362.234763 90.2735282 360.226911 79.0675837 360.109191 75.8082861 360.310754 71.9440927 353.38916 66.1561797 340.873184 70.7758042 293.186764 71.0361921 291.33038 71.2209887 290.490388 72.7833944 286.601231 74.5978068 282.619679 76.4878348 279.864518 77.5462503 278.302141 78.9910782 276.798567 79.5202866 276.076177 79.8226913 275.656184 79.8982927 275.572185 81.788319 272.657426 81.9395155 271.901432 83.5690473 261.006726 83.829426 258.310347 83.795642 241.434863 83.7200367 241.157665 80.0826203 231.472492 78.0833024 226.247707 75.5463533 219.662125"></polyline>
                <polyline id="Marin" transform="translate(161.404043, 445.783931) rotate(-15.000000) translate(-161.404043, -445.783931) " points="144.855207 415.165984 145.880032 414.628398 152.734644 414.788072 153.415067 414.964478 171.324645 436.283724 180.825451 446.884554 177.801444 454.763667 174.659855 464.717564 174.424657 465.557555 174.995884 466.456355 176.398746 468.195158 177.801614 470.521958 178.288842 471.723155 178.255245 472.059152 173.257145 476.939464 171.022673 476.679041 169.619823 475.956631 168.670584 475.049427 141.982636 444.42295 146.409316 420.835961 146.148886 418.828372 145.199627 416.064781 144.855207 415.165984"></polyline>
                <polyline id="Lake" transform="translate(159.615057, 330.772954) rotate(-15.000000) translate(-159.615057, -330.772954) " points="169.434514 303.964639 166.099651 307.584978 164.436431 310.39054 165.116887 313.649725 169.703501 320.462128 172.618422 323.376939 180.640816 337.085731 180.33849 344.687675 183.219897 355.67483 183.597918 356.540029 187.613293 361.311239 181.405557 366.342737 181.741626 371.802703 180.800813 373.239083 171.098605 381.454121 156.750968 381.638764 146.645201 357.934018 139.756905 350.113598 137.673607 346.770398 133.019732 334.548432 131.616822 328.34086 131.801617 327.425269 132.255215 325.879684 134.111624 321.520134 135.968043 318.034179 139.56334 316.933825 143.083005 313.002691 143.805378 308.46673 143.351603 293.573628 144.258798 290.558059 144.9056 288.920077 147.249216 283.804538 150.726915 283.090581 157.741155 285.409041 161.823677 285.173887 163.268481 281.469528 163.755679 279.907144 175.717683 283.32605 172.954114 294.035946 172.013318 297.017915 169.434514 303.964639"></polyline>
                <polyline id="Humboldt" transform="translate(71.704896, 154.557562) rotate(-15.000000) translate(-71.704896, -154.557562) " points="109.883763 90.067347 122.307873 93.7382563 123.819954 95.8970578 123.21536 117.056505 121.888124 118.350081 120.493692 120.240053 117.990451 125.195992 117.839283 128.723966 118.250907 129.437965 117.839348 134.704724 111.900389 140.761018 109.279515 143.070974 100.53486 150.11003 98.0737032 162.642717 75.8892729 237.107961 37.9953166 225.792828 36.1724128 222.584031 20.0854713 191.873669 19.5898378 190.512873 21.6309024 170.899031 21.8997072 170.403437 28.7878602 160.48318 33.6347759 154.233676 35.4912235 152.150511 38.8261112 148.597372 43.7822465 143.784259 49.6119998 137.576765 52.8376849 134.174823 55.2905457 131.21807 58.5162172 126.564538 62.0274832 120.390618 63.7411053 116.451064 63.3210632 114.031876 73.5019861 89.8401542 81.1964839 72.0071636 95.1242534 76.0896863 103.98662 78.9709624 102.315017 84.573703 105.456782 88.773708 109.883763 90.067347"></polyline>
                <polyline id="Del-Norte" transform="translate(82.700172, 44.904155) rotate(-15.000000) translate(-82.700172, -44.904155) " points="58.935437 6.32309889 88.7732529 15.7145573 112.210042 22.1911666 109.63121 26.5003088 106.077951 31.1286382 100.584188 31.657775 92.8980265 38.5036443 86.7661457 66.8617815 87.4885951 69.364972 88.2110927 76.3285291 87.7490929 77.6557149 83.9690244 82.0404436 81.8773759 83.4852109 77.450426 82.1915719 74.3086841 77.9915669 75.9802746 72.3888263 67.1179714 69.5075502 53.1903014 65.4250275 54.5426449 56.3783048 54.8449872 50.2043508 54.9624595 38.0916359 54.9288474 37.0668426 54.7356275 35.7816494 54.3155994 34.3788546 56.1718631 16.5457982 58.935437 6.32309889"></polyline>
                <polyline id="Contra-Costa" transform="translate(225.118539, 462.753702) rotate(-15.000000) translate(-225.118539, -462.753702) " points="204.163995 441.27077 211.472267 445.697619 215.672409 446.915656 233.539803 451.25862 234.749442 451.384632 235.849874 451.309044 236.614292 450.813456 237.294704 449.981869 239.033609 454.753055 239.789643 455.769456 241.914918 456.643073 242.855749 456.861482 246.148651 456.937117 249.861553 455.887165 251.869201 454.627195 252.280806 453.879605 252.515996 452.359218 252.927602 451.687227 253.532417 451.384836 254.473246 451.384846 259.286602 452.250092 260.798657 453.039703 261.067469 453.384103 255.120406 482.758636 248.988225 483.438964 219.041316 484.236634 204.239898 469.015779 203.89546 466.487393 202.274156 461.413811 199.728839 457.852208 199.275222 457.591804 195.528707 457.516164 192.277781 455.130546 189.169609 448.049361 199.921913 445.697494 201.702759 444.857519 204.01281 443.051556 204.239609 442.329164 204.163995 441.27077"></polyline>
                <polyline id="Alameda" transform="translate(231.359559, 488.170413) rotate(-15.000000) translate(-231.359559, -488.170413) " points="202.319693 456.766923 206.066209 456.842563 206.519825 457.102966 209.065142 460.664569 210.686447 465.738152 211.030885 468.266538 225.832303 483.487393 255.779212 482.689723 261.911392 482.009394 258.509421 494.281672 253.847462 511.241104 254.452294 512.534702 259.072512 519.573903 258.996909 519.489903 227.57985 510.526825 226.555017 510.409214 225.681397 511.056 225.034581 511.358391 222.086094 511.736357 220.574046 511.543142 210.191289 507.989854 208.838827 506.024253 207.284737 502.126663 207.360133 483.117595 200.807726 464.108456 202.319693 456.766923"></polyline>
            </g>
        </g>
    </g>
</svg>
