<svg width="16" height="28" viewBox="0 0 16 28" fill="none" xmlns="http://www.w3.org/2000/svg">
<path d="M9 1.5C9 0.947715 8.55228 0.5 8 0.5C7.44772 0.5 7 0.947715 7 1.5L8 1.5L9 1.5ZM7.29289 27.2071C7.68342 27.5976 8.31658 27.5976 8.70711 27.2071L15.0711 20.8431C15.4616 20.4526 15.4616 19.8195 15.0711 19.4289C14.6805 19.0384 14.0474 19.0384 13.6569 19.4289L8 25.0858L2.34314 19.4289C1.95262 19.0384 1.31946 19.0384 0.928931 19.4289C0.538407 19.8195 0.538407 20.4526 0.928931 20.8431L7.29289 27.2071ZM8 1.5L7 1.5L7 26.5L8 26.5L9 26.5L9 1.5L8 1.5Z" fill="white"/>
</svg>
