<svg width="8" height="18" viewBox="0 0 8 18" fill="none" xmlns="http://www.w3.org/2000/svg">
<path d="M4.5 1C4.5 0.723858 4.27614 0.5 4 0.5C3.72386 0.5 3.5 0.723858 3.5 1L4 1L4.5 1ZM3.64645 17.3536C3.84171 17.5488 4.15829 17.5488 4.35355 17.3536L7.53553 14.1716C7.7308 13.9763 7.7308 13.6597 7.53553 13.4645C7.34027 13.2692 7.02369 13.2692 6.82843 13.4645L4 16.2929L1.17157 13.4645C0.97631 13.2692 0.659728 13.2692 0.464466 13.4645C0.269203 13.6597 0.269203 13.9763 0.464466 14.1716L3.64645 17.3536ZM4 1L3.5 1L3.5 17L4 17L4.5 17L4.5 1L4 1Z" fill="white"/>
</svg>
