<svg width="24" height="34" viewBox="0 0 24 34" fill="none" xmlns="http://www.w3.org/2000/svg">
<path d="M13.5 2C13.5 1.17157 12.8284 0.5 12 0.5C11.1716 0.5 10.5 1.17157 10.5 2L12 2L13.5 2ZM10.9393 33.0607C11.5251 33.6464 12.4749 33.6464 13.0607 33.0607L22.6066 23.5147C23.1924 22.9289 23.1924 21.9792 22.6066 21.3934C22.0208 20.8076 21.0711 20.8076 20.4853 21.3934L12 29.8787L3.51472 21.3934C2.92893 20.8076 1.97918 20.8076 1.3934 21.3934C0.807611 21.9792 0.807611 22.9289 1.3934 23.5147L10.9393 33.0607ZM12 2L10.5 2L10.5 32L12 32L13.5 32L13.5 2L12 2Z" fill="white"/>
</svg>
