<svg width="24" height="37" viewBox="0 0 24 37" fill="none" xmlns="http://www.w3.org/2000/svg">
<path d="M13.0607 0.93934C12.4749 0.353553 11.5251 0.353553 10.9393 0.93934L1.3934 10.4853C0.807612 11.0711 0.807612 12.0208 1.3934 12.6066C1.97918 13.1924 2.92893 13.1924 3.51472 12.6066L12 4.12132L20.4853 12.6066C21.0711 13.1924 22.0208 13.1924 22.6066 12.6066C23.1924 12.0208 23.1924 11.0711 22.6066 10.4853L13.0607 0.93934ZM10.9393 36.0607C11.5251 36.6464 12.4749 36.6464 13.0607 36.0607L22.6066 26.5147C23.1924 25.9289 23.1924 24.9792 22.6066 24.3934C22.0208 23.8076 21.0711 23.8076 20.4853 24.3934L12 32.8787L3.51472 24.3934C2.92893 23.8076 1.97918 23.8076 1.3934 24.3934C0.807612 24.9792 0.807612 25.9289 1.3934 26.5147L10.9393 36.0607ZM12 2H10.5V35H12H13.5V2H12Z" fill="#919191"/>
</svg>
