<svg width="16" height="27" viewBox="0 0 16 27" fill="none" xmlns="http://www.w3.org/2000/svg">
<path d="M9 26C9 26.5523 8.55228 27 8 27C7.44772 27 7 26.5523 7 26L8 26L9 26ZM7.29289 0.292894C7.68342 -0.0976307 8.31658 -0.0976308 8.70711 0.292894L15.0711 6.65685C15.4616 7.04738 15.4616 7.68054 15.0711 8.07107C14.6805 8.46159 14.0474 8.46159 13.6569 8.07107L8 2.41421L2.34314 8.07107C1.95262 8.46159 1.31946 8.46159 0.928931 8.07107C0.538407 7.68054 0.538407 7.04738 0.928931 6.65685L7.29289 0.292894ZM8 26L7 26L7 1L8 1L9 1L9 26L8 26Z" fill="white"/>
</svg>
