<svg width="24" height="34" viewBox="0 0 24 34" fill="none" xmlns="http://www.w3.org/2000/svg">
<path d="M10.5 32C10.5 32.8284 11.1716 33.5 12 33.5C12.8284 33.5 13.5 32.8284 13.5 32L12 32L10.5 32ZM13.0607 0.939341C12.4749 0.353554 11.5251 0.353554 10.9393 0.939341L1.3934 10.4853C0.807611 11.0711 0.807611 12.0208 1.3934 12.6066C1.97918 13.1924 2.92893 13.1924 3.51472 12.6066L12 4.12132L20.4853 12.6066C21.0711 13.1924 22.0208 13.1924 22.6066 12.6066C23.1924 12.0208 23.1924 11.0711 22.6066 10.4853L13.0607 0.939341ZM12 32L13.5 32L13.5 2L12 2L10.5 2L10.5 32L12 32Z" fill="white"/>
</svg>
