<?xml version="1.0" encoding="UTF-8"?>
<svg id="Layer_1" xmlns="http://www.w3.org/2000/svg" viewBox="0 0 640 360">
  <defs>
    <style>
      .cls-1, .cls-2, .cls-3, .cls-4, .cls-5, .cls-6, .cls-7, .cls-8, .cls-9, .cls-10, .cls-11, .cls-12, .cls-13, .cls-14, .cls-15, .cls-16, .cls-17, .cls-18 {
        fill: none;
      }

      .cls-1, .cls-2, .cls-3, .cls-4, .cls-5, .cls-6, .cls-7, .cls-19, .cls-9, .cls-10, .cls-11, .cls-12, .cls-20, .cls-13, .cls-14, .cls-15, .cls-16, .cls-17, .cls-18 {
        stroke: #000;
      }

      .cls-1, .cls-3, .cls-4, .cls-5, .cls-6, .cls-10, .cls-13, .cls-17 {
        stroke-linecap: round;
      }

      .cls-1, .cls-5 {
        stroke-width: .5px;
      }

      .cls-3, .cls-7, .cls-13, .cls-14, .cls-17, .cls-18 {
        stroke-width: .75px;
      }

      .cls-3, .cls-10, .cls-18 {
        stroke-linejoin: round;
      }

      .cls-4, .cls-16 {
        stroke-width: 1.16px;
      }

      .cls-5, .cls-7 {
        stroke-miterlimit: 10;
      }

      .cls-19, .cls-15 {
        stroke-width: .58px;
      }

      .cls-9 {
        stroke-width: .73px;
      }

      .cls-21, .cls-22, .cls-23 {
        isolation: isolate;
      }

      .cls-11 {
        stroke-width: 1.6px;
      }

      .cls-22 {
        font-family: Lora-Italic, Lora;
        font-style: italic;
      }

      .cls-22, .cls-23 {
        font-size: 28px;
        font-variation-settings: 'wght' 400;
      }

      .cls-12 {
        stroke-width: 1.31px;
      }

      .cls-23 {
        font-family: Lora-Regular, Lora;
      }

      .cls-20 {
        stroke-width: .57px;
      }

      .cls-17 {
        stroke-miterlimit: 2;
      }

      .cls-18 {
        stroke-linecap: square;
      }
    </style>
  </defs>
  <g id="Layer_2">
    <rect class="cls-8" x="158" y="18" width="324" height="324"/>
  </g>
  <g id="Layer_1-2" data-name="Layer_1">
    <g id="Figure">
      <path d="M365.61,186.74s.7-2.44,1.12-4.37c.23-1.06-.09-4.87-.09-4.87l2.12.44,2.96-.11s.02,1.39,1.43,1.45c1.62.07,1.68-1.24,1.68-1.24l4.16,1.26s-1.64,6.67-1.78,6.99-.52.89-.72,1.35c-.08.19-1.07-4.25-1.85-5.51-.47-.76-.54-2.35-.54-2.35,0,0-.54,2.02-2.48,3.11-3.64,2.03-6,3.86-6,3.86h0Z"/>
      <g>
        <g id="front_dress">
          <path d="M353.66,144.45c.36-.91,1.82-.5,2.41.41-.55-.55-1.24-.59-1.33-.46v.68c.14,0,.46.04.46.04-.39.11-.63.16-1.02.18-.34.02-.34-.47-.29-.86.02-.2-.23,0-.23,0h0Z"/>
        </g>
        <path d="M363.54,144.89c.48,0,.87-.32.87-.71s-.39-.71-.87-.71-.87.32-.87.71.39.71.87.71Z"/>
        <path class="cls-15" d="M353.97,142.58c-.07-.51,1.09-.36,1.73.29"/>
        <line class="cls-14" x1="365.89" y1="141.72" x2="364.59" y2="143.45"/>
        <line class="cls-14" x1="367.41" y1="142.87" x2="366.18" y2="144.82"/>
        <g>
          <path class="cls-14" d="M368.1,172.48c-1.18,2.21-3.05,9.71-2.91,12.02s.5,5.05.2,5.35c-.14.14-.12.29-1.73.15-4.77-.43-8.24,2.31-9.25,2.02-1.01-.29-3.01-2.96-3.15-3.4-.14-.43-.75-2.09-.75-3.54s-3.25-6-3.76-6.65c-1.55-2-.65-3.61-.36-4.33.21-.54.58-1.23,1.66-2.96,1.85-2.97,5.64-8.74,5.64-8.74,0,0,1.99-1.68,2.23-2"/>
          <path class="cls-9" d="M330.12,124.09c-.14-1.01-1.59-2.17-2.17-2.75-.58-.58,2.46.43,2.46.43l-.15,4.62s.72.29,1.45.58c0-.87,1.88-4.62,2.89-5.64,0,0-3.32-7.22-4.04-10.11,0,2.02-.15,8.67-.15,8.67"/>
          <path class="cls-14" d="M351.94,140.21s4.06-.38,7.38,2.51"/>
          <line class="cls-14" x1="357.95" y1="136.44" x2="356.43" y2="138.61"/>
          <line class="cls-14" x1="361.12" y1="137.89" x2="359.75" y2="139.77"/>
          <line class="cls-14" x1="362.71" y1="139.12" x2="361.34" y2="140.63"/>
          <line class="cls-14" x1="368.93" y1="143.89" x2="367.77" y2="146.13"/>
          <path class="cls-14" d="M364.74,125.24c-2.96-1.16-5.71-1.3-7.59-.29l-1.59-7.52c0-2.17,2.6-3.18,2.75-1.44.14,1.73,0,5.78,0,5.78"/>
          <path class="cls-14" d="M358.31,116c.43-1.16,2.75-1.73,2.75,0s-.15,5.64-.15,5.64"/>
          <path class="cls-14" d="M361.05,116c.58-1.01,2.75-1.88,2.75,0s-.72,5.78-.72,5.78"/>
          <path class="cls-14" d="M363.8,116c.87-1.3,3.35-.9,2.89.72-.56,1.94-2.02,5.35-2.02,5.35"/>
          <path class="cls-14" d="M366.86,115.97c1.23-1.23,3.44.03,2.57,1.76-.87,1.73-2.6,5.35-2.6,5.35"/>
          <path class="cls-14" d="M369.58,117.15c.57-1.32,3.33.29,2.17,1.73-1.16,1.44-3.47,5.06-3.47,5.06"/>
          <path class="cls-14" d="M371.98,117.96c.43-1.16,3.07.37,1.79,1.93-1.04,1.28-4.05,5.06-4.05,5.06"/>
          <path class="cls-14" d="M373.77,119.89c1.56-2.16,2.89-.14,1.59,1.16-1.3,1.3-4.48,5.2-4.48,5.2"/>
          <path class="cls-14" d="M375.49,120.91c1.4-1.39,2.9.43.74,2.17s-4.77,4.19-4.77,4.19"/>
          <path class="cls-14" d="M376.23,123.07c1.01-.87,3.76.58,1.45,2.02s-5.35,3.18-5.35,3.18"/>
          <path class="cls-14" d="M378.1,124.81c.72-.58,2.89,1.59,0,2.75-2.89,1.16-5.35,2.31-5.35,2.31"/>
          <path class="cls-14" d="M378.54,127.35c1.49-.55,2.89,1.94,1.01,2.37s-6.65,1.59-6.65,1.59"/>
          <path class="cls-14" d="M379.55,129.72c.87-.29,1.88,2.6-.87,2.6s-5.06.72-5.06.72"/>
          <path class="cls-14" d="M379.09,132.3c1.82-.11,2.48,2.34-.12,2.34s-5.2-.14-5.2-.14"/>
          <path class="cls-14" d="M379.41,134.64c1.65.02,2.17,2.31-.43,2.17s-4.77-.58-4.77-.58"/>
          <path class="cls-14" d="M378.83,138.54c1.16,0,1.3,2.6-.29,2.02-1.59-.58-3.18-1.3-3.61-1.59"/>
          <path class="cls-14" d="M378.54,140.56c.87.29.43,2.6-1.73,1.44"/>
          <path class="cls-14" d="M367.99,199.09c1.01-.14,2.75-.58,3.32-1.3.58-.72,2.89-6.79,3.47-7.66.58-.87,1.32-2.09,1.45-2.75,0-.75-.32-1.97-.57-2.88-.15-.58-1.31-3.76-1.89-4.63-.43.87-1.74,3.18-3.18,3.9-.58.29-4.21.91-5.11,4.57"/>
          <path class="cls-7" d="M353.68,162.38l-5.93,9.54c1.16-.58,5.06-.14,7.8,1.73,1.01-1.45,6.21-1.01,7.52-1.16s1.59,1.74,2.6-2.31c1.01-4.05,4.91-8.82,5.64-9.25,1.09-.65-1.03-1.64-2.75-1.01-1.37.51-3.61,5.35-3.9,5.93-.29.58-.43,2.46-1.59,2.75-1.16.29-3.76-.14-5.49,0-1.73.15-3.76.29-4.19-1.45s1.3-2.89,2.46-4.77l.07-1.96-2.23,1.96h0Z"/>
          <path class="cls-14" d="M344.28,171.13s-6.77,8.47-7.79,8.31c-1.83-.28-5.22-6.79-5.22-6.79l.74,14.74c.58.72,2.02,3.32,3.18,3.18,1.16-.15,10.29-6.29,10.87-6.72-2.47-5.32-1.77-12.71-1.77-12.71h0Z"/>
          <path class="cls-14" d="M329.11,148.73c-.95,1.72-3.9,8.09-4.7,11.49-.79,3.4-.94,6.14,0,7.52s1.02,1.8,1.08,2.24c.72,5.42,2.76,12.06,4.37,14.32.53-4.89-.18-15.55-.18-15.55l-.65-.22s.29-.07.51-.65c.22-.58.36-3.83.36-3.83,0,0,.24-3.26,1.23-3.54.34-.1.63.02.87.36.36.51,1.08.22,1.16-.14s.22-1.88-.36-2.24c-.49-.31-1.01-1.52-2.75.43,1.44-1.03,2.27-.85,3.18-.43,0,0,.65-1.08-.15-1.59s-2.24-1.08-2.96-.51c-.72.58-1.15,1.01-1.15,1.01,0,0,.94-1.66,2.38-1.23,1.45.43,1.66.58,1.66,0,0-.22-.57-1.09-1.23-1.37-.51-.21-1.73-.58-3.47.87,1.37-2.17.94-3.04,1.44-3.76.51-.72.8-1.52.8-1.88s.07-1.08-.44-1.37c-.51-.29-.22-.36-.22-.58s-.14-.58-.14-.58c0,0-.29.58-.65,1.23h0Z"/>
        </g>
        <path class="cls-19" d="M329.69,132.47s-4.79-2.66-1.01-5.06c1.28-.81,3.8-1.14,4.62,2.17.29,1.16-.58,2.31-1.16,2.75-.15.58,0,20.52,0,20.52,0,0,1.08.95,1.37,2.1.29,1.16.9,1.82.61,2.68s.62,3.6-.82,4.46-.87.87-.87.87v37.72l-.87.59-.43-40.44s1.47.6,1.83.29c.37-.31.18-2.26.18-2.26,0,0,.25-.37.37-1.1.12-.73-.67-.98-.67-.98l-.25-1.29-1.47-.98v-21.61l-.72-1.16s.76-.24,1.16-.58c.87-.72.87-2.31-.15-3.04,0,0-2.18-1.17-3.04.29-1.01,1.73,1.3,4.05,1.3,4.05h0Z"/>
        <path class="cls-14" d="M372.18,177.41c-.29,1.01.29,1.73,1.16,1.73s1.3-1.16,1.3-1.16"/>
        <path class="cls-14" d="M353.83,135.79c3.61-.29,6.5,1.44,7.8,2.46s7.66,6.07,8.24,6.36"/>
        <g>
          <path d="M362.35,149.67c.58-.29.87-1.01.73-1.59-.73,0-2.17.15-2.89-.72-.72-.87-1.01-2.31-.87-3.04.14-.72-.87-1.73-.87-1.73,0,0-.87-.87.72-.29.95.35,4.48.58,4.48.58l1.3,1.3s-.72,1.01-.43,1.44c.29.43,0,2.89-.29,4.05s2.89,8.81,5.78,8.6c.19.19.27.39.35.53.13.23-.02.36-.43.63-.35.23-3.83,1.37-5.27.65-1.45-.72-3.33-3.07-2.6-3.18.94-.14,2.6.14,1.3-.87-1.3-1.01-2.17-2.46-2.17-3.76s-.87-2.17-.87-2.17"/>
          <path d="M366.9,130.3c-1.01-.43-3.68-1.3-5.78-.65.36-1.08-.22-1.37-.79-.94-.58.43-2.46,1.23-1.52-.43.94-1.66,1.59-2.53,1.44-3.32-.14-.79.65-.79,1.09-.36.43.43,1.95,2.96,2.38,2.96s.51-1.52,1.01-2.31c.51-.79,1.88-.51,2.96.58s2.6,3.4,3.61,3.9c1.01.51.58,2.46-.79,1.73s-2.6-1.73-2.82-2.46-1.01-.14-.65.94c.36,1.08-.15.36-.15.36h0Z"/>
          <path d="M343.02,204.41c-1.43.67-3.7,3.29-4.3,4.29-.25.41-.78.62-1.19.8-.66.3-1.47-.32-2.1-.12-.44.14-1.61.4-1.74.3-.41-.3-.66-1.2-.66-1.2-.21-.2-.86.43-1.23.34-.69-.18-.8-1.38-1.52-1.05-3.76,1.73-10.55,10.55-11.13,20.09,0,0-5.06,2.31-7.08,3.18,1.16-.58-.45-10.48,1.3-17.49.72-2.89,2.75-4,5.06-5.35,2.31-1.35,11.12-6.08,11.42-6.21,1.59-.72,3.64-1.69,4.62-2.02.43-.14,2.6-.98,2.6-.98l-.47,1.08s-2.12,1.05-2.85,2.07-3.32,3.32-3.18,4.19c.14.87,5.1-3.94,5.1-3.94-.24.97-4.72,4.84-3.23,5.53.71.33,4.56-4.44,4.56-4.44.15.43-4.35,4.84-2.25,5.09.77.09,2.67-3.4,4.7-4.91-2.02,2.17-2.75,4.12-2.46,4.55.29.43.58.43.94-.07.36-.51,1.74-2.51,2.38-3.03.79-.65,1.28-1.09,1.99-1.24,0,0,1.79.05.71.56h0ZM320.13,209.58c-1.16.12-3.73,2.14-3.73,2.14l2.94,4.65-2.08-4.35s3.61,1.9,2.94,1.1c-.67-.79-2.39-1.53-2.39-1.53,0,0,3.49-2.14,2.33-2.02h0ZM315.48,216.44s1.65,3.49,1.77,2.94c.09-.38-2.2-5.88-2.2-5.88,0,0-1.59,10.52-1.23,10.77.37.24,1.65-7.83,1.65-7.83h0ZM324.65,207.69l3.98-3.24c-1.84.67-5.49,3.67-5.49,3.67l1.51-.43h0Z"/>
          <g>
            <path d="M380.03,203.9c.26-.83.54-1.56.82-2.06-.23.14-.54.99-.82,2.06Z"/>
            <path d="M377.63,222.49l-.05.07c0,.18.07-.03.05-.07Z"/>
          </g>
          <path class="cls-13" d="M367.31,175.69c-.77.46-.77,1.58-.05,2.01.72.43,4.62.15,4.91-.29s.58-.87,1.73-.72c1.16.15.72,1.3.72,1.3,0,0,1.73.29,3.32,1.01,1.59.72,3.31-.82,2.01-2.13s-11.89-1.65-12.66-1.19h0Z"/>
          <path class="cls-20" d="M346.61,165.87c3.52-2.85,8.82-5.23,9.05-5.03.19.17-3.4,2.16-6.42,6.17-2.34,3.11-4.51,6.84-4.51,8.93s3.18,4.42,3.87,7.52c.59,2.66,1.87,7.38-.07,9.15-1.71,1.56-4.62,2.42-5.78,3.58-.57.57-3.18,1.45-2.9,2.24s6.65-2.82,8.71-3.98c2.05-1.15,1.2.07,1.27-1.37.04-.9,1.58-2.96,1.44-4.48,0,0,.61,1.09,1.89,1.81,1.27.72.99,1.3,1.49,1.59s.92,0,4.04-1.3c3.12-1.3,5.81-.36,5.81-.36,0,0-6.02,2.53-6.87,2.96-1.09.55-8.21,3.76-8.78,3.76s-9.06,1.59-9.77,1.88c-.71.29-3.59,1.29-3.59,1.29,0,0,10.76-8.02,10.76-12.9-.96-5.04-2.14-9.44-2.02-12.65.22-6.06,1.58-8.15,2.41-8.82h0Z"/>
          <line class="cls-14" x1="356.14" y1="135.94" x2="354.76" y2="138.1"/>
        </g>
      </g>
      <path class="cls-9" d="M330.56,111.22s-3.61,8.67-4.62,10.11c.72.87,3.04,3.76,2.75,5.64"/>
      <line class="cls-14" x1="329.69" y1="132.47" x2="329.69" y2="143.16"/>
      <line class="cls-13" x1="329.98" y1="203.71" x2="329.76" y2="184.29"/>
      <path class="cls-14" d="M352.52,137.96c2.02,0,6.07,1.01,8.53,2.6,2.46,1.59,6.07,5.78,7.95,6.36"/>
      <line class="cls-14" x1="359.68" y1="137.02" x2="358.02" y2="138.97"/>
      <line class="cls-14" x1="364.23" y1="140.42" x2="363.08" y2="142.01"/>
      <path class="cls-14" d="M356.57,122.35c1.73-.58,6.07-1.73,10.98,1.3,4.18,2.58,4.77,5.49,5.2,6.94s1.16,5.78,1.59,7.08c.43,1.3.87,2.46,2.17,3.61s-1.16,1.59-2.46-.29-2.44-3.86-2.44-3.86"/>
      <path class="cls-14" d="M379.41,136.8c.72.14,1.88,2.02-.58,1.73s-4.48-.87-4.48-.87"/>
      <path class="cls-18" d="M355.48,162.01c.58-1.85,1.41-7.46,1.33-7.51-.09-.07-.28-.03-.41.01-1.38.47-2.12,1.02-3.49,1.22s-1.49-.78-1.56-2.19c-.03-.53.02-.96-.09-1.5-.05-.22-.24-.24-.22-.52.38-.31,1.73-.42,1.73-.42,0,0-2.06-.17-1.87-.52.23-.43.89-1.8.63-1.8s-1.13.04-1.71-.2c-.63-.26.37-1.61.77-2.2.49-.67.86-1.49,1.21-2.25.25-.53.36-1.17.36-1.76,0-.85-.16-1.69-.29-2.86,1.19.21,2.31.15,3.16.6,1.93,1,3.74,2.25,5.6,3.41-.88,1.29-1.35,2.44-.38,3.79.16.23-.05.8-.21,1.16-.62,1.35-.3,2.66.69,3.37-.06,1.18-.28,2.25-.11,3.25.2,1.22,1.2,1.88,2.41,2.07"/>
      <path class="cls-14" d="M342.05,204.32c1.05-.47,6.41-2.6,8.02-2.34,2.13.15,6.46.79,7.55.37"/>
      <g>
        <path class="cls-8" d="M373.79,234.3c.24-.98,1.35-1.47,1.71-2.33.37-.98,1.23-1.59,1.47-2.45.12-.86,0-1.71.37-2.45.24-.61.39-4.02.86-3.18,1.91,3.45,1.22,1.81,1.59,3.67,0,0,.24-1.96.37-1.96-.12-.98.12-1.71,0-2.69-.12-.37-1.59-1.1-2.08-.98l-.44.55s-.02,0-.05.07c-.73.98-1.1,3.3-1.71,4.4-.37.86,0,1.71-.24,2.57-.12.37-.61.61-.86.98-.49,1.1-1.71,1.47-1.96,2.45-.24,1.23-.49,2.33-.73,3.55-.12.98-.73,1.59-1.1,2.69-.23,1.4,0,4.19,0,4.77.12,0,.73-.61.86-.61-.12-.37.24-2.69.24-2.69.49-3.06.98-2.57,1.35-4.16.24-.73.12-1.47.37-2.2h0Z"/>
        <path class="cls-8" d="M374.05,219.55c.25-.24-.02-1.89-.02-2.38l-.18-.04c.12.73.07,1.09-.52,1.54-1.1.86-1.49-3.64-3.22,3.27-.37,1.1-.73,2.81-.86,4.04.12-1.1.52-.46,1.35-2.69.62-.65.02-1.17.61-2.94.61-1.1,2.1.18,2.84-.8h0Z"/>
        <path class="cls-8" d="M368.98,206.01c-.3.46-.63.94-.99,1.46,0,0,.22.1.54.23l.3-1.17c.04-.18.1-.35.15-.52Z"/>
        <path class="cls-8" d="M383.82,218.27c-.37-.61.12-1.47-.25-2.2,0,1.22-.85,2.2-1.35,3.3-.12.37-.37.98-.73.98-2.45.12-1.1-3.55-1.47-5.26-.86.24-1.47.98-2.08,1.59-.37.37-.24.98-.24,1.59l.24.73v.12c.25,0,.25-.24.37-.37,0-.85.37-1.59.98-.98.24.24,0,.98.37,1.47.61.73.37,1.84.98,2.45.12.12.49,0,.61,0,.98-.49.98-1.84,1.71-2.32.61-.49.86.24,1.23.73.12,0,.49,0,.49.12.25,1.59.25,3.06,0,4.65-.12.61-.37,1.1-.61,1.71-.12.12-.37.25-.49.37-.49,1.59-1.96,2.33-3.18,3.3-.73.61-1.71,1.1-2.08,1.96-.73,1.47-.49,3.43-1.22,5.14-.12.61-.37,1.1-.49,1.71-.61,1.35-.49,2.81-1.1,4.16-.61,1.1-1.59,1.84-2.08,2.94-.24.49-.12,1.23-.12,1.84,1.35-.61,1.71-1.96,2.08-3.18,1.84-2.45,2.33,2.82,2.82,3.67.37-.94-.1-1.89.24-2.94.49-1.47-1.47-4.04-.86-6,.25-1.23,1.23-2.33,1.59-3.43.49-1.59.12-2.94,1.23-4.28,1.71-2.32,4.04-3.91,5.51-6.48.73-1.23.98-2.94,0-4.28-.73-.98-1.59-1.84-2.08-2.81h0Z"/>
        <path d="M372.76,161.93c1.1.21-.31-1.27-1.39-1.05-.65.13-2.04,1.46-3.93,3.96-1.14,1.51-1.7,3.08-2.3,4.86-.29.85-.59,1.73-1.18,2.41-2.51.2-5.01.54-7.49,1.02-.28.05-.58.11-.86.03-.29-.08-.52-.3-.76-.5-2.74-2.3-7.61-1.79-8.86,1.85-.14.4-.23.84-.19,1.26.06.62.38,1.18.7,1.71.9,1.5,1.79,3.01,2.69,4.51,1,1.68,1.46,3.74,2.08,5.53,5.08,2.01,7.11,2.11,12.95.47h0c.15.03.6-.35.6-.35.35-.58.43-1.7.3-2.26-.64-2.66.37-5.14,1-8.06.19-.91.95-1.49.61-2.71-.04-.14-.06-.29-.02-.43-.82.89-2.3,1.27-2.5-.5.35.69,1.96.78,2.5.5.23-.95.33-1.92.62-2.86,1.22-3.94,4.36-9.59,5.46-9.38h0ZM362.29,175.18c-.73,1.42-2.03,1.29-2.23-.49.35.7,1.72.63,2.23.49ZM350.91,174.97c.35.7,1.9.92,2.5.46-.1,1.04-2.15,1.51-2.42,0-.24,1.02-2.26,1.56-2.45-.22.35.7,1.74.41,2.45.22-.01-.07-.07-.38-.08-.46h0ZM353.18,177.22c-.82.9-2.03,1.29-2.23-.49.57.48,1.49.68,2.23.49ZM353.18,178.76c-.82.9-2.03,1.29-2.23-.49.63.63,1.45.67,2.23.49ZM353.18,180.31c-.82.9-2.03,1.29-2.23-.49.35.7,1.41.7,2.23.49ZM354.97,183.25c-.35-.09-.63-.45-.72-1.22.35.7,2.39.31,2.46.22-.36.46-.6.94-1.73,1.01-.41.73-2.24,1.51-2.44-.26.35.7,2.01.36,2.42.26h0ZM359.13,178.65c-.82.9-2.03,1.29-2.23-.49.35.7,1.45.63,2.23.49ZM356.9,176.87c.35.7,1.52.63,2.23.49-.82.9-2.03,1.29-2.23-.49ZM358.82,180.38c-.82.9-2.03,1.29-2.23-.49.35.7,2.36.42,2.23.49ZM354.35,176.79c.35.7,1.23.62,2.23.49-.58.88-2.03,1.29-2.23-.49ZM356,178.86c-.82.9-2.03,1.29-2.23-.49.35.7,1.49.7,2.23.49ZM356,180.38c-.82.9-2.03,1.29-2.23-.49.35.7,1.59.66,2.23.49ZM358.78,184.08c-.38.83-2.26,1.56-2.46-.22.35.7,2.39.31,2.46.22ZM357.82,182.37c.35.7,2.39.31,2.46.22-.42,1.06-2.26,1.56-2.46-.22ZM359.86,180.54c.35.7,1.41.6,2.23.49-.82.9-2.03,1.29-2.23-.49ZM362.09,179.01c-.82.9-2.03,1.29-2.23-.49.35.7,1.4.69,2.23.49ZM359.86,176.87c.35.7,1.56.66,2.23.49-.82.9-2.03,1.29-2.23-.49ZM363.32,183.15c-.82.9-2.03,1.29-2.23-.49.35.69,1.49.72,2.23.49ZM360.05,174.17c-.64,1.07-2.03,1.28-2.23-.49.35.69,1.63.62,2.23.49ZM358.11,174.59c-.24.26-.51.48-.78.62.46.55,1.56.52,2.11.35-.79.87-1.94,1.25-2.2-.31-.63.26-1.23.05-1.36-1.15.35.7,2.36.42,2.23.49h0ZM356.81,175.43c-.18,1.25-2.26,1.56-2.46-.22.35.7,1.97.73,2.46.22ZM354.54,174.3c-.34,1.02-2.26,1.56-2.46-.22.35.7,2.01.4,2.46.22ZM349.23,173.67c-.01-.07-.03-.14-.04-.22.35.7,1.6.63,2.23.49-.51,1.05-1.92,1.24-2.2-.27-.25.95-2.26,1.56-2.45-.22.27.1,1.38.75,2.45.22h0ZM348.33,176.67c-1.34,1.31-2,.69-1.85-.33.59.53,1.28.6,1.85.33ZM348.38,177.63c.77.53,1.51.79,2.37.57-.82.9-2.17,1.21-2.37-.57ZM349.65,181.12c.35.69,2.1.63,2.23.49-.82.9-2.03,1.29-2.23-.49ZM351.04,184.49c.35.7,1.95.62,2.23.49-.82.9-2.03,1.29-2.23-.49ZM360.02,187.8c-.49-.19-.74-.7-.81-1.27.35.7,1.51.65,2.23.49-.23.25-.93.96-1.42.77ZM362.59,177.36c.35.7,1.7.78,2.23.49-.49.98-2.03,1.29-2.23-.49ZM365.19,175.26c-.23,1.35-2.26,1.56-2.46-.22.76.7,1.7.79,2.46.22Z"/>
        <g>
          <path class="cls-8" d="M380.56,209.38c.01.08.03.16.05.24.02.08.04.15.07.23.02.06.05.12.07.17.04.08.07.16.11.23.08.12.16.24.27.35,1.25,1.25,2.32,1.31,2.32.19,0-1.01-.48-.48-1.22-1-.08-.06-.17-.12-.26-.21-.24-.24-.42-.56-.57-.91-.42-.97-.56-2.13-.56-2.13,0,0-.37,1.09-.35,2.22,0,.15.02.3.03.45,0,.06.02.12.03.19h0Z"/>
          <path class="cls-8" d="M376.83,208.38v-4.96s-1.06,2.96-1.06,5.53c0,.86-.05,1.76-.08,2.56,0,.12,0,.23,0,.34-.03,1.42.08,2.43.85,2.07,1.15-.53,3.05-1.49,2.27-2.3-.07-.07-.14-.13-.25-.2-.21-.13-.39-.26-.55-.4-.9-.73-1.18-1.55-1.18-2.64h0Z"/>
          <path class="cls-8" d="M369.98,208.24c.01-.15.03-.29.04-.44l-.02-.43c-.05-1.2.3-2.93.92-4.59.1-.26.2-.52.31-.77h0l.46-1.22-.82,1.12c-.73,1-1.43,2.53-1.89,4.11-.05.17-.1.35-.15.52l-.3,1.17-.03.1c-.06.25-.12.49-.17.73l-.24,1.16-.82,3.96c-.15.72-.23,1.39-.23,1.95v.57s.7-1.05.7-1.05c1.09-2.39,1.68-3.88,1.99-5.29.12-.53.2-1.04.24-1.59h0Z"/>
          <path class="cls-8" d="M373.79,234.3c.24-.98,1.35-1.47,1.71-2.33.37-.98,1.23-1.59,1.47-2.45.12-.86,0-1.71.37-2.45.24-.61.39-4.02.86-3.18,1.91,3.45,1.22,1.81,1.59,3.67,0,0,.24-1.96.37-1.96-.12-.98.12-1.71,0-2.69-.12-.37-1.59-1.1-2.08-.98l-.44.55s-.02,0-.05.07c-.73.98-1.1,3.3-1.71,4.4-.37.86,0,1.71-.24,2.57-.12.37-.61.61-.86.98-.49,1.1-1.71,1.47-1.96,2.45-.24,1.23-.49,2.33-.73,3.55-.12.98-.73,1.59-1.1,2.69-.23,1.4,0,4.19,0,4.77.12,0,.73-.61.86-.61-.12-.37.24-2.69.24-2.69.49-3.06.98-2.57,1.35-4.16.24-.73.12-1.47.37-2.2h0Z"/>
          <path class="cls-8" d="M383.82,218.27c-.37-.61.12-1.47-.25-2.2,0,1.22-.85,2.2-1.35,3.3-.12.37-.37.98-.73.98-2.45.12-1.1-3.55-1.47-5.26-.86.24-1.47.98-2.08,1.59-.37.37-.24.98-.24,1.59l.24.73v.12c.25,0,.25-.24.37-.37,0-.85.37-1.59.98-.98.24.24,0,.98.37,1.47.61.73.37,1.84.98,2.45.12.12.49,0,.61,0,.98-.49.98-1.84,1.71-2.32.61-.49.86.24,1.23.73.12,0,.49,0,.49.12.25,1.59.25,3.06,0,4.65-.12.61-.37,1.1-.61,1.71-.12.12-.37.25-.49.37-.49,1.59-1.96,2.33-3.18,3.3-.73.61-1.71,1.1-2.08,1.96-.73,1.47-.49,3.43-1.22,5.14-.12.61-.37,1.1-.49,1.71-.61,1.35-.49,2.81-1.1,4.16-.61,1.1-1.59,1.84-2.08,2.94-.24.49-.12,1.23-.12,1.84,1.35-.61,1.71-1.96,2.08-3.18,1.84-2.45,2.33,2.82,2.82,3.67.37-.94-.1-1.89.24-2.94.49-1.47-1.47-4.04-.86-6,.25-1.23,1.23-2.33,1.59-3.43.49-1.59.12-2.94,1.23-4.28,1.71-2.32,4.04-3.91,5.51-6.48.73-1.23.98-2.94,0-4.28-.73-.98-1.59-1.84-2.08-2.81h0Z"/>
          <path class="cls-8" d="M374.05,219.55c.25-.24-.02-1.89-.02-2.38l-.18-.04c.12.73.07,1.09-.52,1.54-1.1.86-1.49-3.64-3.22,3.27-.37,1.1-.73,2.81-.86,4.04.12-1.1.52-.46,1.35-2.69.62-.65.02-1.17.61-2.94.61-1.1,2.1.18,2.84-.8h0Z"/>
          <g>
            <path class="cls-8" d="M380.56,209.38c.01.08.03.16.05.24.02.08.04.15.07.23.02.06.05.12.07.17.04.08.07.16.11.23.08.12.16.24.27.35,1.25,1.25,2.32,1.31,2.32.19,0-1.01-.48-.48-1.22-1-.08-.06-.17-.12-.26-.21-.24-.24-.42-.56-.57-.91-.42-.97-.56-2.13-.56-2.13,0,0-.37,1.09-.35,2.22,0,.15.02.3.03.45,0,.06.02.12.03.19h0Z"/>
            <path class="cls-8" d="M369.98,208.24c.01-.15.03-.29.04-.44l-.02-.43c-.05-1.2.3-2.93.92-4.59.1-.26.2-.52.31-.77h0l.46-1.22-.82,1.12c-.73,1-1.43,2.53-1.89,4.11-.05.17-.1.35-.15.52l-.3,1.17-.03.1c-.06.25-.12.49-.17.73l-.24,1.16-.82,3.96c-.15.72-.23,1.39-.23,1.95v.57s.7-1.05.7-1.05c1.09-2.39,1.68-3.88,1.99-5.29.12-.53.2-1.04.24-1.59h0Z"/>
            <path class="cls-8" d="M380.57,181.51l-.45,8.61-1.14,5.32-.43,4.72,1.92-1.06,2.32,1.06,3.21,8.45c.11,0,.22,0,.33,0,.71,0-.07-1.29-.57-2.8-.4-1.2-1.01-2.65-1.1-3.24.08.08.19.17.39.3,1.07.65-1.5-3.45-2.28-4.46-.78-1.01-.5-2.01-1.28-1.08-1.18,1.4-2.54-.48-1.4-3,.57-1.26.82-4.79.93-8.37.11-3.56.07-7.16.07-8.63,0-.92-.02-2-.06-3.07l-.16.64-.28,6.61h0Z"/>
            <path class="cls-8" d="M376.83,208.38v-4.96s-1.06,2.96-1.06,5.53c0,.86-.05,1.76-.08,2.56,0,.12,0,.23,0,.34-.03,1.42.08,2.43.85,2.07,1.15-.53,3.05-1.49,2.27-2.3-.07-.07-.14-.13-.25-.2-.21-.13-.39-.26-.55-.4-.9-.73-1.18-1.55-1.18-2.64h0Z"/>
            <path class="cls-8" d="M374.05,219.55c.25-.24-.02-1.89-.02-2.38l-.18-.04c.12.73.07,1.09-.52,1.54-1.1.86-1.49-3.64-3.22,3.27-.37,1.1-.73,2.81-.86,4.04.12-1.1.52-.46,1.35-2.69.62-.65.02-1.17.61-2.94.61-1.1,2.1.18,2.84-.8h0Z"/>
            <path class="cls-8" d="M383.82,218.27c-.37-.61.12-1.47-.25-2.2,0,1.22-.85,2.2-1.35,3.3-.12.37-.37.98-.73.98-2.45.12-1.1-3.55-1.47-5.26-.86.24-1.47.98-2.08,1.59-.37.37-.24.98-.24,1.59l.24.73v.12c.25,0,.25-.24.37-.37,0-.85.37-1.59.98-.98.24.24,0,.98.37,1.47.61.73.37,1.84.98,2.45.12.12.49,0,.61,0,.98-.49.98-1.84,1.71-2.32.61-.49.86.24,1.23.73.12,0,.49,0,.49.12.25,1.59.25,3.06,0,4.65-.12.61-.37,1.1-.61,1.71-.12.12-.37.25-.49.37-.49,1.59-1.96,2.33-3.18,3.3-.73.61-1.71,1.1-2.08,1.96-.73,1.47-.49,3.43-1.22,5.14-.12.61-.37,1.1-.49,1.71-.61,1.35-.49,2.81-1.1,4.16-.61,1.1-1.59,1.84-2.08,2.94-.24.49-.12,1.23-.12,1.84,1.35-.61,1.71-1.96,2.08-3.18,1.84-2.45,2.33,2.82,2.82,3.67.37-.94-.1-1.89.24-2.94.49-1.47-1.47-4.04-.86-6,.25-1.23,1.23-2.33,1.59-3.43.49-1.59.12-2.94,1.23-4.28,1.71-2.32,4.04-3.91,5.51-6.48.73-1.23.98-2.94,0-4.28-.73-.98-1.59-1.84-2.08-2.81h0Z"/>
            <path class="cls-8" d="M373.79,234.3c.24-.98,1.35-1.47,1.71-2.33.37-.98,1.23-1.59,1.47-2.45.12-.86,0-1.71.37-2.45.24-.61.39-4.02.86-3.18,1.91,3.45,1.22,1.81,1.59,3.67,0,0,.24-1.96.37-1.96-.12-.98.12-1.71,0-2.69-.12-.37-1.59-1.1-2.08-.98l-.44.55s-.02,0-.05.07c-.73.98-1.1,3.3-1.71,4.4-.37.86,0,1.71-.24,2.57-.12.37-.61.61-.86.98-.49,1.1-1.71,1.47-1.96,2.45-.24,1.23-.49,2.33-.73,3.55-.12.98-.73,1.59-1.1,2.69-.23,1.4,0,4.19,0,4.77.12,0,.73-.61.86-.61-.12-.37.24-2.69.24-2.69.49-3.06.98-2.57,1.35-4.16.24-.73.12-1.47.37-2.2h0Z"/>
            <g>
              <path class="cls-8" d="M376.83,208.38v-4.96s-1.06,2.96-1.06,5.53c0,.86-.05,1.76-.08,2.56,0,.12,0,.23,0,.34-.03,1.42.08,2.43.85,2.07,1.15-.53,3.05-1.49,2.27-2.3-.07-.07-.14-.13-.25-.2-.21-.13-.39-.26-.55-.4-.9-.73-1.18-1.55-1.18-2.64h0Z"/>
              <path class="cls-8" d="M380.57,181.51l-.45,8.61-1.14,5.32-.43,4.72,1.92-1.06,2.32,1.06,3.21,8.45c.11,0,.22,0,.33,0,.71,0-.07-1.29-.57-2.8-.4-1.2-1.01-2.65-1.1-3.24.08.08.19.17.39.3,1.07.65-1.5-3.45-2.28-4.46-.78-1.01-.5-2.01-1.28-1.08-1.18,1.4-2.54-.48-1.4-3,.57-1.26.82-4.79.93-8.37.11-3.56.07-7.16.07-8.63,0-.92-.02-2-.06-3.07l-.16.64-.28,6.61h0Z"/>
              <path class="cls-8" d="M380.56,209.38c.01.08.03.16.05.24.02.08.04.15.07.23.02.06.05.12.07.17.04.08.07.16.11.23.08.12.16.24.27.35,1.25,1.25,2.32,1.31,2.32.19,0-1.01-.48-.48-1.22-1-.08-.06-.17-.12-.26-.21-.24-.24-.42-.56-.57-.91-.42-.97-.56-2.13-.56-2.13,0,0-.37,1.09-.35,2.22,0,.15.02.3.03.45,0,.06.02.12.03.19h0Z"/>
              <path class="cls-8" d="M369.98,208.24c.01-.15.03-.29.04-.44l-.02-.43c-.05-1.2.3-2.93.92-4.59.1-.26.2-.52.31-.77h0l.46-1.22-.82,1.12c-.73,1-1.43,2.53-1.89,4.11-.05.17-.1.35-.15.52l-.3,1.17-.03.1c-.06.25-.12.49-.17.73l-.24,1.16-.82,3.96c-.15.72-.23,1.39-.23,1.95v.57s.7-1.05.7-1.05c1.09-2.39,1.68-3.88,1.99-5.29.12-.53.2-1.04.24-1.59h0Z"/>
              <path class="cls-8" d="M383.82,218.27c-.37-.61.12-1.47-.25-2.2,0,1.22-.85,2.2-1.35,3.3-.12.37-.37.98-.73.98-2.45.12-1.1-3.55-1.47-5.26-.86.24-1.47.98-2.08,1.59-.37.37-.24.98-.24,1.59l.24.73v.12c.25,0,.25-.24.37-.37,0-.85.37-1.59.98-.98.24.24,0,.98.37,1.47.61.73.37,1.84.98,2.45.12.12.49,0,.61,0,.98-.49.98-1.84,1.71-2.32.61-.49.86.24,1.23.73.12,0,.49,0,.49.12.25,1.59.25,3.06,0,4.65-.12.61-.37,1.1-.61,1.71-.12.12-.37.25-.49.37-.49,1.59-1.96,2.33-3.18,3.3-.73.61-1.71,1.1-2.08,1.96-.73,1.47-.49,3.43-1.22,5.14-.12.61-.37,1.1-.49,1.71-.61,1.35-.49,2.81-1.1,4.16-.61,1.1-1.59,1.84-2.08,2.94-.24.49-.12,1.23-.12,1.84,1.35-.61,1.71-1.96,2.08-3.18,1.84-2.45,2.33,2.82,2.82,3.67.37-.94-.1-1.89.24-2.94.49-1.47-1.47-4.04-.86-6,.25-1.23,1.23-2.33,1.59-3.43.49-1.59.12-2.94,1.23-4.28,1.71-2.32,4.04-3.91,5.51-6.48.73-1.23.98-2.94,0-4.28-.73-.98-1.59-1.84-2.08-2.81h0Z"/>
              <path class="cls-8" d="M374.05,219.55c.25-.24-.02-1.89-.02-2.38l-.18-.04c.12.73.07,1.09-.52,1.54-1.1.86-1.49-3.64-3.22,3.27-.37,1.1-.73,2.81-.86,4.04.12-1.1.52-.46,1.35-2.69.62-.65.02-1.17.61-2.94.61-1.1,2.1.18,2.84-.8h0Z"/>
              <path class="cls-8" d="M373.79,234.3c.24-.98,1.35-1.47,1.71-2.33.37-.98,1.23-1.59,1.47-2.45.12-.86,0-1.71.37-2.45.24-.61.39-4.02.86-3.18,1.91,3.45,1.22,1.81,1.59,3.67,0,0,.24-1.96.37-1.96-.12-.98.12-1.71,0-2.69-.12-.37-1.59-1.1-2.08-.98l-.44.55s-.02,0-.05.07c-.73.98-1.1,3.3-1.71,4.4-.37.86,0,1.71-.24,2.57-.12.37-.61.61-.86.98-.49,1.1-1.71,1.47-1.96,2.45-.24,1.23-.49,2.33-.73,3.55-.12.98-.73,1.59-1.1,2.69-.23,1.4,0,4.19,0,4.77.12,0,.73-.61.86-.61-.12-.37.24-2.69.24-2.69.49-3.06.98-2.57,1.35-4.16.24-.73.12-1.47.37-2.2h0Z"/>
              <path d="M380.62,168.94c-.28-1.15-3.22-5.29-5.63-6.03-.62-.19-.99-.28-1.24-.34h-.05s-1.07,1.21-1.07,1.21c0,0-.71.72-3.36,5.08-2.34,3.86-1.96,6.83-1.96,6.83l3.9-.27,5.52.51.94.06v-.44s3.11-5.98,2.95-6.6h0Z"/>
              <path d="M389.81,211.33s-4.73-14-5.73-14-2-12-2-12v-6l-1-10s-.02-.09-.07-.23c-.26-.87-1.36-4.05-3.93-5.77-3-2-5-3-5-3l-2.6-7.03c-.93-2.01,2.26-12.17,1.79-13.61-.43-1.31-.62-2.28.88-1.92,1.5.36.5-1.8.14-2.59-.36-.79.15-3.88-3.07-3.88-1.21,0-2.35-1.52-3.14-1.65-2.64-.43-3.26-.89-7.2.86-1.78.79-2.54,1.94-3.46,2.74-.93.79-.69,1.32-1.47,1.68-.78.36-1.34,1.98-1.91,2.48-.57.5-3.71,1.87-3.43,2.37.28.5,1.07.31,1.28.31.93-.36,2.18-.77,2.18-.77.57-.57.32-1.03,1-2,.85-1.21,1.38-1.96,2.06-2.63,1.29-1.27,4.05-3.26,5.6-3.29,1.88-.04,3.12.38,5.08,1.48.3.17,6.56,3.66,3.68,11.2.07.86-.07,1.22-.5,2.01-.43.79-1.43,4.6-1.07,7.4.36,2.8,1.14,2.87,1.93,3.3s-.73,2.52-.24,2.76c.57.29,1.8,2.27,3.14,2.37.29.02,1.24.13.92.57-.51.7.09,1.08.7,1.27,2.41.74,5.45,3.77,5.74,4.92.16.63.4,3.33.4,5.79,0,1.17-.06,2.25-.06,3.17,0,1.47.65,4.75.55,8.3-.11,3.58-.36,7.11-.93,8.37-1.14,2.51.22,4.4,1.4,3,.78-.93.5.07,1.28,1.08.79,1.01,3.35,5.1,2.28,4.46-.2-.12-.31-.22-.39-.3.1.59.71,2.04,1.1,3.24.5,1.51,1.28,2.8.57,2.8-.1,0-.21,0-.33,0l-3.21-8.45-2.32-1.06-1.92,1.06.43-4.72,1.14-5.32.45-8.61.05-5.02v-7.54s-3.62,7.04-3.62,7.04c0,0,3.45.65,3.45,1.66s-1.9,9.85-1.9,9.85l-6.61,10.5s-2.94.18-4.22.7-4.43,2.15-4.43,2.15c0,0-.64.43-3.67.86-3.04.43-4.24.57-4.24.57.56.07-4.12-.25-3.69-.16.2.04,1.42.61,2.83.82s3.77,1.93,5.87,3.81l2.57,2.68c.97,1.19,1.9,2.55,2.72,4.1,4.48,8.53,2.75,19.65,3.04,21.24.29,1.59,1.88,5.64,1.73,7.95-.15,2.31-3.32,12.14-2.75,11.99.58-.15,2.02-.58,2.31-1.3.29-.72,1.59,0,2.6-.14,1.01-.15,1.59-2.02,2.6-2.02s2.66,1.87,2.66,1.87c0,0,6.87-3.6,5.57-4.9-1.3-1.3-4.06-6.07-1.45-10.26,2.2-3.51,7.78-15.41,5.71-21.7,1.55-.79,2.62-1.71,2.09-4.94h0ZM380.85,206.53s.13,1.16.56,2.13c.15.35.34.67.57.91.09.09.18.16.26.21.74.52,1.22,0,1.22,1,0,1.12-1.07,1.07-2.32-.19-.1-.1-.19-.23-.27-.35-.04-.07-.08-.15-.11-.23-.03-.06-.05-.11-.07-.17-.03-.07-.05-.15-.07-.23-.02-.08-.04-.16-.05-.24-.01-.06-.02-.12-.03-.19-.02-.15-.03-.3-.03-.45-.02-1.12.35-2.22.35-2.22h0ZM378.01,211.02c.16.13.34.27.55.4.1.07.18.13.25.2.77.81-1.12,1.77-2.27,2.3-.77.36-.88-.65-.85-2.07,0-.11,0-.22,0-.34.02-.8.08-1.7.08-2.56,0-2.57,1.06-5.53,1.06-5.53v4.96c0,1.09.28,1.91,1.18,2.64h0ZM367.75,215.12l-.71,1.05v-.57c0-.56.08-1.23.23-1.95l.82-3.96.24-1.16c.05-.24.11-.48.17-.73l.03-.1.3-1.17c.04-.18.1-.35.15-.52.47-1.58,1.16-3.11,1.89-4.11l.82-1.12-.46,1.22h0c-.11.26-.21.51-.31.77-.62,1.65-.97,3.39-.92,4.59l.02.43c0,.15-.03.3-.04.44-.05.55-.13,1.07-.24,1.59-.31,1.41-.9,2.9-1.99,5.29h0ZM370.6,223.29c-.83,2.24-1.23,1.59-1.35,2.69.12-1.23.49-2.94.86-4.04,1.73-6.91,2.12-2.41,3.22-3.27.59-.46.64-.81.52-1.54l.18.04c0,.49.27,2.14.02,2.38-.73.98-2.22-.3-2.84.8-.59,1.77,0,2.29-.61,2.94h0ZM372.07,240.67s-.37,2.32-.24,2.69c-.12,0-.73.61-.86.61,0-.58-.23-3.37,0-4.77.37-1.1.98-1.71,1.1-2.69.24-1.22.49-2.32.73-3.55.24-.98,1.47-1.35,1.96-2.45.24-.37.73-.61.86-.98.24-.86-.12-1.71.24-2.57.61-1.1.98-3.43,1.71-4.4.03-.07.05-.08.05-.07l.44-.55c.49-.12,1.96.61,2.08.98.12.98-.12,1.71,0,2.69-.12,0-.37,1.96-.37,1.96-.37-1.86.32-.23-1.59-3.67-.46-.84-.61,2.57-.86,3.18-.37.73-.24,1.59-.37,2.45-.24.86-1.1,1.47-1.47,2.45-.37.86-1.47,1.35-1.71,2.33-.24.73-.12,1.47-.37,2.2-.37,1.59-.85,1.1-1.35,4.16h0ZM385.9,225.37c-1.47,2.57-3.79,4.16-5.51,6.48-1.1,1.35-.73,2.69-1.23,4.28-.37,1.1-1.35,2.2-1.59,3.43-.61,1.96,1.35,4.53.86,6-.35,1.04.13,2-.24,2.94-.49-.86-.98-6.12-2.82-3.67-.37,1.23-.73,2.57-2.08,3.18,0-.61-.12-1.35.12-1.84.49-1.1,1.47-1.84,2.08-2.94.61-1.35.49-2.81,1.1-4.16.12-.61.37-1.1.49-1.71.73-1.71.49-3.67,1.22-5.14.37-.86,1.35-1.35,2.08-1.96,1.22-.98,2.69-1.71,3.18-3.3.12-.12.37-.24.49-.37.24-.61.49-1.1.61-1.71.25-1.59.25-3.06,0-4.65,0-.12-.37-.12-.49-.12-.37-.49-.61-1.23-1.23-.73-.73.49-.73,1.83-1.71,2.32-.12,0-.49.12-.61,0-.61-.61-.37-1.71-.98-2.45-.37-.49-.12-1.23-.37-1.47-.61-.61-.98.12-.98.98-.12.12-.12.37-.37.37v-.12l-.24-.73c0-.61-.12-1.23.24-1.59.61-.61,1.23-1.35,2.08-1.59.37,1.71-.98,5.38,1.47,5.26.37,0,.61-.61.73-.98.49-1.1,1.35-2.08,1.35-3.3.37.73-.12,1.59.25,2.2.49.98,1.35,1.84,2.08,2.81.98,1.35.73,3.06,0,4.28h0Z"/>
            </g>
          </g>
        </g>
      </g>
    </g>
    <g id="Landscape">
      <g>
        <path class="cls-1" d="M320.73,258.86c-.59,1.71-.99,3.63-4.23,2.86.59-1.71,2.15-2.15,2.15-2.15,0,0,1.11.36,2.08-.72h0Z"/>
        <path class="cls-1" d="M293.77,243.78c1.16,1.39,2.61,2.72.28,5.1-1.16-1.39-.73-2.95-.73-2.95,0,0,.88-.77.45-2.15h0Z"/>
        <path class="cls-1" d="M296.89,246.3c1.34,1.22,2.95,2.35.97,5.02-1.34-1.22-1.13-2.82-1.13-2.82,0,0,.77-.88.16-2.2h0Z"/>
        <path class="cls-1" d="M304.11,248.62c.87,1.59,2.02,3.18-.72,5.06-.87-1.59-.15-3.03-.15-3.03,0,0,1.01-.58.87-2.02h0Z"/>
        <path class="cls-1" d="M291.54,247.6c1.71.58,3.64.97,2.89,4.21-1.71-.58-2.16-2.14-2.16-2.14,0,0,.35-1.11-.73-2.08h0Z"/>
        <path class="cls-1" d="M296.15,251.26c1.46,1.07,3.18,2.02,1.49,4.89-1.46-1.07-1.42-2.69-1.42-2.69,0,0,.67-.95-.07-2.2h0Z"/>
        <path class="cls-1" d="M298.75,251.41c1.46,1.07,3.18,2.02,1.48,4.89-1.46-1.07-1.41-2.69-1.41-2.69,0,0,.67-.95-.07-2.2h0Z"/>
        <path class="cls-1" d="M300.62,251.7c1.01,1.5,2.3,2.98-.26,5.1-1.01-1.5-.42-3.01-.42-3.01,0,0,.96-.67.68-2.09h0Z"/>
        <path class="cls-1" d="M305.26,252.36c.25,1.79.77,3.69-2.46,4.48-.25-1.79.93-2.89.93-2.89,0,0,1.15-.18,1.53-1.59h0Z"/>
        <path class="cls-1" d="M286.6,265.45c1.54-.95,3.07-2.19,5.09.46-1.54.95-3.02.3-3.02.3,0,0-.63-.98-2.06-.76h0Z"/>
        <path class="cls-1" d="M313.63,251.12c1.01,1.5,2.3,2.98-.26,5.1-1.01-1.5-.42-3.01-.42-3.01,0,0,.96-.67.68-2.09h0Z"/>
        <path class="cls-1" d="M305.54,261.38c1.01,1.51,2.3,2.98-.26,5.1-1.01-1.51-.42-3.01-.42-3.01,0,0,.96-.67.68-2.09h0Z"/>
        <path class="cls-1" d="M294.43,260.76c1.71.59,3.64.98,2.89,4.21-1.71-.58-2.16-2.14-2.16-2.14,0,0,.35-1.11-.73-2.08h0Z"/>
        <path class="cls-1" d="M288.19,264c1.54-.95,3.07-2.19,5.09.46-1.54.95-3.02.3-3.02.3,0,0-.63-.98-2.07-.76h0Z"/>
        <path class="cls-1" d="M288.77,267.62c.75-1.65,1.34-3.52,4.48-2.45-.75,1.65-2.34,1.93-2.34,1.93,0,0-1.07-.46-2.14.52h0Z"/>
        <path class="cls-1" d="M291.95,267.47c.76-1.65,1.34-3.52,4.48-2.45-.75,1.65-2.34,1.93-2.34,1.93,0,0-1.07-.46-2.14.52h0Z"/>
        <path class="cls-1" d="M292.41,261.91c1.71.58,3.64.98,2.89,4.21-1.71-.58-2.16-2.14-2.16-2.14,0,0,.35-1.11-.73-2.08h0Z"/>
        <path class="cls-1" d="M295.88,259.45c1.71.58,3.64.98,2.89,4.21-1.71-.58-2.16-2.14-2.16-2.14,0,0,.35-1.11-.73-2.08h0Z"/>
        <path class="cls-1" d="M302.52,257.41c.25,1.79.77,3.69-2.46,4.48-.25-1.79.93-2.89.93-2.89,0,0,1.15-.18,1.53-1.59h0Z"/>
        <path class="cls-1" d="M317.55,251.63c.25,1.79.77,3.69-2.46,4.48-.25-1.79.94-2.89.94-2.89,0,0,1.15-.18,1.52-1.59h0Z"/>
        <path class="cls-1" d="M318.85,257.85c.25,1.79.77,3.69-2.46,4.48-.25-1.79.94-2.89.94-2.89,0,0,1.15-.18,1.52-1.59h0Z"/>
        <path class="cls-1" d="M295.13,268.05c.76-1.65,1.34-3.52,4.48-2.45-.75,1.65-2.34,1.93-2.34,1.93,0,0-1.07-.46-2.14.52h0Z"/>
        <path class="cls-1" d="M296,265.01c1.54-.95,3.07-2.19,5.09.46-1.54.95-3.02.3-3.02.3,0,0-.63-.98-2.07-.76h0Z"/>
        <path class="cls-1" d="M298.89,262.85c1.54-.95,3.07-2.19,5.09.46-1.54.95-3.02.3-3.02.3,0,0-.63-.98-2.07-.76h0Z"/>
        <path class="cls-1" d="M304.53,256.76c1.01,1.51,2.3,2.98-.26,5.1-1.01-1.5-.42-3.01-.42-3.01,0,0,.96-.67.68-2.09h0Z"/>
        <path class="cls-1" d="M308.16,262.2c.87,1.59,2.02,3.18-.72,5.06-.87-1.59-.14-3.04-.14-3.04,0,0,1.01-.58.87-2.02h0Z"/>
        <path class="cls-1" d="M295.81,268.8c1.76-.42,3.59-1.13,4.7,2.01-1.76.42-2.97-.65-2.97-.65,0,0-.29-1.13-1.73-1.36h0Z"/>
        <path class="cls-1" d="M301.35,266.01c1.01,1.5,2.3,2.98-.26,5.1-1.01-1.5-.42-3.01-.42-3.01,0,0,.96-.67.68-2.09h0Z"/>
        <path class="cls-1" d="M301.04,265.3c1.81-.07,3.75-.39,4.21,2.9-1.81.07-2.78-1.23-2.78-1.23,0,0-.06-1.16-1.42-1.68h0Z"/>
        <path class="cls-1" d="M305.08,258.41c1.75.47,3.7.73,3.17,4.01-1.75-.47-2.3-1.99-2.3-1.99,0,0,.28-1.13-.87-2.02h0Z"/>
        <path class="cls-1" d="M310.5,261.13c1.51,1,3.28,1.86,1.73,4.81-1.51-1-1.55-2.61-1.55-2.61,0,0,.62-.98-.18-2.19h0Z"/>
        <path class="cls-1" d="M314.06,256.78c1.54-.95,3.07-2.19,5.09.46-1.54.95-3.02.3-3.02.3,0,0-.63-.98-2.07-.76h0Z"/>
        <path class="cls-1" d="M312.33,259.24c1.54-.95,3.07-2.19,5.09.46-1.54.95-3.02.3-3.02.3,0,0-.63-.98-2.07-.76h0Z"/>
        <path class="cls-1" d="M313.05,265.16c-.24-1.79-.75-3.69,2.49-4.46.24,1.79-.96,2.88-.96,2.88,0,0-1.15.18-1.54,1.58Z"/>
        <path class="cls-1" d="M310.86,266.83c-.46,1.75-.72,3.7-4,3.18.46-1.75,1.98-2.3,1.98-2.3,0,0,1.13.27,2.02-.87Z"/>
        <path class="cls-1" d="M314.47,265.38c-.46,1.75-.72,3.7-4,3.18.46-1.75,1.98-2.3,1.98-2.3,0,0,1.13.27,2.02-.87h0Z"/>
        <path class="cls-1" d="M310.76,267.69c.87,1.59,2.02,3.18-.72,5.06-.87-1.59-.15-3.04-.15-3.04,0,0,1.01-.58.87-2.02h0Z"/>
        <path class="cls-1" d="M320.09,262.41c-1.03,1.49-1.93,3.24-4.84,1.63,1.03-1.49,2.64-1.49,2.64-1.49,0,0,.97.64,2.2-.13h0Z"/>
        <path class="cls-1" d="M317.93,267.03c-1.03,1.49-1.93,3.24-4.84,1.63,1.03-1.49,2.65-1.49,2.65-1.49,0,0,.97.64,2.2-.13h0Z"/>
        <path class="cls-1" d="M318.19,270.93c-1.5,1.01-2.98,2.31-5.1-.25,1.5-1.01,3.01-.43,3.01-.43,0,0,.67.95,2.1.67h0Z"/>
        <path class="cls-1" d="M309.14,256.2c.87,1.59,2.02,3.18-.72,5.06-.87-1.59-.15-3.04-.15-3.04,0,0,1.01-.58.87-2.02h0Z"/>
        <path class="cls-1" d="M311.48,258.57c.25,1.79.77,3.69-2.46,4.48-.25-1.79.94-2.89.94-2.89,0,0,1.15-.18,1.52-1.59h0Z"/>
        <path class="cls-1" d="M307.43,264.93c.25,1.79.77,3.69-2.46,4.48-.25-1.79.94-2.89.94-2.89,0,0,1.15-.18,1.53-1.59Z"/>
        <path class="cls-1" d="M309.87,260.82c1.54-.95,3.07-2.19,5.09.46-1.54.95-3.02.3-3.02.3,0,0-.63-.98-2.06-.76h0Z"/>
        <path class="cls-1" d="M302.5,260.8c1.46,1.07,3.18,2.02,1.49,4.89-1.46-1.07-1.41-2.69-1.41-2.69,0,0,.67-.95-.07-2.2h0Z"/>
        <path class="cls-1" d="M318.58,260.54c-.24-1.8-.75-3.7,2.49-4.46.24,1.79-.96,2.88-.96,2.88,0,0-1.15.18-1.54,1.58Z"/>
        <path class="cls-1" d="M309.01,263.05c.87,1.59,2.02,3.18-.72,5.06-.87-1.59-.15-3.04-.15-3.04,0,0,1.01-.58.87-2.02h0Z"/>
        <path d="M288.07,262.82c-1.3-.43-5.64,1.73-6.94,3.47l-.58-.29s1.73-1.88,2.6-2.75,2.89-1.59,2.75-2.02c-.14-.43-2.56-.53-1.88-1.16.68-.63,1.3-1.59,1.3-1.59,0,0,1.01-.87.22-1.52-.29-.23-1.14.18-1.01-.14.36-.94,1.37-1.3.22-1.66-1.16-.36-.14.07-.29-.79-.14-.87-3.4-.72-4.12-1.3-.72-.58-.94-.58-2.6-.94-1.66-.36-2.75-.94-4.34-.87,3.32-.22,7.37.43,7.95-1.52,1.37,1.16,5.3,3.29,6.43,11.2.15,1.01-.72.8.29,1.88h0Z"/>
        <path class="cls-1" d="M282.15,248.8c2.75,0,9.48-1.73,11.42,10.84.29,1.88-1.17,2.09-1.59,1.16-.58-1.3-1.3.87-2.17,1.45-.87.58-2.46.29-2.17-.43.6-1.5-1.13-6.48-2.6-8.38-2.46-3.18-5.06-4.05-2.89-4.62h0Z"/>
        <path class="cls-1" d="M265.02,254.22c-.29-.24-.58.15-.87,0-.26.92-1.48,1.61-2.06.92-.52-.62-.04-1.53.66-2,.25-.17.68.1.96.36,0-.34-.1-.83.05-.93.45-.27,1.11-.12,1.68.06-.21-.09-.16-.38-.13-.38,3.1-.67,6.02-.61,9.08-.98,2.18-.27,4.22.3,6.36-.01.53-.08,1.12-.02,1.6-.36"/>
        <path class="cls-1" d="M263.86,257.11c-.14.04-.21-.04-.13-.13.3-.34.64-.7,1.02-.8.39-.11.73-.24,1.14-.37-.29-.05-.57-.16-.87-.15.18-.48.75-.54,1.15-.6.11-.01.19-.13.15-.27v.15l-.29-.29c.72-.16,1.44.02,2.17,0-.14-.24-.38-.11-.58-.14.79-.32,1.56-.71,2.46-.58-.09-.19.13-.38.15-.38,3.46-.26,6.79-.73,10.24-1.07,1.08-.11,2.24.01,3.34-.14h-.14"/>
        <path class="cls-1" d="M265.74,257.4c-.34-.19.09-.38,0-.58.24,0,.5.05.71-.03.03-.01,0-.23.02-.23.48-.1.96-.03,1.44-.03-.1-.1-.26-.2-.26-.29.03-.4.58-.18.8-.34.11-.08-.08-.4.18-.53.32-.17.55.23.86.14-.09-.19.23-.24.14-.43.4-.08.87-.22.87-.72.19,0,.43.06.55-.03.69-.58,1.43-.43,2.19-.54-.21-.49.48-.1.43-.43.94.02,1.87-.15,2.77-.29,1.91-.29,3.99-.63,5.67.19.88.42,1.68.15,2.54.1"/>
        <path class="cls-1" d="M267.04,254.37c.04-.14-.04-.22-.14-.29.24.05.07-.25.26-.35.19-.1-.27-.52-.08-.6.78-.37,1.53-.55,2.43-.56.19,0,.38-.44.58-.45,2.22-.14,4.44-.29,6.65-.37,2.2-.07,4.45.14,6.64.6"/>
        <path class="cls-1" d="M266.32,258.7c.3-.32.7-.01,1-.17.23-.13-.31-.05-.13-.26h-.29c.67-.05,1.34-.08,2.01-.22.08-.02-.45-.14-.24-.32.68-.6,1.71-.11,2.57-.32-.16-.01-.36.07-.43-.15-.06-.17.03-.32.15-.42.11-.09.19.05.29.12.12.08.23-.02.27-.13.03-.09,0-.25.02-.25.7-.16,1.4.24,1.99.12.61-.13,1.25-.23,1.9-.33.22-.04.37-.32.59-.36.53-.1,1.09.08,1.56-.09.42-.15.9-.16,1.31-.29.11-.04.18-.31.16-.52,2.38.33,4.71-.32,7.08-.43"/>
        <path class="cls-1" d="M273.11,255.52c1.55.05,3.06-.7,4.62-.29.09-.48.64.2.72-.29"/>
        <path class="cls-1" d="M271.96,254.8c2.24-.04,4.54-.21,6.66-.98,1.69-.62,3.46-.24,5.19-.32"/>
        <path class="cls-1" d="M270.66,260.87c.16-.41.61-.3.82-.49.26-.23-.34-.25-.39-.52.29-.02.61.32.86,0-.48,0-.98.09-1.43-.04-.04-.01-.05-.32,0-.35.99-.47,2.03-.17,3.02.11-.34.05-.23-.35-.43-.43.5-.06.82-.54,1.28-.12.1.09,0,.16-.13.12.51.24.86-.58,1.26-.24.35.3.26.63.18,1.11-.09-.38.24-.81-.14-1.16.67-.1,1.42,0,1.98-.36.55-.36,1.07-.71,1.65-.88.45-.13.97-.18,1.4-.3,1.59-.47,3.15-.68,4.81-.98.34-.06.82-.5,1.14.07"/>
        <path class="cls-1" d="M272.39,261.74c-.02-.34.12-.58.43-.72"/>
        <path class="cls-1" d="M274.41,261.02c-.08-.27.17-.47.14-.73"/>
        <path class="cls-1" d="M273.69,262.6c-.1-.23.16-.37.14-.58.67.16,1.19-.61,1.88-.29,0-.15-.33-.36,0-.4.69-.09,1.33-.31,2.02-.32-.09.28.33.05.29.29,1.28-.37,2.57.32,3.71-.49.09-.06.44-.09.33-.37.93-.04,2.04-.12,2.64-.99.05-.07.26,0,.39-.04.11-.04-.17-.32.15-.27"/>
        <path class="cls-1" d="M276.87,264.34h1.3c-.15-.57.27-1.04.29-1.59-.1,0-.25.02-.26,0-.09-.32-.03-.67-.03-1,.09.37.57.62,1.03.52.25-.05.11.36-.04.46-.08.05-.2.07-.27.18.4-.4,1.09-.43,1.34-.79.19-.29.56-.58.83-.94"/>
        <path class="cls-1" d="M275.71,263.47c.11-.18.24-.33.43-.43-.03.31.21.18.27.12.14-.12.21-.34.16-.56.39.13.37-.21.72-.29"/>
        <path class="cls-1" d="M279.04,265.49c.19-.76,1.24-.83,1.71-1.46.07-.1.02-.27.02-.41.43.12.85-.05,1.32.07.31.08.45-.42.71-.65v.15c.35-.6.89-.85,1.43-1.29.57-.46,1.65-.74,2.47-1.17"/>
        <path class="cls-1" d="M278.61,264.49c.61.16.99-.55,1.59-.44v-.43c1.07.24,1.92-.33,1.59-1.45.49.11.7-.37,1.04-.5.63-.24,1.1-.73,1.72-.86.45-.1.83-.37,1.28-.37"/>
        <path class="cls-1" d="M278.89,261.16c.73-.15,1.3-.54,1.94-.9.65-.36,1.57-.34,2.39-.26"/>
        <path class="cls-1" d="M277.45,259.86c.14.1.35,0,.4-.04,1.05-.85,2.35-1.39,3.52-1.48,1.64-.13,3.28-.58,4.9-.94v.14"/>
        <path class="cls-1" d="M278.32,260.29c.61-.64,1.62-.22,2.28-.5.26-.11.58-.48.79-.54.53-.17.97-.41,1.45-.59.93-.34,1.95-.61,3-.53"/>
        <path class="cls-1" d="M273.84,257.98c.14-.21.41-.16.6-.24.37-.16.88.04,1.26-.1,1.89-.71,3.66-1.73,5.66-1.89.75-.06,1.53-.17,2.31-.09h-.14"/>
        <path class="cls-1" d="M292.7,252.95c1.71.58,3.64.97,2.89,4.21-1.71-.59-2.16-2.14-2.16-2.14,0,0,.35-1.11-.73-2.08h0Z"/>
        <g>
          <path class="cls-5" d="M290.07,250.74c2.09-.38,2.98.14,2.98.14"/>
          <g>
            <path class="cls-5" d="M288.33,249.7c1.91-.35,3.82-.52,3.82-.52"/>
            <path class="cls-5" d="M289.18,250.19c1.91-.35,3.49.38,3.49.38"/>
            <path class="cls-5" d="M289.81,250.6c1.91-.35,2.36-1.06,2.36-1.06"/>
            <path class="cls-5" d="M290.43,251.23c1.91-.35,2.94.04,2.94.04"/>
            <path class="cls-5" d="M290.74,251.71c1.94-.05,3.53.15,3.53.15"/>
            <path class="cls-5" d="M291.17,252.26c1.91-.35,3.24-.3,3.24-.3"/>
            <path class="cls-5" d="M291.47,252.76c1.82-.69,3.46-.45,3.46-.45"/>
            <path class="cls-5" d="M291.76,253.38c1.91-.35,2.48-.73,2.48-.73"/>
            <path class="cls-5" d="M292.07,254.04c.38.06,1.31.25,1.31.25"/>
            <path class="cls-5" d="M292.41,254.84c.4,0,1.02-.31,1.02-.31"/>
            <path class="cls-5" d="M293.2,258.21c1.91-.35,3.82-.52,3.82-.52"/>
            <path class="cls-5" d="M293.37,258.9c1.91-.35,3.82-.52,3.82-.52"/>
            <path class="cls-5" d="M293.54,259.6c1.91-.35,3.82-.52,3.82-.52"/>
            <path class="cls-5" d="M293.4,258.91c1.92.26,3.79.69,3.79.69"/>
            <path class="cls-5" d="M293.02,257.26c.65-.04,1.66-.55,1.66-.55"/>
            <path class="cls-5" d="M292.76,256.13c.73.08.96-.26.96-.26"/>
            <path class="cls-5" d="M293.2,257.6c.58-.06,2.18-.51,2.18-.51"/>
            <path class="cls-5" d="M292.85,256.73c.42.05,1.39-.4,1.39-.4"/>
            <path class="cls-5" d="M292.5,255.26c.55.04.96-.26.96-.26"/>
          </g>
        </g>
        <path class="cls-1" d="M288.46,254.31c-.47-1.61-2.07-2.03-3.14-3.19,2.66.95,4.65,3.02,5.78,5.49-.52-.81-1.14-1.53-1.77-2.28-.16-.19-.43.04-.52.26-.2.51.16.96.27,1.44-.34-.53-.45-1.12-.62-1.72h0Z"/>
        <path class="cls-1" d="M300.77,254.3c1.01,1.51,2.3,2.98-.26,5.1-1.01-1.5-.42-3.01-.42-3.01,0,0,.96-.67.68-2.09h0Z"/>
        <path class="cls-1" d="M300.89,251.9c1.75.47,3.7.73,3.16,4.01-1.75-.47-2.3-1.99-2.3-1.99,0,0,.28-1.13-.87-2.02h0Z"/>
        <path class="cls-1" d="M295.73,246.45c.87,1.59,2.02,3.18-.72,5.06-.87-1.59-.15-3.04-.15-3.04,0,0,1.01-.58.87-2.02h0Z"/>
        <path class="cls-1" d="M291.83,241.1c1.48,1.05,3.21,1.96,1.58,4.86-1.48-1.04-1.46-2.66-1.46-2.66,0,0,.65-.96-.11-2.2h0Z"/>
        <path class="cls-1" d="M294.99,252.71c1.46,1.07,3.18,2.02,1.48,4.89-1.46-1.07-1.41-2.69-1.41-2.69,0,0,.67-.95-.07-2.2h0Z"/>
        <path class="cls-1" d="M297.18,256.71c1.71.59,3.64.98,2.89,4.21-1.71-.58-2.16-2.14-2.16-2.14,0,0,.35-1.11-.73-2.08h0Z"/>
        <path class="cls-1" d="M312.2,255.54c.25,1.79.77,3.69-2.46,4.48-.25-1.79.94-2.89.94-2.89,0,0,1.15-.18,1.52-1.59h0Z"/>
        <path class="cls-1" d="M306.82,255.23c1.75.47,3.7.73,3.16,4.01-1.75-.47-2.3-1.99-2.3-1.99,0,0,.28-1.13-.87-2.02h0Z"/>
        <path class="cls-1" d="M304.81,255.01c.25,1.79.77,3.69-2.46,4.48-.25-1.79.94-2.89.94-2.89,0,0,1.15-.18,1.53-1.59Z"/>
      </g>
      <g id="_x34_9niner">
        <path d="M272.61,218.67c-.43,0,.9.9.58,2.31-.36,1.59.11,5.03,0,6.36-.07.87.72.93-.14,1.88-.36.4-.43.62-.07.72.36.11.9.4,2.02-.54,1.12-.94,1.52-.47,1.77-.87.25-.4.4-3.9.11-4.19s-.33.29-.58.51c-.25.22-1.3.47-1.56.36-.25-.11-.51-.47-.51-.25s.14.54.47.72c.33.18.29.98-.07.94-.36-.04-.9-.04-1.01-.29-.11-.25-.25-3.68-.11-3.9.14-.22.4-2.28.18-2.49s-.65-.72-.51-.87c.15-.15.44-.29.47-.51.04-.22-.18-.8-.32-.9-.15-.11-.51.33-.51.33l-.07.4-.14.29h0Z"/>
        <path d="M270.33,226.32c-1.27-1.07-.01-2.44.06-2.48.63-.41.78-1.06,1-1.62.07-.17.04-.66.2-.73-.66.26-.55,1.54-1.01,1.88-.41.3-.75.75-1.1,1.07-.16.15-.25.84-.42.81.07.46-.35.63-.61.81-.73.49-1.38.91-2.09,1.42-.16.12.39.73.48.84.17.23,0,.65.09.96,0,.02.31.87.44.92.65.29,1.5.06,2.27.1,1.44.07.78-3.91.69-3.99h0Z"/>
        <path d="M253.51,245.7c-.06-.02-.27.29-.55.21.87-1.34,2.16-.54,3.18-.29-.87.29-1.67.4-2.63.08Z"/>
        <path d="M258.95,203.5c0,.69,1.01.94,1.3,1.01.29.07,9.68,2.24,9.9,2.75.22.5-.87,2.74-1.3,3.11s-.07.51.22.36c.29-.14,2.31-2.53,2.6-2.82.29-.29.58.15.72-.15.14-.29.36-1.08.14-1.15-.14-.05-.26-.07-.36-.07-.14,0,.21-3.11-.79-3.4,0,.87.14,2.53-.36,2.89-.34.24-.53.32-.58.22-.07-.14-9.97-2.82-10.19-2.96-.22-.14-1.3-.36-1.3.22h0Z"/>
        <path d="M266.22,240.07c-.31.14-.84.26-1.12-.22,1.08-.64,2.28-.58,3.47-.58-.56.84-1.57.44-2.34.8Z"/>
        <path d="M267.41,235.36c-.65.87-2.82.72-3.11.72s-2.6,0-3.25-.29c-1.98-.88-1.3-1.59-2.17-1.88-3.31-1.1-.07-2.31,5.13-2.02s6.76.93,4.41,2.82c-.72.58-.36-.22-1.01.65ZM259.1,232.76c-.83.17-.38.99,1.73,1.23,3.25.36-.14.43-.14.79,0,.72.36.65,1.01.72.65.07,3.61.22,3.97.07.36-.14,1.81-.87-.36-.79-2.39.08-2.6-.72,1.23-.58,1.3.05,3.54-1.37-.29-1.52-3.83-.14-4.99-.36-7.15.07h0Z"/>
        <path class="cls-1" d="M252.09,220.77c.18.41.55.27.87.29"/>
        <path class="cls-1" d="M260.18,218.17c.09.69.61.09.87.29"/>
        <path class="cls-1" d="M267.84,236.66c1.46.18,1.14-.63,2.36-1.02.78-.25,1.66-.59,2.56-.42"/>
        <path class="cls-1" d="M252.23,237.17c-.2-.66-.14-1.23-.51-1.59-.36-.36-.87-1.08-1.44-.87s-2.53,2.37-2.75,2.75c-.29.51.06.71.43,1.01.36.29.72.94,1.44.94s1.23.15,1.81.15.58,0,.43-.07c-.15-.07,6.43,5.27,6.43,5.27,0,0,1.16.79,1.81.87.65.07.58-.87.22-1.23s-7.01-6-7.01-6c0,0-.65-.51-.87-1.23h0Z"/>
        <path class="cls-1" d="M250.43,236.52c-.51.34-1.08.94-1.08,1.37s1.66.51,1.66.22.29-1.01-.14-1.3-.22-.43-.43-.29h0Z"/>
        <path class="cls-1" d="M260.13,243.49c.82-.98,1.33-1.55,1.33-1.55,1.26.71,4.93,4.02,3.81,7.81-3.61,1.59-7.41-1.66-8.27-2.82,0,0,.51-.58,1.37-1.52"/>
        <path class="cls-1" d="M273.51,223.12c.47-.11,3.07-.43,3.25,1.3"/>
        <path class="cls-1" d="M262.28,209.71l4.7-.07s.87-.36,1.16-.29c-.36-.94-4.34-.58-6.07-.58"/>
        <path class="cls-1" d="M265.89,208.7c-.14-.51-.44-1.86-1.44-1.45-1.23.5-1.81-.07-2.53.07"/>
        <path class="cls-1" d="M259.89,206.46c.51-.07,1.88-.22,1.95.22"/>
        <path class="cls-1" d="M264.44,221.13c-2.02-.22-2.75.36-3.61.07-.87-.29-3.11-.94-3.97-.58s-3.61,1.66-3.61,1.66"/>
        <path class="cls-1" d="M265.46,207.62s.07-1.01,0-1.59c-.07-.58-.22-.07.65-1.01.87-.94-.29-1.23-1.44-1.23s-.51,1.59-.36,1.81c.14.22-1.25,1.81-.94,1.73.78-.19,1.45-.33,2.1.29h0Z"/>
        <path class="cls-1" d="M259.24,211.59s-.65-.94-.36-2.1c.29-1.16,1.01-2.6,1.01-3.03s.58-.43.65-.94c.07-.51.14-1.45.07-1.81-.14-.79,2.24-2.46,2.67-.07.43,2.38,0,1.66-.65,2.17s-1.08,1.45-1.01,1.8c.07.36.43.8.43,1.16v1.01s-1.84.07-2.46.07c-.48,0-.51,1.23-.36,1.73h0Z"/>
        <path class="cls-14" d="M250.06,215.85c1.03-.77,1.77-.35,2.89,0,0-.19-.07-.46.03-.54.79-.67,1.7-.33,2.57-.04-.18.38.28.55.29.87.81-.06,1.56-.24,2.35-.45,1.3-.35,3.36,1.28,4.75.94"/>
        <path d="M265.6,219.83l7.15-2.96s-1.44-1.3-2.02-2.24c-.58-.94-1.44-2.82-2.09-3.04-.65-.22-2.1-.72-2.1-1.08s-.07-.58-.07-.58l-.87.07-1.3.65s-1.16-1.08-.72-.51.14.94.14.94c0,0,1.16.36.51.36s-1.44.14-1.59-.51c-.14-.65-.14-1.14-.14-1.14,0,0-2.92.04-2.8.07.92.25,2.44-.02,2.22.99-.11.5-.29.58.43.79s2.39.79,2.46,1.59,0,2.38-.94,1.52c-.94-.87-1.95-1.37-2.39-1.73-.43-.36-.51-1.16-.51-1.16,0,0-1.37.51-1.73-.29.87,1.08,1.44,2.02,2.89,2.53,1.44.51,1.59,2.02,2.17,2.67.58.65.58,1.81.58,2.17s.43.22.72.87h0Z"/>
        <path d="M272.75,218.17c-.22-.65-.65-.43-1.08-.07-.43.36.94.94-1.3.79-1.16-.07-1.43-.48-2.96,1.3-1.37,1.59-1.76,1.44-2.17,3.47-.14.72-.38,1.07-.72,1.59-.72,1.08-.94,2.33-.72,3.1.22.79.53,1.52,0,1.52-1.95,0-2.96.22-3.4.07-.43-.15-2.08-.63-4.12-.51-.58.04-1.16-1.19-1.73-1.34-.58-.14-3.94.47-4.01-.94-.07-1.41.9-5.49,2.02-5.13,1.12.36,1.12,0,1.01.62-.11.61.22.54.87.14.65-.4,1.52-1.01,1.48.54-.04,1.55-.15,1.92.04,2.02.18.11.61,0,.61-.29s-.25-3.11.22-3.04c.47.07.54.54,1.01.58.47.04.33.4.36.65.04.25.4.07.4.29s-.14,1.95.07,1.95.22.22.22.22c0,0,.36.15.29.29-.07.15.43.18.36-.65-.07-.83.14-.18.25-.51.11-.32.72-.15.72-.4s.25-.9.36.32c.11,1.23.29,1.23.54.72.25-.51.32.25.32.36s.22.47.33.51c.11.04.39.29.29-1.05-.04-.5.22.29.4-.25.18-.54-.25-1.26.25-1.34.5-.07.07-.72.32-.58.25.14.32.83.47.83s.76.83.72-1.99c-.04-2.82.04-1.08.04-1.08,0,0,.94.58,1.16.14.22-.43-.07-1.08-.22-1.52-.14-.43,7.3-2.67,7.3-2.67l.58.79-.58.51h0Z"/>
        <path class="cls-1" d="M298.04,218.74c.39.06.87-.19,1.16.29.58-1.33,2.06-.44,2.89-1.16"/>
        <path class="cls-1" d="M307.87,217.88c.96.71,2.21-.13,3.18.58v-.58c.14.2.3.37.58.29"/>
        <path class="cls-1" d="M285.33,227.42c.68-.52,1.11-.74,2.02-.58"/>
        <polygon class="cls-1" points="289.45 229.51 296.6 230.88 304.84 224.67 298.76 222.86 289.45 229.51"/>
        <polyline class="cls-1" points="289.52 229.29 289.52 232.62 296.45 233.92 304.69 228.43 304.55 224.53"/>
        <polygon points="291.47 229.65 299.13 223.51 303.1 225.1 301.01 227.05 298.55 226.77 294.43 230.3 291.47 229.65"/>
        <polyline points="283.74 236.38 286.55 237.17 291.54 233.92 293.06 233.92 287.93 237.6 294.57 233.41 289.52 232.62 289.52 232.04 283.74 236.38 288.36 238.26"/>
        <path class="cls-1" d="M282.15,224.53c1.38-.37,2.64-.04,4.05,0"/>
        <polyline class="cls-1" points="289.66 231.03 283.16 236.09 283.23 239.19 288.79 240.86 303.1 230.16"/>
        <line class="cls-1" x1="296.6" y1="230.88" x2="296.45" y2="233.92"/>
        <path class="cls-1" d="M301.15,221.56c.06-1.01,1.52-1.16.94.29-.58,1.45-1.23,8.67-1.81,9.54-.39.58-.53.46-.43-.36.15-1.23,1.16-7.15,1.3-9.46h0Z"/>
        <path d="M283.59,243c-.41.1-.69-.46-1.15-.27.34-.53.85-.59,1.44-.62.44-.02.17-1.06.85-.79.19.08.34.38.58.22.2-.13.39-.41.56-.23.51.56,1.1.58,1.77.54-1.31.54-2.65.79-4.05,1.13h0Z"/>
        <path d="M297.18,236.73c-.15,0-.3.3-.58.23.68-.56,1.43-.99,2.31-1.16-.29.8-.92.89-1.73.93h0Z"/>
        <polyline class="cls-1" points="288.79 240.86 288.43 238.47 295.22 233.7"/>
      </g>
      <g id="bear">
        <path id="bear-2" class="cls-6" d="M369.14,259.07c.58-.72-1.45-3.04-1.45-4.34s1.45-5.49,2.46-10.84c1.01-5.35-.14-3.76-2.31-9.39-2.17-5.64-9.68-6.94-12.07-6.18-2.8.89-5.13.35-7.49.75-2.79.48-5.17,0-7.81-.52-1.52-.29-2.69-1.29-4.22-1.58-1.23-.23-2.47-.17-3.55-.61-1.71-.69-3.29-1.34-5.11-1.4-1.61-.05-3.18.55-4.54,1.36-1.08.64-2.55,1.24-3.81,1.81-.06.03-.43.08-.32.36-.95.33-1.94.56-2.77,1.27-.12.1-.36.03-.55.03.03.17-.05.37-.15.4-.85.2-1.43.76-2.29.96-.9.21-1.8.36-2.59.23-.95-.16-2-.82-2.86-.46-.65.28-.11,1.55-.7,1.94-1.43.95-2.91,1.62-4.54,2.17-.05.02-.02.25-.02.39-.3-.04-.8.66-.9.85-.5.96-.88,1.85-1.23,2.87-.21.62-1.02.72-1.56,1.14-.45.34-1.05.33-1.33.8-.36.6-.65,1.37-.39,1.96.16.38.87.38,1.19.78.15.2.17.57.34.65.63.29,1.18.71,1.81,1.01.18.08.25.54.12.95-.1.31,1.29.88,1.56,1.06.81.52.75.1,1.68-.1,1.05-.23,1.76-1.32,2.88-1.05.74.18,1.75-.11,2.04.79.19-.13.44.02.55.07.81.37,1.58,1.31,2.44.85.11-.06.18-.51.34-.77.15.12.26-.11.45-.05.39.13.42.32.42.63.65-.13,1.14.54,1.72.38.38-.1.54-.52.45-.96.2.28.48.1.71.17.87.28,1.16,1.67,2.15,1.22.38-.17.77-.55,1.16-.33.54.3.58,1.18,1.2,1.33,1.04.25,1.98.81,3.02.74.14,0,.18-.73.29-.52.87,1.59,1.52,2.89,2.1,3.4.15,1.23-.07,6.07-.43,7.66-.36,1.59-.51,2.68-.79,3.04-.29.36-2.31,1.37-3.18,1.73-.87.36-1.3.72-.87,1.45.43.72,1.81.43,2.46.87.65.43,1.81.94,2.31.65.51-.29,2.24-.94,3.25-1.16,1.01-.22,3.11-.29,3.04-2.02-.07-1.73,1.66-7.73,2.82-9.1,1.16-1.37,2.02-2.38,1.73-3.25s-.58-1.52-.22-2.38c.36-.87.94-4.05-.72-6.5"/>
        <path d="M312.35,241.07c.65.15,1.23,1.16,1.73,1.23.51.07.79-.58.72-1.45-.07-.87.29-1.66.36-.87.07.79.29,2.89-.22,3.11-.51.21-1.16.65-1.52,0-.36-.65-.29-1.37-.72-1.45l-.36-.58h0Z"/>
        <path d="M324.92,231.31c-.72.25-.29,1.14-.87,1.45-.4-1.18.75-1.7.96-2.88.02-.13.33.08.5.27.27.32-.71.58,0,.87-.19.1-.38.21-.58.28h0Z"/>
        <path d="M356.43,236.52c-.03.32.12.68-.29.87.13-.93-.71-1.49-.87-2.31.28.08.48-.07.56-.3.06-.17-.04-.44.05-.54.1-.1.46-.07.49-.01.3.84.15,1.39.06,2.29h0Z"/>
        <path class="cls-4" d="M365.39,238.83c.73,1.16,2.89,3.76,3.61,3.18.72-.58.58-2.75.58-3.47"/>
        <path class="cls-15" d="M318.42,236.45c-.58-.43-1.88-.94-1.95-.51-.07.43.58,1.05.22,1.12-.36.07-.36-.36-1.01-.72-.65-.36-1.08-.83-1.08-.61s-.65.29-.65.29c0,0,.36.22.43.43.07.22.22.58.22.58"/>
        <path class="cls-4" d="M360.18,257.48c.58.72,2.6,2.6,2.6,3.61s-2.6,4.17-2.6,4.17"/>
        <path class="cls-4" d="M369.79,245.7c-.15,1.01-6.42,7.87-7.29,8.3-.87.43-1.45,1.16-1.45,1.73s-.43,1.01-1.45,1.73c-1.01.72-.72,2.46-.43,3.9.29,1.44-.43,3.59-1.16,4.74l-3.5,1.61s-2.79.43-4.3.58c-1.52.14-2.6,0-2.6-.87s1.81-1.73,2.82-2.02c1.01-.29,2.24-2.6.79-3.76-3.05-2.44-3.4-7.15-3.4-8.17"/>
        <path class="cls-16" d="M331.43,265.71c.79.14,2.24.58,2.89-2.09.65-2.68.58-2.68,1.3-3.54.72-.87.22-2.02.22-2.02,0,0,1.73-.43,1.81-1.16.07-.72-.36-2.24.07-2.53"/>
        <path class="cls-4" d="M336.12,253.57c1.01.58,8.24,2.82,10.33,1.16,2.09-1.66,2.46-2.75,2.24-3.32-.22-.58-.36-2.24-.07-2.82.29-.58,1.16-2.17,1.59-2.46.43-.29,1.16-1.37,1.3-1.81.14-.43.43-1.45.43-1.45"/>
        <path d="M325.79,244.04c.15-.29-.21-.58,0-.87.34.35.9.4,1.16.87.33-.53.53-1.11.58-1.73.34,1.37,1.12,3.54-.58,4.33,0-.29.01-.58,0-.87-.06-.73-.58.02-.91-.23-.71-.54.56-1.17-.24-1.51h0Z"/>
        <path d="M302.88,239.48c.15.49.87.43,1.3.07.43-.36.58-.43.79-.36-1.01-.72-2.46-.87-2.1.29h0Z"/>
        <path d="M328.97,230.16c-.45-.55-1.49.08-1.73-.87.48,0,.98-.09,1.43.05.32.1.45.45.3.82h0Z"/>
        <path d="M362.2,233.05c-.5-.82-1.54-.92-2.02-1.74,1.42.15,2.9.8,2.46,2.27-.07.23-.29-.28-.44-.53h0Z"/>
        <path d="M331.04,255.3c.18,1.09-.35,1.66-.68,2.59-.02.06-.33.02-.52.02,1.02-1.87.94-4.01,1.45-6.07,1.61.91-.44,2.29-.25,3.46h0Z"/>
        <path d="M300.43,246.42c.29-.43,1.52-1.52,2.1-1.66.58-.15,1.01-.22,1.37-.44.36-.21-.22-.36-.94-.14-.72.22-.94.51-1.66.79-.72.29-1.45.22-1.45.22,1.08.51.72.51.58,1.23h0Z"/>
        <path class="cls-16" d="M306.35,233.41c1.37-.36,1.88.14,2.67-.87.79-1.01,1.88-1.3,2.38-.14.51,1.16,0,2.24.36,2.75"/>
        <path d="M361.63,235.07v-.87c.45.48.45.96,0,1.45v-.58Z"/>
      </g>
      <g id="mountains">
        <path class="cls-2" d="M258.49,151.69h10.8c1.16-1.3,1.59-1.01,2.31-1.3.72-.29.87-2.02,4.48-2.31,3.61-.29,9.29-2.74,10.12-3.04,2.46-.87,4.04,1.01,5.49,2.02"/>
        <path class="cls-2" d="M269.29,151.69s4.62-.29,4.34.15c-.29.43,3.76.72,4.33.72s3.61.43,3.61.43c.19.38.36-.09.26,0"/>
        <path class="cls-2" d="M288.79,156.17s-5.2-.58-5.93-.58-3.47-.72-5.35-.87c0,0,5.2-2.02,6.5-2.6s10.98-6.79,10.98-6.79c0,0,2.17-.72,3.32-.58s5.78,1.16,5.78,1.16"/>
        <path class="cls-2" d="M231.71,151.11c2.02-1.45,8.96-4.05,11.56-3.18,0,0,5.2-5.78,10.11-1.45,4.91,4.34,8.09,9.25,9.83,10.12,1.73.87,10.69,4.62,12.72,5.78-2.02.87-8.96.87-8.96.87.05.1-.05-.1-.14-.29"/>
        <path class="cls-2" d="M243.27,147.93c2.31.87,8.96,3.47,13.01,8.38,4.05,4.91,11.27,7.52,14.16,8.38,2.89.87-.58,1.73-2.31,1.73s-11.85-.29-13.88-2.02c-2.02-1.73-3.47-1.16-3.47-1.16.43.29.14.29.43.29"/>
        <path class="cls-2" d="M228.07,151.98c2.5-1.72,6.82-.87,7.97,1.16,1.16,2.02,2.89,3.47,5.2,4.62,2.31,1.16,4.05,1.16,6.36,2.89,2.31,1.73,4.62,5.49,6.65,5.78,2.02.29,6.36,2.89-1.44,1.45-7.8-1.45-7.8-2.02-12.72-1.45-4.91.58-7.22.29-8.96-.29s-6.72.58-6.72.58"/>
        <path class="cls-2" d="M225.5,164.07c1.53-.35,5.67,1.12,6.75.37,2.06-1.44,4.72-.59,6.68.21,4.29,1.74,9.38,2.38,14.02,1.21"/>
        <path class="cls-2" d="M316.25,144.46c-.87-.14-3.61-1.01-5.49-1.44-1.88-.43-3.9,1.01-4.77,1.44s-9.54,6.5-10.69,7.37c-1.6,1.2-3.9,3.47-5.2,4.19-.77.43-5.21,1.62-4.77,1.73,1.73.43,4.42,2.11,7.6,1.82"/>
        <path class="cls-2" d="M307.67,167.38s.2.2-1.25-.52c-1.45-.72-5.35,0-8.24.58-2.89.58-4.05-1.01-2.46-1.59s3.32-.29,4.62-1.3,8.38-2.46,10.12-4.77c1.73-2.31,4.05-4.48,5.35-4.33,1.3.14,5.49-3.04,6.65-4.91,1.16-1.88,4.19-2.31,5.2-2.89,1.01-.58,2.1-.14,2.1-.14l.07-3.9c-.58,0-1.45-.29-4.33-2.31-2.89-2.02-5.78-.29-6.65.58-.87.87-3.61,3.61-4.48,4.77-.87,1.16-4.34,3.76-5.78,4.48-1.44.72-7.66,6.21-8.38,6.5-.72.29-2.27,1.67-4.05,1.45-2.31-.29-6.41,1.91-4.77,2.02,2.02.14,3.61,1.45,5.35,1.16,1.73-.29,4.62-.43,5.78-.15s1.59,1.01,1.59,1.01"/>
        <path class="cls-2" d="M324.78,158.63c-2.6.14-9.54,3.9-10.55,4.62s-1.45,2.31-3.04,2.31-5,2.85-4.48,2.89c2.02.14,8.24.72,9.97.43,1.73-.29,7.23.58,8.09.29"/>
        <path class="cls-2" d="M344.15,133.61c-1.7,1.3-2.7,3.23-4.76,3.91-1.53.51-4.31-.67-4.23,1.05.05,1.17,2.78,1.7,3.74,3.16,1.33,2,2.39,4.23,4.32,4.92,2.09.75,2.54-3.56,3.25-5.49.52-1.4.5-3.33,1.63-4.94.34-.49-.42-.86-.26-1.3.1-.27.58-.51.54-.66-.43-1.46,1.21-2.51.77-3.16-1.09-1.62-3.47,1.35-5.01,2.52h0Z"/>
        <path class="cls-2" d="M324.62,140.81s3.05-3.54,4.88-3.78"/>
        <path class="cls-6" d="M380.78,143.49c1.73-1.44,3.53-3.94,6.43-3.94s8.13,7.39,9.57,7.96"/>
        <path class="cls-2" d="M369.89,155.13c2.02-.58,9.81-3.15,11.54-4.88,1.73-1.73,4.33-2.6,6.65-1.45,2.31,1.16,6.07,3.47,9.25,4.34,3.18.87,17.34,8.94,17.34,9.01"/>
        <path class="cls-2" d="M392.41,151.4c2.31-2.31,3.18-4.62,6.36-3.76,3.18.87,4.85,3.07,7.4,3.77,0,0,3.79,2.17,6.13,2.44"/>
        <path class="cls-2" d="M379.71,166.08c2.89-1.73,6.92-5.14,8.07-6.87,1.16-1.73,6.07-3.18,9.83-1.16,3.76,2.02,15.93,3.99,16.95,3.52"/>
        <path class="cls-2" d="M327.05,177.74c-3.47-.58-2.56-2.79-8.63.54-6.07,3.32-6.07,2.02-7.8,3.32-1.73,1.3-4.62,2.46-6.07,2.46s-.87,1.73-2.6,2.02-6.94,1.73-6.94,3.18,1.45,1.16,1.45,1.16c0,0,7.8.58,9.83.87,2.02.29-4.91,2.6-2.6,2.6s9.54.58,8.38.87-3.18,1.45-1.73,1.73c1.45.29,7.52.87,10.12.87s3.47.87,4.91.58c1.44-.29,4.62.58,4.62.58"/>
        <path class="cls-2" d="M306.28,191.29c1.45,0,2.31-.29,3.47-.87,1.15-.58,6.65-6.36,8.67-6.36s2.89-.29,5.2-.29,5.26,1.24,5.77,2.76"/>
        <path class="cls-2" d="M330.12,186.95c-1.44-.14-2.74-.58-5.06.29-2.31.87-4.77,1.88-7.23,1.59-2.46-.29-1.73,1.3-4.91,1.44-3.18.14-3.9.43-3.9.43"/>
        <path class="cls-10" d="M331.57,145.44c1.64.8,5.05,1.07,6.52,1.77,3.68,1.73,7.5,4.98,11.72,5.63-2.22-.34-4.14-4.06-5.8-6.05"/>
        <path class="cls-2" d="M369.41,148.57c1.45,0,4.51.23,7.11-.92,2.6-1.16,5.78-1.73,8.67.58.32.26-.29-.29-2.89-3.47-2.6-3.18-10.59.53-12.32,1.4"/>
        <path class="cls-2" d="M369.21,150.7c1.45-.29,9.04-.45,11.07.12"/>
        <path class="cls-2" d="M396.02,152.85c-1.16.43-4.77,3.18-4.48,4.19"/>
        <path class="cls-2" d="M334.25,159.46c2.09-.72,5.4-.46,7.39-1.12,1.58-.52,3.15-.7,4.66-.57,1.73.15,4.8.52,6.6,1.3l3.01,1.31"/>
        <path class="cls-2" d="M332.13,169.22c.11,0,2.22.37,4.67,1.02,1.81.48,6.08-.36,7.92-.26"/>
        <path class="cls-2" d="M339.98,148c1.45-.4,4.4.62,5.73,1.22"/>
        <path class="cls-6" d="M349.2,131.02c1.6.67,4.53,1.62,5.63,3.15"/>
        <path class="cls-6" d="M273.76,216.43c1.06-.5,2.14.37,3.16-.04,1.88-.77,4.21-2.08,6.19-.36.43.38,1.33-.1,1.97-.3,2.2-.68,4.72.7,6.8-.34,2.04-1.02,3.97.15,5.9-.61.1-.04.43.46.51.42,1.4-.7,3-.79,4.31-1.26.46-.17,1.28-1.01,1.51-1.02,3.03-.07,6.18.08,9.24.62"/>
        <path class="cls-2" d="M381.14,172.76c2.41.29,8.72-.55,10.53-.84s3.62.87,6.03,1.16c2.41.29,6.03.58,7.54,0s4.53-.87,5.43,0c0,0,2.34,1.2,5.43.6"/>
        <polyline class="cls-2" points="275.5 162.02 275.5 158.55 272.9 156.89 271.74 156.96 269.86 158.34 269.86 159.42"/>
        <line class="cls-2" x1="269.86" y1="158.34" x2="267.12" y2="158.34"/>
        <line class="cls-2" x1="271.45" y1="157.04" x2="264.44" y2="157.04"/>
        <polyline class="cls-2" points="270.95 158.91 271.81 158.91 271.81 159.35"/>
        <polyline class="cls-2" points="273.33 156.96 273.33 155.95 272.25 155.16 271.02 156.1 271.02 157.04"/>
        <path class="cls-2" d="M301.94,163.97c3.51-.54,7.41.05,10.84.87"/>
        <path class="cls-6" d="M332.91,153.85c1.63,1.09,4.79.15,6.43.7,1.94.66,3.88.69,5.85,1.22,1.59.43,4.43.42,6.07-.12"/>
        <path class="cls-2" d="M334,155.93c1.57-.02,7.3,1.5,8.78,2.19"/>
        <path class="cls-6" d="M332.05,136.34c1.01.24,2.56,1.16,3.03,2.09"/>
      </g>
      <g id="texture">
        <path class="cls-14" d="M332.33,193.05c.72-.72,7.89-5.39,7.89-5.39"/>
        <line class="cls-14" x1="332.73" y1="197.93" x2="337.65" y2="197.96"/>
        <path d="M392.88,215.05c0,.27-.04.6-.36.51.11.53-.12.92-.65,1.1-.12.04-.11.13,0,.21-.31.01-.65-.38-.81-.05-.12.25-.21.6-.11.91.04.15.38.23.37.08-.02-.3.15-.58.05-.87.39,0,.8.27.54.62-.1.15-.46.07-.57.21-.2.23.3.43.46.41.31-.03.51-.56.81-.59.2-.02.43-.17.64-.06.3.14.61.17.93.25.41.1.52.58.24.91-.04.04-.05.19.06.19.36.02.32-.46.58-.54.19-.06.43-.06.46-.24.02-.15.16-.41-.05-.47-.5-.13-1.12-.04-1.45-.32-.34-.29-.11-.98-.32-1.42-.1-.21-.31-.32-.25-.6-.26.01-.55-.05-.78.03-.06.02-.12.2-.08.33"/>
        <path d="M396.31,217.43c-.64,0-.11-.45-.29-.6.28-.08.46.07.56.29.13.27,0,.3-.27.31Z"/>
        <path d="M391.97,219.54c.05.32-.46.16-.6.43-.04.08-.01.18-.01.28.02-.02.05-.07.07-.06.05,0,.09.06.07.13h.94c-.02-.15,0-.37.08-.4.26-.08.56-.04.86,0,.28.04.57-.12.86-.2.02,0-.02-.15.08-.19-.27-.32-.09-.77-.14-1.16-.67.13-1.35,0-2.02.06-.16.02-.45.13-.56.31-.15.27.35.15.34.42,0,.12,0,.25.02.37h0Z"/>
        <path d="M398.08,216.64c.31.35.78.7.36,1.08.15.1.22.3.43.21.06-.02.07-.1.09-.12.16-.12.14.2.27.19.2-.02.43-.04.56-.16.25-.23.1-.61-.08-.81-.38-.41-.74-.8-.9-1.33-.14.05-.22-.13-.36-.07-.12.05-.19.2-.36.15-.19-.06-.21-.39-.34-.33-.29.13-.38-.07-.5-.21-.05-.06.02-.25.07-.31.21-.24.57.1.83-.05.17-.09.3-.33.51-.24.25.11.58.13.73.41.2.38.34.83.69,1.03.34.2.46-.3.59-.59.06-.15.23-.29.46-.33.25-.05.1-.4.24-.52.52-.46,1.23-.45,1.83-.73.23-.1.23-.51.24-.81-.76.04-1.3.61-2.01.85-.33.11-.61.47-.96.48-.22,0-.54-.04-.43-.39-.07,0-.17-.02-.21.01-.04.04,0,.13-.02.2-.02.06-.07.1-.14.07-.42-.17-.76-.48-.58-.94-.22.01-.5-.18-.6-.04-.1.15-.2.35-.34.37-.29.03-.56-.19-.79-.4.16-.07.22-.19.22-.36-.16.08-.3-.14-.42-.05-.2.15-.17.39-.16.63-.29-.05-.58.04-.87,0,.04.14-.15.03-.15.14,0,.36.2.9-.03.99-.61.23-1.55.34-1.55,1.18.35-.16.56.22.87.22,0,.1-.03.23.02.27.05.05.18.02.27.02-.05-.44.24-.76.65-.77.42-.02.53.36.76.68.07.1.3.03.47.01.15-.02.24-.21.44-.14.19.06.33.15.28.37-.01.06-.07.09-.14.07.14.15.31.27.41.45.18.29-.02.61.02.93"/>
        <path d="M392.54,223.23c-.66-.54-1.02.77-1.5.06.77-.21,1.29-.87,2.02-1.16-.28.62.5.71.58,1.16-.39,0-.87.13-1.1-.06h0Z"/>
        <path d="M390.68,230.59c-.04-.67-.09-1.35.58-1.73.02.31-.15.74.29.84.3.07.68.15.86-.26,0,.19.05.49-.02.52-.51.25-1.13-.27-1.71.63Z"/>
        <path class="cls-14" d="M388.94,216.29s1.37.45,1.45,0c.29-1.73.9-.3,1.88-.72,1.01-.43.87-2.31,1.59-2.46.72-.14,1.45.87,2.02-.14.58-1.01,1.16-.15,1.88,0,.72.14.87-1.3,1.44.14.58,1.45,1.16.43,1.73,1.45.58,1.01,1.01,0,1.01,0,0,0,0-.87.58-.87s2.02-1.88,3.61.29"/>
        <path class="cls-14" d="M398.19,220.84c-.14.2-.46.41-.5.27-.21-.76-.53-1.2-1.24-1.42,1.02-.24,2.06-.34,2.94-1.09.05-.04.38.37.21.45-.88.39-1.06,1.12-1.41,1.8"/>
        <path d="M403.25,216.24c.16-.2.37-.43.55-.25.18.18-.04.44-.26.52-.17.06-.38.02-.57.02.1-.1.2-.18.28-.29h0Z"/>
        <path d="M399.14,223.32c-.48-.06-.74.37-1.16.34.23-1.12,1.68-1.15,2.6-1.16-.2.77-.83.9-1.44.82h0Z"/>
        <path d="M246.52,240.78c.32-2.17.65-4.8,1.71-6.84.64-1.23,1.25-3.09.63-4.41-.38-.81-1-1.72-1.74-2.49-.76-.79-.47-1.72-.38-2.8.1-1.23,1.14-2.08,1.85-3.28.54-.92.57-2.29.95-3.29.33-.86.53-1.88,1.09-2.78.28-.45-.1-2.2-.42-2.21.29-.63-.5-.78-.72-1.05-.58-.73-2.51-.68-2.44-1.23.47-3.59-.27-7.76-3.59-9.05-1.48-.58-3.36-.73-5.11-.52.19.38-.28.55-.29.87-.74-.13-1.34-.6-2.02-.87.19,0,.48.06.53-.03.59-.96,1.07-2.17.48-3.05-.82-1.2-2.05-2.19-2.52-3.37-.57-1.46,1.03-3.96-.8-5.12.81-.48.17-1.37-.12-1.65-2.05-1.96-7.54-3.48-9.2-1.82-1.51.72,1.08.87,2.38.58.87-.19,1.64-.19,2.31,0,1.01.29,1.3.58,2.17.72.87.14,1.59.87,1.73,1.73.14.87.58,1.88,0,2.6-.58.72-1.88,1.59-2.46,1.44s-1.59.43-2.6.43-1.59-.15-1.59.43.43,2.46-.14,2.75c-.58.29.29,1.01.72.72.43-.29.72-1.01,1.44-1.16.72-.15,1.3-.29,1.44-1.01.14-.72.72-1.16,1.3-1.3.58-.15,1.16.14,1.3-.87.14-1.01.72-1.44,1.3-.87.58.58,1.44,1.01.58,1.59-.86.58-2.6,1.3-1.3,1.45,1.3.15,1.73,0,2.17,1.16s1.88,2.46.87,2.89c-1.01.43-3.9.15-4.48,2.31-.58,2.17-1.16,3.32.43,3.32,1.73,0,2.45-1.32,3.32-1.45,1.01-.14,2.02.29,2.31-.43.29-.72.43-.87,1.3-1.16.87-.29,2.89-1.01,3.32-.29.43.72-.72,1.16-.14,1.59.58.43.87.43,1.3.14.43-.29,2.6-.87,1.88,0-.72.87-2.02,1.16-1.3,1.3.72.14,1.59.29,1.88,1.45s-1.16,2.31-.87,2.74c.29.43.29,2.6-.29,2.89s-1.3.29-1.88,0c-.58-.29-2.31,1.01-1.88,1.73.43.72,1.16,1.59.58,2.02-.58.43-1.73.58-2.02,1.59s-1.59,1.59-1.59,2.46.14,2.02-1.3,1.73-2.1-.43-2.02.29c.07.71-.72,2.17.58,1.59,1.3-.58,2.89-1.16,3.32-2.02s1.16-2.6,1.88-3.18,2.6-2.46,2.89-3.47,2.75-2.31,3.47-2.31,2.75.87,2.46,1.73-2.75.29-2.02,1.16,1.88,2.17,1.01,3.32-1.3,2.46-2.75,3.04-3.9.72-3.32,2.17c.58,1.45,1.59,2.02,3.32,3.76,1.73,1.73,3.18,3.47,2.46,4.77-.72,1.3-4.33,4.07-4.34,4.48s-.14,1.3-.14,1.3c0,0,1.01-.43,1.88-.43s1.59.29,1.3,1.16c-.29.87-.58,1.59-.58,1.59l.51.79h0Z"/>
        <line class="cls-1" x1="231.12" y1="186.76" x2="226.36" y2="191.43"/>
        <line class="cls-1" x1="232.58" y1="187.5" x2="226.05" y2="192.44"/>
        <line class="cls-1" x1="233.44" y1="188.47" x2="227.46" y2="193.47"/>
        <line class="cls-1" x1="233.68" y1="189.93" x2="229.9" y2="193.23"/>
        <path class="cls-1" d="M234.31,193.02c-.72.14-1.59,0-2.02.72-.43.72-4.91,4.91-4.91,4.91"/>
        <line class="cls-1" x1="233.56" y1="194.69" x2="227.58" y2="201.03"/>
        <line class="cls-1" x1="235.18" y1="196.2" x2="228.24" y2="202.56"/>
        <line class="cls-1" x1="236.73" y1="197.74" x2="228.68" y2="204.15"/>
        <line class="cls-1" x1="230.99" y1="204.01" x2="228.68" y2="206.46"/>
        <path class="cls-15" d="M232.58,204.87c0,.72-.43,1.15-1.01,1.15s-1.16.29-1.01.87c.14.58.72,1.88.14,2.02-.58.14-1.16,1.3-1.16,1.3"/>
        <line class="cls-1" x1="237.46" y1="202.25" x2="242.7" y2="202.12"/>
        <line class="cls-1" x1="232.58" y1="204.87" x2="245.14" y2="204.07"/>
        <line class="cls-1" x1="231.97" y1="205.78" x2="246.15" y2="205.92"/>
        <line class="cls-1" x1="228.07" y1="186.03" x2="226.07" y2="188.11"/>
        <line class="cls-1" x1="229.66" y1="186.28" x2="225.5" y2="190.27"/>
        <line class="cls-1" x1="230.75" y1="207.37" x2="246.03" y2="208.21"/>
        <line class="cls-1" x1="230.7" y1="208.92" x2="245.15" y2="210.22"/>
        <line class="cls-1" x1="230.41" y1="211.23" x2="242.33" y2="212.24"/>
        <path class="cls-1" d="M230.84,212.82s9.88.73,11.61,1.74"/>
        <path class="cls-1" d="M232,214.99s7.08.82,8.38,1.4"/>
        <path class="cls-1" d="M231.86,216.72s5.63-.27,7.8.88"/>
        <path class="cls-1" d="M233.01,217.73c2.31,0,4.19,1.16,5.06,1.01"/>
        <path class="cls-1" d="M233.15,219.76c1.45-.43,4.75.37,5.04,1.38"/>
        <path class="cls-1" d="M242.46,214.56c.14-.43,6.45-1.74,6.45-1.74"/>
        <path class="cls-1" d="M241.48,216.02s5.84-1.02,6.7-.73"/>
        <path class="cls-1" d="M239.17,218.46c.87-.29,8.47-1.92,9.63-1.34"/>
        <path class="cls-1" d="M238.19,220.29c.87-.29,8.57-1.8,9.87-1.22"/>
        <path class="cls-1" d="M235.18,222.94c1.88-.29,8.74-3.01,10.57-1.55"/>
        <path class="cls-1" d="M236.33,224.38c.72-.29,4.65-1.99,6.25-1.41"/>
        <path class="cls-1" d="M236.62,226.26c1.3-.87,4.66-2.48,6.69-2.19"/>
        <path class="cls-1" d="M237.78,226.98c1.59-.58,4.94-.69,6.38-1.7"/>
        <path class="cls-1" d="M238.07,228.57c2.17-1.01,6.59-1.05,7.31-2.07"/>
        <path class="cls-1" d="M239.22,230.02c1.16-.58,6.49-2.19,7.5-2.05"/>
        <path class="cls-1" d="M239.8,230.74c1.16.14,6.84-1.48,8.14-1.19"/>
        <path class="cls-1" d="M240.67,232.47c1.01-.43,7.3-1.79,7.88-1.21"/>
        <path class="cls-1" d="M241.68,233.49c1.16.15,4.06-1.12,5.65-.4"/>
        <path class="cls-1" d="M241.97,234.93c1.16-.15,3.54-.81,4.26-.38"/>
      </g>
    </g>
    <g id="shield">
      <g>
        <path d="M346.04,220.16s-.23-.19-.45-.11c-.31.4-2.11,1.54-3.62,1.5.34-.53,3.15-1.55,3.03-1.92-.58-.42.34-.53.34-.53,0,0,1.65-.82,3.11-.32,1.46.5,1.65,2.48,1.5,3.34.32.63.51,1.23.26,2.54.77,1.02-.46,1.81-.02,2.27.43.46,0,1.93-.12,2.11-.11.18-1.04.01-.73-.39.31-.4.41-.79.04-.96-.37-.16-.13-.58.24-.97.37-.39.07-1.36.18-1.54.12-.18.38-.94-.38-1.75-.76-.81-.78-1.02-.27-1.65,0,0-.2.78.42.24,1.37-1.19-4.01-2.17-.97-2.17-.28,0-.6.19-.65-.16-.05-.36-.62-.29-.97-.24-.36.05.63,1.33.63,1.33,0,0-.21-.26-.52-.13"/>
        <path d="M341.81,224.58c1,1.37.44.61.76,1.74.14.49.77,2.1,1.22,2.41,0,0-.69.96-.77.42-.08-.54-.03-1-.29-1.28-.26-.28-1.02-1.05-.92-1.34.1-.29-.06-.87-.02-1.68"/>
        <path class="cls-12" d="M350.07,220.62c1.97-2.04,4.39-3.25,7.04.38,0,0,1.86,2.76,1.55,6.89"/>
        <path class="cls-12" d="M354.38,228.66l-.23-2.05c-.23-.23.08-.83-.68-2.04-.76-1.21-1.8-.21-2.25.7"/>
        <path class="cls-12" d="M340.79,221.24c.05.05-.13-3.16-4.24-1.44,0,0-2.24.73-2.25,2.59s-1.04,4.43-1.04,4.43"/>
        <g>
          <path d="M348.4,224.01c-.69.38-1.01,1.16-1.88.63l-.47-.47c.6-.52,1.66-.35,2.35-.16h0Z"/>
          <path d="M345.76,226.84c.16-.11.25-.38.47-.31-.08.47-.41.57-.79.79-1.21-.13-.28-1.66-.79-2.35-.53.19-1.45.36-1.88-.16-.2-.53.44-.38.63-.63,2.9-1.23.69,2.56,2.35,2.67h0Z"/>
          <path d="M347.3,228.09c-.93.47-1.41.85-2.83.16.61-.52,1.98-.35,2.83-.16Z"/>
        </g>
      </g>
      <path d="M355.29,221.54c.04.76.57,1.63,0,2.31l-.26-.26c-.18.21-.58.15-.77,0-.01-.28.06-.62-.26-.77-.23.09-.09.35-.13.51-.71-.12-.14-1.22-1.03-1.15-.35.04-.94.59-1.03-.13v-.38l.13.13c.15-.58.55-.82,1.03-1.15.77.28,1.85-.14,2.31.9h0Z"/>
      <path d="M334.54,227.12l-.16-.14c.29-.14.11-.47.16-.72.95-1.93,1.22-4.22,2.9-5.74,1.01-.29,2.24-.14,3.05.43.15.37.8.73.32,1.15-.32-.19-.71-.23-.96-.57-.5-.36-1.35-.37-1.93-.14-.32.47-1.46.83-.96,1.44.76-.24,1.29-.93,2.25-.72.95.43.95,1.46,1.13,2.3-.6.6-1.5.55-2.09,1.15-.92-.95,1.08-1.54.16-2.3-.6.76-1.11,1.68-1.77,2.3-.32-.49.05-.8-.32-1.29-.1.07-.18.19-.32.14-.21.96-.84,1.79-1.12,2.73h-.32Z"/>
      <path d="M349.2,214.51l-.19-.57c.61.3,1.46.58,1.71,1.57.12,1.53-.38,2.79-1.71,3.19-.89.25-1.46-.34-2.09-.76l-.38.38c-.19-.34-.63-.13-.95-.19l-.57.57c-.51-.53-.84.57-1.52.19-.36.44-.8.72-1.33.76-.99-.57-.97-1.56-1.14-2.47-.23-.89.46-1.41.76-2.09.4.06.48-.63.95-.38-.76.72-.95,1.9-.57,2.85.55.91,1.6,1.18,2.47.76,1.24-1.48,2.61.82,3.81-.76.73-.81,1.53-2.2.76-3.04"/>
      <path d="M344.94,220.64c-1.28.3-.14,2.05-1.63,1.87-.37.72-1.14,1.49-1.87,1.87-.35-.63-.35-1.7,0-2.33.65-.56.63-1.4.93-2.1l.23.23c.89-.47,3.89-2.05,2.33.47h0Z"/>
      <path class="cls-17" d="M349.23,221.73c-2.86-2.93-3.74,3.21-7.25,1.79"/>
      <path class="cls-14" d="M321.96,226.98c1.38-7.05,3.95-12.32,11.06-18.51"/>
      <path class="cls-13" d="M344.9,203.21c2.84-.82,7.45-.32,14.13,5.85,5.78,5.35,7,9.43,7.52,13.01.58,4.05.43,7.95.29,10.84"/>
      <path class="cls-14" d="M362.09,229.44c0-.19,0-.38,0-.58-.17-11.42-9.19-19.79-17.15-19.79-7.54,0-14.87,5.45-17.24,16.22"/>
      <path class="cls-16" d="M335.18,261.09c2.6,2.31,11.56,4.91,16.04.58"/>
      <path d="M340.1,259.82c.14.51.14,1.01.47,1.08.33.07.79.11.9-.47.11-.58.94-.58.76.14-.18.73-.65,1.27-1.52,1.01-.87-.25-.98-.87-.61-1.77h0Z"/>
      <path d="M346.74,259.82c.14.51.14,1.01.47,1.08.32.07.79.11.9-.47.11-.58.94-.58.76.14-.18.73-.65,1.27-1.52,1.01-.87-.25-.98-.87-.62-1.77h0Z"/>
      <path d="M353.54,208.23c.15.51.15,1.01.47,1.08.32.07.79.11.9-.47.11-.58.94-.58.76.14-.18.72-.65,1.27-1.52,1.01-.87-.25-.98-.87-.62-1.77h0Z"/>
      <path d="M325.21,220.37c.15.51.15,1.01.47,1.08.33.07.79.11.9-.47.11-.58.94-.58.76.15-.18.72-.65,1.26-1.52,1.01-.87-.25-.98-.87-.61-1.77h0Z"/>
      <path d="M327.24,216.47c.14.51.14,1.01.47,1.08.32.07.79.11.9-.47.11-.58.94-.58.76.14-.18.72-.65,1.26-1.52,1.01-.87-.25-.98-.87-.61-1.77h0Z"/>
      <path d="M329.69,212.86c.14.51.14,1.01.47,1.08.32.07.79.11.9-.47.11-.58.94-.58.76.15-.18.72-.65,1.27-1.52,1.01-.87-.25-.98-.87-.61-1.77h0Z"/>
      <path d="M333.3,209.68c.15.51.15,1.01.47,1.08.32.07.79.11.9-.47.11-.58.94-.58.76.14-.18.72-.65,1.27-1.52,1.01-.87-.25-.98-.87-.62-1.77h0Z"/>
      <path d="M342.12,205.77c.15.51.15,1.01.47,1.08.33.07.79.11.9-.47.11-.58.94-.58.76.15-.18.72-.65,1.26-1.52,1.01-.87-.25-.98-.87-.61-1.77h0Z"/>
      <path d="M347.9,205.92c.15.51.15,1.01.47,1.08.33.07.79.11.9-.47.11-.58.94-.58.76.14-.18.72-.65,1.26-1.52,1.01-.87-.25-.98-.87-.62-1.77h0Z"/>
      <path d="M358.02,211.99c.15.51.15,1.01.47,1.08.33.07.79.11.9-.47.11-.58.94-.58.76.15-.18.72-.65,1.27-1.52,1.01-.87-.25-.98-.87-.61-1.77h0Z"/>
      <path d="M361.2,217.05c.14.51.14,1.01.47,1.09.33.07.79.11.9-.47.11-.58.94-.58.76.15-.18.72-.65,1.27-1.52,1.01-.87-.25-.98-.87-.61-1.77h0Z"/>
      <path d="M362.93,222.25c.14.51.14,1.01.47,1.08s.79.11.9-.47c.11-.58.94-.58.76.14-.18.72-.65,1.26-1.52,1.01-.87-.25-.98-.87-.61-1.77h0Z"/>
      <path d="M363.8,228.03c.14.51.14,1.01.47,1.08.32.07.79.11.9-.47.11-.58.94-.58.76.15-.18.72-.65,1.27-1.52,1.01-.87-.25-.98-.87-.61-1.77h0Z"/>
    </g>
    <g id="boats">
      <line class="cls-13" x1="246.36" y1="180.67" x2="246.11" y2="182.26"/>
      <line class="cls-13" x1="260.01" y1="186.4" x2="259.77" y2="187.86"/>
      <line class="cls-13" x1="267.32" y1="192.13" x2="267.2" y2="194.81"/>
      <line class="cls-13" x1="267.81" y1="186.03" x2="267.93" y2="184.94"/>
      <line class="cls-13" x1="268.79" y1="179.7" x2="268.67" y2="180.67"/>
      <line class="cls-13" x1="275.86" y1="194.2" x2="275.98" y2="192.62"/>
      <line class="cls-13" x1="275.98" y1="186.4" x2="275.98" y2="185.06"/>
      <line class="cls-13" x1="275.86" y1="181.28" x2="275.98" y2="179.82"/>
      <path class="cls-13" d="M232,184.21c.87-.29,2.17-1.01,3.76-.14,1.59.87,2.75.58,4.19.29s4.19-.72,6.07,0,2.31,0,3.18,0,2.75.43,3.47,0"/>
      <path class="cls-13" d="M234.31,183.77c-1.73-1.59-3.32-4.05-5.64-4.34,4.19.72,11.71,2.6,14.89,2.6s7.66-.43,8.53-.87c.87-.43,1.15.43.87,1.16-.29.72-1.3,2.02-2.17,2.02"/>
      <path class="cls-13" d="M249.78,181.6c1.01-1.3,2.75-6.5.29-6.79h-5.93c.14,2.6-1.01,6.07-2.17,6.21,2.46-.58,6.21-.72,6.94.58"/>
      <line class="cls-13" x1="247.17" y1="172.93" x2="244.57" y2="174.81"/>
      <line class="cls-13" x1="247.17" y1="172.93" x2="249.49" y2="174.52"/>
      <path class="cls-13" d="M238.5,181.03c.58-1.16,2.46-2.17,4.34-.15"/>
      <path class="cls-13" d="M242.55,180.45l-.72-4.34c-1.59.72-3.47,2.89-2.6,3.76"/>
      <path class="cls-13" d="M237.63,181.6c-.29-3.47,1.59-6.36,2.46-6.65-2.89.15-6.94,1.73-8.24,5.06"/>
      <path class="cls-13" d="M235.9,174.52l2.17-1.45,2.02,1.88-5.2-.29c-1.3,1.16-5.35,4.62-6.21,4.77"/>
      <polyline class="cls-13" points="258.3 181.4 253.1 185.94 257.33 188.11"/>
      <path class="cls-13" d="M288.11,175.39c-1.34-.14-2.5-.72-2.64-2.02,1.01-.29,2.64-1.01,2.64-2.24v4.26c.91.15,2.13-1.3,2.56-2.31-1.01-.14-2.56-1.01-2.56-1.95"/>
      <path class="cls-13" d="M283.54,198.47c-1.44-.29-1.54-1.83-5.87-.97,0,0-1.68-.58-2.6-.58s-2.31,1.45-2.31,1.45"/>
      <line class="cls-13" x1="268.13" y1="198.37" x2="265.82" y2="197.79"/>
      <path class="cls-13" d="M262.06,198.37c-2.02-.58-3.76-1.16-3.76-1.16,0,0-1.44-.29-3.18.29-1.16.39-1.93.67-2.31.87"/>
      <path class="cls-13" d="M279.11,196.92c1.16-1.73,6.36-6.07,9.83-7.23-8.09,3.47-15.61,6.07-22.54,4.91-6.94-1.16-13.29-3.18-13.29-3.18,1.15,1.44,4.62,3.76,4.33,5.49"/>
      <path class="cls-13" d="M279.26,186.23c-1.01.43-6.07.14-6.65-.14,1.01,1.88,1.01,5.92-.29,7.8,1.74-1.3,4.62-1.59,6.79-.58"/>
      <path class="cls-13" d="M271.45,181.03s-1.53-.07-3.17-.22c-1.78-.16-3.68-.42-3.91-.8.43,1.59.58,4.19-.87,5.2,2.02-.15,5.35-1.16,6.79.58"/>
      <line class="cls-13" x1="261.34" y1="174.96" x2="261.19" y2="177.27"/>
      <line class="cls-13" x1="267.94" y1="172.21" x2="267.8" y2="174.52"/>
      <line class="cls-13" x1="276.31" y1="172.93" x2="276.12" y2="175.97"/>
      <path class="cls-13" d="M287.78,189.99s-2-8.65-8.07-9.8c4.34,6.94,2.29,9.22,1.13,12.12"/>
      <path d="M274.88,176.42h0c1.15,0,2.11.37,2.83,1.09,1.12,1.12.85,2.22.48,2.9-1.06-.97-2.68-1.66-4.08-1.66h-.05c.11-.7-.03-1.43-.43-2.2.35-.07.78-.14,1.25-.14M274.88,175.67c-1.35,0-2.42.45-2.42.45.83,1.11,1.4,2.48.17,3.87.37-.33.89-.48,1.48-.48,1.47,0,3.34.91,4.13,2.1,0,0,2.31-2.31,0-4.62-1.03-1.03-2.28-1.31-3.36-1.31h0ZM272.63,179.98c-.06.05-.11.11-.17.18.06-.06.11-.12.17-.18h0Z"/>
      <path class="cls-13" d="M280.56,192.73c1.16-2.02.87-6.36-1.3-6.5-1.04-.07,1.16-3.9-.43-4.62-2.75,0-5.49-.58-7.66-1.3,1.3,1.3,2.02,4.91.87,5.49,1.59-.14,4.48-1.3,6.79.58"/>
      <path d="M264.03,186.37c2.63.24,7.17.46,7.39.47h.03c.07.1.14.22.23.37.76,1.23-.19,4.18-1.14,5.68-.89-.77-2.08-1.16-3.55-1.16-1.19,0-2.38.27-3.29.54.44-1.74.55-4.26.34-5.89M263.07,185.51c.72,1.73.14,7.37-.72,7.95-.07.05-.09.07-.07.07.14,0,2.43-1.05,4.71-1.05,1.36,0,2.71.37,3.6,1.56,1.15-1.16,2.89-5.35,1.73-7.23-.52-.84-.75-1.07-.84-1.07-.11,0-.03.35-.03.35,0,0-6.22-.29-8.38-.58h0Z"/>
      <path class="cls-13" d="M271.16,180.3c.29-1.01,1.15-4.48-.87-5.2-2.6-.15-7.08-1.3-6.36-.72.72.58,1.3,3.04.87,4.91-.43,1.88.43,1.01.43,1.01,0,0,3.04-2.02,5.78.58"/>
      <path class="cls-13" d="M263.94,181.03c.43-1.01,1.3-3.18-1.16-3.47s-5.2-.29-5.2-.29c0,0,2.96,3.04,1.23,3.76,1.16.15,4.99-.43,4.99-.43"/>
      <path class="cls-13" d="M262.93,186.23l-6.36-.29c1.44-.87,2.17-4.34,1.01-4.91"/>
      <path class="cls-13" d="M260.47,193.31c2.46-1.16,1.73-4.77,1.3-4.91l-4.91-.87c.29,2.02-2.02,3.47-2.6,3.9"/>
      <rect class="cls-13" x="286.05" y="164.7" width="4.62" height="2.31"/>
      <line class="cls-13" x1="288.51" y1="163.25" x2="288.51" y2="164.7"/>
      <rect class="cls-13" x="285.04" y="167.3" width="6.65" height="2.31"/>
      <rect class="cls-13" x="284.6" y="169.76" width="7.51" height="2.74"/>
      <path class="cls-13" d="M406.72,207.33c-.87-.72-1.45-2.02-4.19-.72-2.74,1.3-4.04.72-4.04.72"/>
      <path class="cls-13" d="M395.16,207.04c-1.3-.14-2.17-1.45-5.2-.29"/>
      <path class="cls-13" d="M405.27,206.03c.43-.72,1.16-3.03,3.32-3.76-2.17.43-8.67,2.6-11.85,2.46-3.18-.14-6.94-1.16-7.52-1.45.35.17,2.91,2.83,3.25,2.82"/>
      <line class="cls-13" x1="395.74" y1="196.92" x2="395.88" y2="198.51"/>
      <path class="cls-13" d="M392.27,196.2c1.3.43,4.77,3.04,4.91,3.76.14.72-.58,4.34-1.59,4.77-1.01-1.3-3.18-2.6-5.78-1.73,1.16-1.73,2.46-3.32,2.46-6.79Z"/>
      <path class="cls-13" d="M397.18,201.4s1.88-3.18,1.45-5.2c1.59,1.16,3.61,2.89,3.9,3.61.14,1.01.14,3.32-.43,4.05-.58.72-1.16.29-1.16.29-1.3-.87-2.89-1.3-4.48-.14"/>
      <path class="cls-13" d="M400.94,196.05c2.17.72,6.65,2.46,7.66,6.21-1.88,0-3.61.14-4.19.87-.58.72.72-3.04-3.47-7.08h0Z"/>
      <polygon class="cls-13" points="396.31 192.88 396.75 197.07 393.57 195.91 396.31 192.88"/>
      <polyline class="cls-13" points="402.24 196.34 401.66 192.88 398.77 194.47 402.24 197.93"/>
      <path class="cls-13" d="M385.76,193.6c.87-.29,1.45-.72,2.89-.14s2.31.58,3.76.58,2.46.15,2.46.15"/>
      <line class="cls-13" x1="396.75" y1="194.18" x2="398.77" y2="194.47"/>
      <path class="cls-13" d="M402.09,194.18s3.04.43,3.32-.15,1.73-.29,1.73-.29"/>
      <path class="cls-13" d="M404.36,193.94c.58-2.02,5.15-5.25,6.3-5.54-2.75,0-6.79,2.02-8.82,2.46-2.02.43-5.35.72-7.8.14-2.46-.58-6.79-1.16-7.8-1.3-1.01-.14,0,1.01.29,1.59.29.58,1.16,1.73,1.59,1.88"/>
      <line class="cls-13" x1="409.8" y1="188.4" x2="403.87" y2="182.76"/>
      <line class="cls-13" x1="407.63" y1="188.89" x2="403.15" y2="183.49"/>
      <path class="cls-13" d="M397.73,181.46h5.92s.79,1.23.36,1.73-4.55.15-4.77.07c-.22-.07-1.73-.22-1.73-.22,0,0-.79-1.59-.29-1.59h.51Z"/>
      <path class="cls-13" d="M404.59,185.73l-7.44-.58s-.36.94.15,1.23,5.63.94,6,.65c.36-.29.43-1.3,1.3-1.3h0Z"/>
      <line class="cls-13" x1="400.04" y1="191" x2="400.26" y2="187.1"/>
      <line class="cls-13" x1="400.18" y1="185.22" x2="400.4" y2="183.7"/>
      <polyline class="cls-3" points="400.69 181.25 400.91 178.93 402.71 181.46"/>
      <line class="cls-13" x1="398.98" y1="181.46" x2="400.91" y2="178.93"/>
      <polyline class="cls-13" points="402.27 185.55 400.91 183.85 400.12 183.56 398.35 185.24"/>
      <path class="cls-3" d="M404.07,190.24l-3.83-2.74-2.07,1.91-3.5-3.22-.76.48-1.45,2.02-1.73-2.46-2.38.07-1.66,2.31-.79.72,3.9-.29s6.79.07,7.59.21c.79.15,2.17,1.3,2.82,1.23.65-.07,3.47-.43,3.47-.43"/>
      <line class="cls-13" x1="394.26" y1="190.86" x2="394.34" y2="186.12"/>
      <line class="cls-13" x1="389.35" y1="190.06" x2="389.35" y2="185.52"/>
      <path class="cls-13" d="M386.96,184.2l4.77.1s.94.95.07,1.24c-.87.28-3.04-.14-3.9-.1-.87.05-1.81-.71-.94-1.24h0Z"/>
      <path class="cls-13" d="M392.46,184.49l4.99.2s-.29,1.22-1.01,1.22-2.6.2-3.25-.15-1.52-.63-.72-1.27h0Z"/>
      <polyline class="cls-13" points="389.85 184.21 389.9 183.12 391.93 184.56"/>
      <line class="cls-13" x1="389.9" y1="183.12" x2="387.9" y2="184.21"/>
      <path class="cls-13" d="M386.96,180.81l5.13.29c.43,1.3.51,2.17-.65,2.02-1.16-.14-2.6-.36-3.76-.36s-.72-.94-.72-1.95Z"/>
      <polyline class="cls-3" points="389.93 180.67 390 178.93 391.3 180.74 388.62 180.67 390 178.93"/>
      <polyline class="cls-13" points="395.07 182.59 393.19 184.41 394.55 184.5 395.02 182.97 396.15 184.74"/>
      <path class="cls-13" d="M392.53,181.17l4.33.29s.65.79.29,1.16c-.36.36-3.11.65-3.76.29-.65-.36-.94-.65-.87-1.73h0Z"/>
      <polyline class="cls-3" points="394.98 181.25 395.2 178.79 396.29 181.46"/>
      <line class="cls-13" x1="395.2" y1="178.79" x2="392.96" y2="181.1"/>
    </g>
    <g id="stars">
      <g>
        <path d="M239.95,136.86l1.06-1.93.32,2.19,2.18.41-1.99.93.29,2.17-1.52-1.62-2.03.93,1.05-1.93-1.49-1.57,2.12.42h0Z"/>
        <path d="M243.33,131.25l1.19-1.85.16,2.21,2.15.56-2.05.79.14,2.19-1.4-1.72-2.08.79,1.18-1.85-1.37-1.67,2.08.56h0Z"/>
        <path d="M247.08,125.89l1.31-1.77v2.22s2.11.71,2.11.71l-2.1.64v2.19s-1.29-1.82-1.29-1.82l-2.14.64,1.31-1.76-1.25-1.76,2.04.71h0Z"/>
        <path d="M251.19,120.81l1.43-1.67-.14,2.21,2.05.85-2.14.5-.16,2.19-1.15-1.9-2.17.49,1.43-1.67-1.13-1.84,1.99.84Z"/>
        <path d="M255.65,116.02l1.54-1.57-.3,2.2,1.99.99-2.17.35-.31,2.17-1.01-1.98-2.2.34,1.54-1.56-1-1.92,1.92.98h0Z"/>
        <path d="M260.44,111.56l1.65-1.46-.45,2.17,1.91,1.13-2.18.19-.46,2.14-.87-2.04-2.22.19,1.64-1.45-.86-1.98s1.85,1.11,1.85,1.11Z"/>
        <path d="M265.52,107.44l1.75-1.34-.6,2.13,1.83,1.26-2.19.04-.61,2.11-.73-2.1-2.23.03,1.74-1.33-.72-2.04,1.77,1.24h0Z"/>
        <path d="M270.88,103.69l1.84-1.21-.75,2.08,1.73,1.38-2.19-.11-.76,2.05-.58-2.14-2.22-.13,1.83-1.21-.57-2.08,1.67,1.36h0Z"/>
        <path d="M276.5,100.33l1.92-1.08-.9,2.03,1.63,1.5-2.18-.27-.9,2-.43-2.18-2.21-.29,1.91-1.07-.43-2.12,1.57,1.47h0Z"/>
        <path d="M282.34,97.38l1.99-.94-1.04,1.96,1.52,1.62-2.15-.42-1.04,1.93-.27-2.2-2.18-.44,1.99-.93-.27-2.14,1.46,1.58h0Z"/>
        <path d="M288.38,94.85l2.06-.79-1.18,1.88,1.4,1.72-2.11-.58-1.18,1.85-.1-2.22-2.15-.6,2.05-.79-.12-2.16,1.34,1.69h0Z"/>
        <path d="M294.59,92.78l2.11-.64-1.31,1.79,1.27,1.82-2.07-.73-1.31,1.75.05-2.22-2.1-.76,2.1-.64.04-2.16,1.22,1.78h0Z"/>
        <path d="M300.94,91.16l2.15-.48-1.44,1.68,1.13,1.91-2.01-.88-1.44,1.65.22-2.21-2.04-.91,2.14-.48.2-2.15,1.08,1.86h0Z"/>
        <path d="M307.39,90.02l2.18-.32-1.56,1.57.99,1.99-1.93-1.03-1.56,1.54.38-2.19-1.96-1.06,2.17-.32.36-2.13.94,1.94h0Z"/>
        <path d="M313.9,89.35l2.2-.16-1.67,1.46.84,2.05-1.85-1.17-1.67,1.42.54-2.15-1.88-1.2,2.19-.16.51-2.1.8,2h0Z"/>
        <path d="M320.45,89.18h2.2s-1.77,1.33-1.77,1.33l.68,2.11-1.76-1.3-1.77,1.29.7-2.11-1.79-1.33h2.19s.67-2.05.67-2.05l.65,2.06h0Z"/>
        <path d="M327,89.47l2.19.16-1.87,1.19.53,2.15-1.66-1.43-1.86,1.17.85-2.05-1.68-1.46,2.19.16.81-2,.5,2.1h0Z"/>
        <path d="M333.55,90.25l2.18.32-1.95,1.05.37,2.19-1.55-1.55-1.94,1.03,1-1.98-1.57-1.58,2.17.32.96-1.94.34,2.13h0Z"/>
        <path d="M339.98,91.5l2.15.48-2.02.91.21,2.21-1.44-1.66-2.01.88,1.14-1.9-1.45-1.69,2.14.48,1.1-1.86.18,2.15Z"/>
        <path d="M346.3,93.21l2.1.64-2.08.76.04,2.22-1.31-1.76-2.07.73,1.28-1.82-1.32-1.79,2.1.64,1.23-1.77s.02,2.15.02,2.15Z"/>
        <path d="M352.48,95.39l2.05.79-2.13.6-.12,2.22-1.18-1.85-2.12.58,1.41-1.72-1.19-1.89,2.05.79,1.36-1.68-.13,2.15Z"/>
        <path d="M358.48,98.02l1.99.94-2.17.44-.28,2.2-1.04-1.93-2.15.42,1.53-1.61-1.05-1.97,1.98.94,1.48-1.57-.29,2.14h0Z"/>
        <path d="M364.27,101.08l1.92,1.09-2.2.28-.44,2.18-.9-2-2.18.26,1.65-1.49-.9-2.04,1.91,1.08,1.59-1.46-.45,2.11h0Z"/>
        <path d="M369.82,104.55l1.83,1.22-2.21.12-.6,2.14-.75-2.06-2.19.1,1.75-1.37-.75-2.1,1.82,1.22,1.69-1.34-.6,2.07h0Z"/>
        <path d="M375.11,108.42l1.74,1.35-2.22-.04-.75,2.09-.6-2.11-2.19-.06,1.84-1.24-.6-2.15,1.73,1.35,1.79-1.22-.75,2.02h0Z"/>
        <path d="M380.1,112.64l1.64,1.47-2.21-.19-.9,2.03-.45-2.15-2.18-.21,1.93-1.11-.44-2.18,1.63,1.46,1.87-1.09-.89,1.96h0Z"/>
        <path d="M384.78,117.21l1.53,1.58-2.19-.35-1.04,1.96-.29-2.17-2.16-.36,2-.97-.29-2.21,1.52,1.57,1.94-.95-1.02,1.9h0Z"/>
        <path d="M389.14,122.1l1.42,1.69-2.16-.5-1.17,1.89-.14-2.19-2.13-.52,2.06-.82-.13-2.23,1.41,1.68,2-.81-1.16,1.82Z"/>
        <path d="M393.13,127.28l1.29,1.78-2.12-.65-1.3,1.8v-2.19s-2.08-.66-2.08-.66l2.11-.68.02-2.23,1.29,1.77,2.05-.67-1.28,1.73h0Z"/>
        <path d="M396.76,132.73l1.17,1.87-2.07-.8-1.42,1.7.16-2.19-2.04-.81,2.16-.53.18-2.22,1.16,1.86,2.1-.53-1.4,1.64h0Z"/>
        <path d="M399.99,138.41l1.04,1.94-2.01-.94-1.54,1.6.31-2.17-1.98-.94,2.19-.38.33-2.2,1.03,1.93,2.13-.38-1.51,1.54h0Z"/>
      </g>
      <g>
        <path d="M298.17,102.87l-3.34,1.13.45,1.32,3.07-1.04.38,1.11-3.07,1.04.55,1.63,3.49-1.18.38,1.11-4.77,1.61-2.12-6.29,4.62-1.56.38,1.11h0Z"/>
        <path d="M308.74,103.62c.35,1.71-.54,2.66-2.18,2.99-.6.12-1.52.15-2.23-.37-.44-.33-.68-.83-.83-1.47l-.87-4.32,1.39-.28.85,4.23c.18.91.79,1.2,1.43,1.07.93-.19,1.22-.72,1.06-1.51l-.87-4.29,1.39-.28.85,4.23h0Z"/>
        <path d="M312.96,98.7l3.35-.23c1.76-.12,2.18,1.15,2.22,1.72.05.73-.27,1.38-.91,1.65.56.2.87.38.96,1.62.07.97.09,1.21.39,1.3v.17s-1.52.11-1.52.11c-.11-.31-.19-.64-.24-1.33-.06-.9-.14-1.25-1.17-1.18l-1.43.1.18,2.59-1.35.1-.47-6.62h0ZM316.15,101.41c.72-.05,1.05-.32,1.01-.98-.02-.35-.22-.86-1.03-.8l-1.73.12.12,1.77,1.62-.11h0Z"/>
        <path d="M328.19,99.74l-3.52-.19-.07,1.39,3.23.17-.07,1.17-3.23-.17-.09,1.72,3.67.19-.06,1.17-5.03-.27.36-6.63,4.87.26-.06,1.17h0Z"/>
        <path d="M333.55,105.93l-1.37-.24,1.17-6.54,1.37.25-.48,2.66,2.97-2.21,1.77.32-3.15,2.2,2.13,4.37-1.76-.32-1.51-3.23-.75.54-.4,2.21h0Z"/>
        <path d="M342.37,107.93l-1.39-.44,4.27-5.61,1.52.48.22,7.04-1.44-.46v-1.43s-2.33-.74-2.33-.74l-.85,1.17h0ZM343.93,105.78l1.61.51v-2.75s0,0,0,0l-1.6,2.25h0Z"/>
      </g>
    </g>
    <g id="outside_seal_elements">
      <g class="cls-21">
        <text class="cls-23" transform="translate(228.56 235.91) rotate(-118.82)"><tspan x="0" y="0">J</tspan></text>
      </g>
      <g class="cls-21">
        <text class="cls-23" transform="translate(223.1 226.78) rotate(-110.29)"><tspan x="0" y="0">U</tspan></text>
      </g>
      <g class="cls-21">
        <text class="cls-23" transform="translate(215.82 207.07) rotate(-99.07)"><tspan x="0" y="0">D</tspan></text>
      </g>
      <g class="cls-21">
        <text class="cls-23" transform="translate(212.93 186.24) rotate(-90.95)"><tspan x="0" y="0">I</tspan></text>
      </g>
      <g class="cls-21">
        <text class="cls-23" transform="translate(212.43 176.64) rotate(-83.21)"><tspan x="0" y="0">C</tspan></text>
      </g>
      <g class="cls-21">
        <text class="cls-23" transform="translate(215.13 157.05) rotate(-75.34)"><tspan x="0" y="0">I</tspan></text>
      </g>
      <g class="cls-21">
        <text class="cls-23" transform="translate(217.33 147.67) rotate(-67.97)"><tspan x="0" y="0">A</tspan></text>
      </g>
      <g class="cls-21">
        <text class="cls-23" transform="translate(224.01 131.34) rotate(-58.89)"><tspan x="0" y="0">L</tspan></text>
      </g>
      <g class="cls-21">
        <text class="cls-23" transform="translate(237.2 111.13) rotate(-45.73)"><tspan x="0" y="0">B</tspan></text>
      </g>
      <g class="cls-21">
        <text class="cls-23" transform="translate(249.44 98.58) rotate(-36.38)"><tspan x="0" y="0">R</tspan></text>
      </g>
      <g class="cls-21">
        <text class="cls-23" transform="translate(263.67 88.1) rotate(-26.98)"><tspan x="0" y="0">A</tspan></text>
      </g>
      <g class="cls-21">
        <text class="cls-23" transform="translate(279.25 79.98) rotate(-16.54)"><tspan x="0" y="0">N</tspan></text>
      </g>
      <g class="cls-21">
        <text class="cls-23" transform="translate(299.69 73.99) rotate(-5.62)"><tspan x="0" y="0">C</tspan></text>
      </g>
      <g class="cls-21">
        <text class="cls-23" transform="translate(319.17 71.97) rotate(5.28)"><tspan x="0" y="0">H</tspan></text>
      </g>
      <g class="cls-21">
        <text class="cls-22" transform="translate(349.34 73.88) rotate(19.27)"><tspan x="0" y="0">o</tspan></text>
      </g>
      <g class="cls-21">
        <text class="cls-22" transform="translate(363.59 79.06) rotate(25.8)"><tspan x="0" y="0">f</tspan></text>
      </g>
      <g class="cls-21">
        <text class="cls-23" transform="translate(377.91 88.92) rotate(37.76)"><tspan x="0" y="0">C</tspan></text>
      </g>
      <g class="cls-21">
        <text class="cls-23" transform="translate(393.38 101.02) rotate(47.63)"><tspan x="0" y="0">A</tspan></text>
      </g>
      <g class="cls-21">
        <text class="cls-23" transform="translate(405.21 114.09) rotate(56.64)"><tspan x="0" y="0">L</tspan></text>
      </g>
      <g class="cls-21">
        <text class="cls-23" transform="translate(414.08 127.95) rotate(63.62)"><tspan x="0" y="0">I</tspan></text>
      </g>
      <g class="cls-21">
        <text class="cls-23" transform="translate(418.51 136.53) rotate(70.4)"><tspan x="0" y="0">F</tspan></text>
      </g>
      <g class="cls-21">
        <text class="cls-23" transform="translate(423.96 150.95) rotate(80.5)"><tspan x="0" y="0">O</tspan></text>
      </g>
      <g class="cls-21">
        <text class="cls-23" transform="translate(427.41 172.89) rotate(91.02)"><tspan x="0" y="0">R</tspan></text>
      </g>
      <g class="cls-21">
        <text class="cls-23" transform="translate(427.26 190.56) rotate(101.39)"><tspan x="0" y="0">N</tspan></text>
      </g>
      <g class="cls-21">
        <text class="cls-23" transform="translate(422.6 211.49) rotate(109.71)"><tspan x="0" y="0">I</tspan></text>
      </g>
      <g class="cls-21">
        <text class="cls-23" transform="translate(419.57 220.67) rotate(117.08)"><tspan x="0" y="0">A</tspan></text>
      </g>
      <path class="cls-11" d="M415.8,180.02c0,53.11-43.06,96.18-96.18,96.18s-96.17-43.06-96.17-96.18,43.06-96.18,96.17-96.18,96.18,43.06,96.18,96.18Z"/>
      <path class="cls-11" d="M461.22,180.02c0,78.2-63.4,141.6-141.6,141.6s-141.6-63.4-141.6-141.6S241.42,38.42,319.62,38.42s141.6,63.4,141.6,141.6h0Z"/>
    </g>
  </g>
</svg>